<?xml version="1.0" encoding="UTF-8"?>
<svg xmlns="http://www.w3.org/2000/svg" width="59.549" height="25.21" viewBox="0 0 59.549 25.21">
  <g transform="translate(-79 -20.862)">
    <g transform="translate(83.731 22.965)">
      <path d="M63.151,220.933v-3.527a7.392,7.392,0,0,1-8.25,0v3.527a10.49,10.49,0,0,0,8.25,0Z" transform="translate(-54.901 -200.773)" fill="#fff"></path>
      <path d="M54.9,25.245v3.527a7.392,7.392,0,0,1,8.25,0V25.245a10.489,10.489,0,0,0-8.25,0Z" transform="translate(-54.901 -24.4)" fill="#fff"></path>
    </g>
    <path d="M163.561,0V7.3a7.382,7.382,0,0,1,0,10.606v7.3a13.612,13.612,0,0,0,0-25.21Z" transform="translate(-70.466 20.862)" fill="#fff"></path>
    <path d="M0,70.14A8.937,8.937,0,0,0,3.616,77.32V75.254a7.381,7.381,0,0,1,0-10.227V62.961A8.937,8.937,0,0,0,0,70.14Z" transform="translate(79 -36.673)" fill="#fff"></path>
    <path d="M318.2,83.422a5.464,5.464,0,1,0,5.464,5.464A5.464,5.464,0,0,0,318.2,83.422Zm0,8.86a3.4,3.4,0,1,1,3.4-3.4A3.4,3.4,0,0,1,318.2,92.282Z" transform="translate(-206.788 -55.371)" fill="#fff"></path>
    <path d="M457.535,96.44V85.874h2.007l3.2,5.222L466,85.874h1.917V96.44h-2.128V92.712c0-.614.01-1.062.03-1.59s.05-1.039.091-1.532L463.2,93.8h-1l-2.656-4.181q.075.694.1,1.472c.015.519.023.977.023,1.621V96.44Z" transform="translate(-339.106 -57.611)" fill="#fff"></path>
    <path d="M602.348,89.1a6.334,6.334,0,0,0-2.634-1.109,4.655,4.655,0,0,1-1.441-.5.975.975,0,0,1-.536-.876.961.961,0,0,1,.46-.838,2.113,2.113,0,0,1,1.162-.307,3.177,3.177,0,0,1,1.578.33,4.691,4.691,0,0,1,1.036.653l.932-1.444.11-.165a7.125,7.125,0,0,0-1.279-.792A5.388,5.388,0,0,0,599.4,83.6a4.617,4.617,0,0,0-1.924.393,3.527,3.527,0,0,0-1.4,1.094,2.625,2.625,0,0,0-.528,1.623,2.819,2.819,0,0,0,.83,2.128A5.132,5.132,0,0,0,598.914,90a5.455,5.455,0,0,1,1.607.551,1.083,1.083,0,0,1,.626.974.92.92,0,0,1-.49.815,2.112,2.112,0,0,1-1.029.344,4.337,4.337,0,0,1-2.15-.439,5.166,5.166,0,0,1-1.387-.891l-1.039,1.6a8.314,8.314,0,0,0,1.659,1.01,5.891,5.891,0,0,0,2.61.55,5.1,5.1,0,0,0,2.09-.4,3.218,3.218,0,0,0,1.4-1.155,3.177,3.177,0,0,0,.506-1.811A2.464,2.464,0,0,0,602.348,89.1Z" transform="translate(-464.772 -55.531)" fill="#fff"></path>
  </g>
</svg>
