<?xml version="1.0" encoding="UTF-8"?>
<svg xmlns="http://www.w3.org/2000/svg" width="24.919" height="19.919" viewBox="0 0 24.919 19.919">
  <g transform="translate(1196.61 96.888) rotate(180)" opacity="0.447">
    <path d="M1303.613,87.036l4.123-7.914-3.922-2.153-5.153,9.537a26.167,26.167,0,0,0-1.308,3.115,6.8,6.8,0,0,0-.385,2.038,5.032,5.032,0,0,0,1.538,3.691,4.943,4.943,0,0,0,3.615,1.538,4.819,4.819,0,0,0,3.577-1.538,5.1,5.1,0,0,0,1.5-3.691,4.511,4.511,0,0,0-1.345-3.384A4.4,4.4,0,0,0,1303.613,87.036Z" transform="translate(-111.126 0)" fill="#fff"></path>
    <path d="M1178.537,76.969l-5.155,9.537a18.365,18.365,0,0,0-1.345,3.115,7.564,7.564,0,0,0-.346,2.038,5.032,5.032,0,0,0,1.538,3.691,4.943,4.943,0,0,0,3.615,1.538,4.82,4.82,0,0,0,3.578-1.538,5.1,5.1,0,0,0,1.5-3.691,4.511,4.511,0,0,0-1.346-3.384,4.4,4.4,0,0,0-2.238-1.238l4.123-7.914Z" transform="translate(0 0)" fill="#fff"></path>
  </g>
</svg>
