<?xml version="1.0" standalone="no"?>
<!DOCTYPE svg PUBLIC "-//W3C//DTD SVG 1.1//EN" "http://www.w3.org/Graphics/SVG/1.1/DTD/svg11.dtd" >
<svg xmlns="http://www.w3.org/2000/svg" xmlns:xlink="http://www.w3.org/1999/xlink" version="1.1">
<metadata>
Created by FontForge 20170731 at Fri Jul 30 19:16:08 2021
 By Aleksey,,,
Copyright 2019 The Lexend Project Authors (https://github.com/googlefonts/lexend)
</metadata>
<defs>
<font id="Lexend-ExtraBold" horiz-adv-x="0" >
  <font-face 
    font-family="Lexend ExtraBold"
    font-weight="800"
    font-stretch="normal"
    units-per-em="1000"
    panose-1="0 0 0 0 0 0 0 0 0 0"
    ascent="800"
    descent="-200"
    x-height="533"
    cap-height="700"
    bbox="-217 -316 1413 1180"
    underline-thickness="50"
    underline-position="-175"
    unicode-range="U+000D-FB02"
  />
<missing-glyph horiz-adv-x="584" 
d="M75 0q-35 0 -35 35v630q0 35 35 35h434q35 0 35 -35v-630q0 -35 -35 -35h-434zM508 65q2 -3 4 -2.5t2 4.5v598q0 5 -5 5h-414q-3 0 -4 -2t1 -4zM75 30h413q3 0 4 2t-1 4l-415 599q-2 3 -4 2.5t-2 -4.5v-598q0 -5 5 -5z" />
    <glyph glyph-name="fi" unicode="fi" horiz-adv-x="731" 
d="M93 0v367h-75v149h75v29q0 55 24 100t67 72t100 27q40 0 73.5 -11t62.5 -30l-50 -134q-27 9 -43 9q-47 0 -47 -53v-9h102v-149h-102v-367h-187zM562 634q-50 0 -78.5 23.5t-28.5 66.5q0 40 28.5 65.5t78.5 25.5q51 0 79 -23.5t28 -67.5q0 -40 -28.5 -65t-78.5 -25zM469 0
v533h186v-533h-186z" />
    <glyph glyph-name="fl" unicode="fl" horiz-adv-x="721" 
d="M93 0v367h-75v149h75v29q0 55 24 100t67 72t100 27q40 0 73.5 -11t62.5 -30l-50 -134q-27 9 -43 9q-47 0 -47 -53v-9h102v-149h-102v-367h-187zM464 0v740h186v-740h-186z" />
    <glyph glyph-name="f_f" unicode="ff" horiz-adv-x="786" 
d="M93 0v367h-75v149h75v29q0 55 24 100t67 72t100 27q40 0 73.5 -11t62.5 -30l-50 -134q-27 9 -43 9q-47 0 -47 -53v-9h102v-149h-102v-367h-187zM486 0v367h-75v149h75v29q0 55 24 100t67 72t100 27q40 0 73.5 -11t62.5 -30l-50 -134q-27 9 -43 9q-47 0 -47 -53v-9h102
v-149h-102v-367h-187z" />
    <glyph glyph-name="f_f_i" unicode="ffi" horiz-adv-x="1124" 
d="M93 0v367h-75v149h75v29q0 55 24 100t67 72t100 27q40 0 73.5 -11t62.5 -30l-50 -134q-27 9 -43 9q-47 0 -47 -53v-9h102v-149h-102v-367h-187zM486 0v367h-75v149h75v29q0 55 24 100t67 72t100 27q40 0 73.5 -11t62.5 -30l-50 -134q-27 9 -43 9q-47 0 -47 -53v-9h102
v-149h-102v-367h-187zM955 634q-50 0 -78.5 23.5t-28.5 66.5q0 40 28.5 65.5t78.5 25.5q51 0 79 -23.5t28 -67.5q0 -40 -28.5 -65t-78.5 -25zM862 0v533h186v-533h-186z" />
    <glyph glyph-name="f_f_l" unicode="ffl" horiz-adv-x="1114" 
d="M93 0v367h-75v149h75v29q0 55 24 100t67 72t100 27q40 0 73.5 -11t62.5 -30l-50 -134q-27 9 -43 9q-47 0 -47 -53v-9h102v-149h-102v-367h-187zM486 0v367h-75v149h75v29q0 55 24 100t67 72t100 27q40 0 73.5 -11t62.5 -30l-50 -134q-27 9 -43 9q-47 0 -47 -53v-9h102
v-149h-102v-367h-187zM857 0v740h186v-740h-186z" />
    <glyph glyph-name=".notdef" horiz-adv-x="584" 
d="M75 0q-35 0 -35 35v630q0 35 35 35h434q35 0 35 -35v-630q0 -35 -35 -35h-434zM508 65q2 -3 4 -2.5t2 4.5v598q0 5 -5 5h-414q-3 0 -4 -2t1 -4zM75 30h413q3 0 4 2t-1 4l-415 599q-2 3 -4 2.5t-2 -4.5v-598q0 -5 5 -5z" />
    <glyph glyph-name=".null" 
 />
    <glyph glyph-name="nonmarkingreturn" horiz-adv-x="333" 
 />
    <glyph glyph-name="CR" unicode="&#xd;" horiz-adv-x="277" 
 />
    <glyph glyph-name="space" unicode=" " horiz-adv-x="338" 
 />
    <glyph glyph-name="exclam" unicode="!" horiz-adv-x="343" 
d="M112 262q-14 90 -26.5 186.5t-12.5 185.5v83h196v-83q0 -89 -12.5 -186.5t-26.5 -185.5h-118zM172 -11q-45 0 -69.5 25t-24.5 71q0 42 26 69t68 27q44 0 69 -25t25 -71q0 -42 -26.5 -69t-67.5 -27z" />
    <glyph glyph-name="quotedbl" unicode="&#x22;" horiz-adv-x="507" 
d="M283 434l19 266h184l-85 -266h-118zM48 434l19 266h184l-85 -266h-118z" />
    <glyph glyph-name="numbersign" unicode="#" horiz-adv-x="760" 
d="M109 0l23 140h-77v149h103l22 131h-87v149h113l23 131h164l-23 -131h96l23 131h164l-23 -131h75v-149h-100l-23 -131h86v-149h-111l-24 -140h-164l24 140h-96l-24 -140h-164zM322 289h96l23 131h-96z" />
    <glyph glyph-name="dollar" unicode="$" horiz-adv-x="639" 
d="M262 -91l3 84q-81 7 -141.5 35t-105.5 73l83 150q44 -39 86.5 -61t83.5 -31l4 114q-117 26 -174.5 80t-57.5 144q0 61 33.5 108t88 76t119.5 36l-3 73h106l-3 -75q64 -7 118 -30.5t103 -65.5l-70 -137q-34 28 -74.5 44.5t-82.5 22.5l-4 -106q68 -15 120 -42t81.5 -70.5
t29.5 -109.5q0 -68 -31 -117t-85 -77t-124 -35l4 -83h-107zM244 508q0 -17 14.5 -28t35.5 -18l-4 88q-46 -9 -46 -42zM406 200q0 18 -14.5 30.5t-36.5 20.5l4 -95q21 4 34 15t13 29z" />
    <glyph glyph-name="percent" unicode="%" horiz-adv-x="1027" 
d="M226 329q-53 0 -95.5 26t-66.5 70.5t-24 100.5q0 58 23.5 103t65.5 70.5t98 25.5q54 0 95.5 -25.5t65 -70.5t23.5 -103q0 -56 -24 -100.5t-66 -70.5t-95 -26zM190 0l463 700h170l-468 -700h-165zM227 444q21 0 32.5 22.5t11.5 59.5q0 38 -11.5 61t-33.5 23q-21 0 -33 -23
t-12 -61q0 -37 11.5 -59.5t34.5 -22.5zM800 -10q-53 0 -95.5 26t-66.5 70.5t-24 101.5q0 58 23.5 102.5t65.5 70t97 25.5t96.5 -25.5t65 -70t23.5 -102.5q0 -57 -24 -101.5t-66 -70.5t-95 -26zM800 105q21 0 32.5 23t11.5 60t-11.5 60t-32.5 23t-33.5 -22.5t-12.5 -60.5
q0 -37 12 -60t34 -23z" />
    <glyph glyph-name="ampersand" unicode="&#x26;" horiz-adv-x="793" 
d="M336 -10q-82 0 -146.5 30t-102 82.5t-37.5 118.5q0 64 34.5 118.5t104.5 86.5q-15 30 -20 54t-5 46q0 55 29.5 98.5t81.5 68.5t121 25q52 0 98.5 -16.5t80 -46.5t47.5 -70l-149 -87q-15 39 -31.5 51t-38.5 12q-25 0 -40 -13t-15 -37q0 -19 17 -47t43 -58.5t54 -58.5
t49 -48l18 -19q11 35 14 74h176q-15 -106 -67 -189l157 -165h-227l-46 47q-43 -28 -93.5 -42.5t-106.5 -14.5zM227 231q0 -45 32 -70.5t92 -25.5q38 0 73 17l-117 122q-18 18 -34 35q-46 -28 -46 -78z" />
    <glyph glyph-name="quotesingle" unicode="'" horiz-adv-x="273" 
d="M48 434l19 266h184l-85 -266h-118z" />
    <glyph glyph-name="parenleft" unicode="(" horiz-adv-x="400" 
d="M290 -186q-122 76 -186 190t-64 254q0 139 64.5 253.5t186.5 190.5l106 -95q-88 -60 -129.5 -152.5t-41.5 -196.5t41.5 -196.5t129.5 -152.5z" />
    <glyph glyph-name="parenright" unicode=")" horiz-adv-x="400" 
d="M109 -186l-106 95q88 60 129.5 152.5t41.5 196.5t-41.5 196.5t-129.5 152.5l107 95q122 -76 186 -190t64 -254q0 -139 -64.5 -253.5t-186.5 -190.5z" />
    <glyph glyph-name="asterisk" unicode="*" horiz-adv-x="465" 
d="M169 343l15 124l-111 -75l-61 104l133 49l-133 59l61 106l110 -84l-16 126h132l-15 -129l108 86l61 -105l-137 -59l135 -49l-61 -104l-105 81l17 -130h-133z" />
    <glyph glyph-name="plus" unicode="+" horiz-adv-x="599" 
d="M49 211v148h171v170h159v-170h171v-148h-171v-173h-159v173h-171z" />
    <glyph glyph-name="comma" unicode="," horiz-adv-x="296" 
d="M83 -209l-50 61q43 18 68.5 46t25.5 48q0 9 -5 19.5t-23 22.5q-24 17 -33.5 34.5t-9.5 39.5q0 34 25.5 54t64.5 20q47 0 78 -36.5t31 -94.5q0 -46 -22 -90t-61 -77t-89 -47z" />
    <glyph glyph-name="hyphen" unicode="-" horiz-adv-x="472" 
d="M51 204v167h371v-167h-371z" />
    <glyph glyph-name="period" unicode="." horiz-adv-x="270" 
d="M135 -11q-45 0 -69.5 25t-24.5 71q0 42 26 69t68 27q45 0 69.5 -25t24.5 -71q0 -42 -26 -69t-68 -27z" />
    <glyph glyph-name="slash" unicode="/" horiz-adv-x="612" 
d="M3 -146l418 846h186l-416 -846h-188z" />
    <glyph glyph-name="zero" unicode="0" horiz-adv-x="705" 
d="M352 -10q-152 0 -233.5 94t-81.5 266t81.5 266t233.5 94t234.5 -94t82.5 -266t-82.5 -266t-234.5 -94zM352 155q62 0 95 50.5t33 144.5q0 98 -33 151t-95 53q-61 0 -94.5 -53t-33.5 -151q0 -94 33.5 -144.5t94.5 -50.5z" />
    <glyph glyph-name="one" unicode="1" horiz-adv-x="589" 
d="M73 0v171h136v318l-119 -52l-29 177l205 96h135v-539h139v-171h-467z" />
    <glyph glyph-name="two" unicode="2" horiz-adv-x="548" 
d="M44 0l-34 82l200 215q17 19 38 43.5t40 50t31.5 50t12.5 42.5q0 21 -15.5 36.5t-50.5 15.5q-30 0 -55.5 -21.5t-50.5 -71.5l-145 76q22 58 63 103.5t94.5 71.5t112.5 25q63 0 115 -26.5t83 -73t31 -108.5q0 -51 -30.5 -114.5t-107.5 -148.5l-70 -76h243v-171h-505z" />
    <glyph glyph-name="three" unicode="3" horiz-adv-x="619" 
d="M304 -10q-90 0 -158 36t-122 127l140 90q30 -50 67 -70.5t77 -20.5q37 0 64.5 23t27.5 61q0 41 -26 62t-73 21q-20 0 -46.5 -7t-53.5 -20l-41 107l130 141l-212 6v162h444l36 -71l-173 -181q54 -10 98 -41t70.5 -77.5t26.5 -102.5q0 -70 -37 -125.5t-99.5 -87.5
t-139.5 -32z" />
    <glyph glyph-name="four" unicode="4" horiz-adv-x="681" 
d="M348 0v123h-255l-80 150l364 435h162v-426h110v-159h-110v-123h-191zM236 282h112v136z" />
    <glyph glyph-name="five" unicode="5" horiz-adv-x="609" 
d="M294 -7q-84 0 -152 32t-114 93l106 115q38 -42 73 -57.5t78 -15.5t69.5 24.5t26.5 61.5q0 39 -27.5 64.5t-70.5 25.5q-37 0 -66.5 -10.5t-70.5 -36.5l-80 105l45 314h413v-162h-284l-12 -84q23 9 47.5 14t48.5 5q68 0 121.5 -31t84.5 -86t31 -126q0 -69 -35 -124.5
t-96 -88t-136 -32.5z" />
    <glyph glyph-name="six" unicode="6" horiz-adv-x="590" 
d="M299 0q-74 0 -134.5 34.5t-96.5 92.5t-36 129q0 54 13.5 99.5t37.5 90t55 95.5l101 169h181l4 -10l-147 -226q37 15 70 15q60 0 110 -31.5t80 -83.5t30 -114q0 -74 -35 -133t-96 -93t-137 -34zM302 158q42 0 69.5 26.5t27.5 69.5q0 37 -28.5 65t-67.5 28q-43 0 -70.5 -27
t-27.5 -66q0 -41 27.5 -68.5t69.5 -27.5z" />
    <glyph glyph-name="seven" unicode="7" horiz-adv-x="558" 
d="M72 0l231 538h-264v170h467l17 -86l-257 -622h-194z" />
    <glyph glyph-name="eight" unicode="8" horiz-adv-x="607" 
d="M303 -3q-75 0 -136 27.5t-97 75t-36 108.5q0 66 26.5 110t76.5 69q-36 25 -57 60.5t-21 78.5q0 56 33 99t88.5 67.5t122.5 24.5t122.5 -24.5t88.5 -67.5t33 -99q0 -88 -80 -140q48 -23 77.5 -67t29.5 -111q0 -62 -36.5 -109.5t-97.5 -74.5t-137 -27zM303 450
q32 0 53 18.5t21 47.5t-21 48.5t-53 19.5t-52.5 -19.5t-20.5 -48.5t20.5 -47.5t52.5 -18.5zM303 146q36 0 60 21t24 55q0 33 -23.5 54.5t-60.5 21.5q-35 0 -59.5 -21.5t-24.5 -54.5t24.5 -54.5t59.5 -21.5z" />
    <glyph glyph-name="nine" unicode="9" horiz-adv-x="589" 
d="M199 0l-4 10l117 231q-38 -15 -71 -15q-57 0 -105 32t-77 84.5t-29 114.5q0 74 35.5 133t96 94t137.5 35q55 0 103.5 -19.5t85 -53.5t57.5 -78.5t21 -94.5q0 -81 -27.5 -151.5t-67.5 -147.5l-91 -174h-181zM290 376q41 0 67 27t26 65q0 41 -26 67.5t-67 26.5
q-40 0 -65.5 -26t-25.5 -68q0 -36 26.5 -64t64.5 -28z" />
    <glyph glyph-name="colon" unicode=":" horiz-adv-x="270" 
d="M135 -11q-45 0 -69.5 25t-24.5 71q0 42 26 69t68 27q45 0 69.5 -25t24.5 -71q0 -42 -26 -69t-68 -27zM135 352q-45 0 -69.5 25t-24.5 71q0 42 26 69t68 27q45 0 69.5 -25t24.5 -71q0 -42 -26 -69t-68 -27z" />
    <glyph glyph-name="semicolon" unicode=";" horiz-adv-x="304" 
d="M91 -209l-50 61q43 18 68.5 46t25.5 48q0 9 -5 19.5t-23 22.5q-24 17 -33.5 34.5t-9.5 39.5q0 34 25.5 54t64.5 20q47 0 78 -36.5t31 -94.5q0 -46 -22 -90t-61 -77t-89 -47zM149 353q-45 0 -69.5 25t-24.5 71q0 42 26 69t68 27q45 0 69.5 -25t24.5 -71q0 -42 -26 -69
t-68 -27z" />
    <glyph glyph-name="less" unicode="&#x3c;" horiz-adv-x="526" 
d="M438 -21l-400 229v104l400 229l73 -150l-261 -131l261 -131z" />
    <glyph glyph-name="equal" unicode="=" horiz-adv-x="649" 
d="M75 323v148h499v-148h-499zM75 92v148h499v-148h-499z" />
    <glyph glyph-name="greater" unicode="&#x3e;" horiz-adv-x="527" 
d="M101 -21l-73 150l261 131l-261 131l73 150l401 -229v-104z" />
    <glyph glyph-name="question" unicode="?" horiz-adv-x="547" 
d="M196 253l-35 127q41 9 79.5 24.5t62.5 38.5t24 56q0 23 -15.5 36t-41.5 13q-31 0 -61.5 -21.5t-58.5 -75.5l-125 119q46 71 109.5 109.5t133.5 38.5q67 0 121 -27t86 -74t32 -106q0 -52 -28 -101.5t-76 -87t-110 -54.5l-6 -15h-91zM160 85q0 42 26 69t68 27q44 0 69 -25
t25 -71q0 -42 -26 -69t-68 -27q-45 0 -69.5 25t-24.5 71z" />
    <glyph glyph-name="at" unicode="@" horiz-adv-x="965" 
d="M414 -162q-117 0 -200.5 46t-128.5 129t-45 193q0 117 41.5 210.5t115 159t171 100t208.5 34.5q106 0 184.5 -39.5t121.5 -110.5t43 -164q0 -70 -19.5 -133t-54.5 -111.5t-81.5 -76.5t-100.5 -28t-91 23.5t-44 62.5q-54 -86 -143 -86q-47 0 -84.5 24t-59 67t-21.5 99
q0 50 19 101t52.5 93.5t77.5 69t95 26.5q32 0 58 -18.5t40 -51.5l13 57h164l-63 -320q-4 -22 7 -31t28 -9q35 0 63.5 32.5t45 86.5t16.5 118q0 113 -72.5 177.5t-200.5 64.5q-137 0 -237 -51t-154 -146t-54 -227q0 -137 76 -214t217 -77q47 0 81 6.5t65 20t69 33.5l37 -67
q-59 -30 -101 -45.5t-78 -21.5t-76 -6zM441 183q34 0 64.5 32.5t39.5 83.5q2 12 3.5 23t1.5 21q0 25 -11.5 40.5t-38.5 15.5q-28 0 -50.5 -21t-35.5 -56t-13 -76q0 -29 11 -46t29 -17z" />
    <glyph glyph-name="A" unicode="A" horiz-adv-x="692" 
d="M-12 0l279 700h160l277 -700h-197l-43 116h-240l-43 -116h-193zM301 325l-26 -69h137l-25 69q-14 37 -24 66t-18 60q-9 -31 -19.5 -59.5z" />
    <glyph glyph-name="B" unicode="B" horiz-adv-x="709" 
d="M83 0v700h317q112 0 171.5 -46t59.5 -124q0 -110 -85 -148q56 -21 89 -64.5t33 -103.5q0 -72 -34 -119.5t-92.5 -71t-131.5 -23.5h-327zM268 423h100q37 0 54.5 16t17.5 43t-18 43t-57 16h-97v-118zM268 159h136q33 0 52 17t19 50q0 28 -20 44t-56 16h-131v-127z" />
    <glyph glyph-name="C" unicode="C" horiz-adv-x="701" 
d="M417 -10q-110 0 -195 46.5t-133 129t-48 188.5q0 79 28.5 145.5t79.5 115.5t121 76t154 27q73 0 142.5 -27.5t119.5 -81.5l-120 -138q-25 29 -60.5 47.5t-83.5 18.5q-49 0 -89.5 -22t-64 -63.5t-23.5 -99.5q0 -83 52.5 -132.5t140.5 -49.5q46 0 85 19t65 48l95 -150
q-26 -28 -68.5 -50t-94 -34.5t-103.5 -12.5z" />
    <glyph glyph-name="D" unicode="D" horiz-adv-x="783" 
d="M83 0v700h302q105 0 185.5 -45t126 -124t45.5 -181t-45.5 -181t-126 -124t-185.5 -45h-302zM380 529h-99v-358h99q48 0 84.5 22.5t57 63t20.5 93.5t-20.5 93.5t-57 63t-84.5 22.5z" />
    <glyph glyph-name="E" unicode="E" horiz-adv-x="659" 
d="M83 0v700h509v-163h-318v-105h278v-154h-278v-115h333v-163h-524z" />
    <glyph glyph-name="F" unicode="F" horiz-adv-x="625" 
d="M83 0v700h495v-171h-297v-115h259v-159h-259v-255h-198z" />
    <glyph glyph-name="G" unicode="G" horiz-adv-x="789" 
d="M414 -10q-117 0 -200.5 47t-128 129.5t-44.5 187.5t48.5 187.5t135.5 129.5t202 47q89 0 161.5 -32.5t116.5 -81.5l-118 -126q-33 31 -71.5 50t-91.5 19q-51 0 -91.5 -25t-64 -68.5t-23.5 -99.5q0 -55 24.5 -99t66.5 -69t96 -25q52 0 88 29t42 74h-157v144h338
q1 -11 2.5 -33.5t2 -44.5t0.5 -31q0 -90 -43.5 -160t-119 -109.5t-171.5 -39.5z" />
    <glyph glyph-name="H" unicode="H" horiz-adv-x="788" 
d="M83 0v700h198v-264h226v264h198v-700h-198v262h-226v-262h-198z" />
    <glyph glyph-name="I" unicode="I" horiz-adv-x="590" 
d="M75 0v163h121v375h-121v162h440v-162h-121v-375h121v-163h-440z" />
    <glyph glyph-name="J" unicode="J" horiz-adv-x="675" 
d="M264 -10q-83 0 -140 33t-90 92l111 115q21 -32 43.5 -48.5t48.5 -16.5q29 0 46.5 20t17.5 52v293h-129v170h428v-170h-108v-317q0 -70 -30.5 -120t-82 -76.5t-115.5 -26.5z" />
    <glyph glyph-name="K" unicode="K" horiz-adv-x="742" 
d="M83 0v700h198v-223l219 223h228l-296 -293l321 -407h-227l-218 285l-27 -27v-258h-198z" />
    <glyph glyph-name="L" unicode="L" horiz-adv-x="613" 
d="M83 0v700h198v-529h305v-171h-503z" />
    <glyph glyph-name="M" unicode="M" horiz-adv-x="884" 
d="M83 0v700h173l188 -306l190 306h167v-700h-191v187q0 54 1.5 101t4.5 90l-143 -222h-66l-139 219q4 -41 5 -87t1 -101v-187h-191z" />
    <glyph glyph-name="N" unicode="N" horiz-adv-x="813" 
d="M83 0v700h177l292 -401q-5 44 -8 80t-4.5 77t-0.5 97v147h191v-700h-179l-286 391q4 -34 6 -60.5t2.5 -55t0.5 -67.5v-208h-191z" />
    <glyph glyph-name="O" unicode="O" horiz-adv-x="825" 
d="M413 -10q-81 0 -149 27t-118 76t-77.5 115.5t-27.5 145.5t27.5 145.5t77.5 115.5t118 76t149 27t149 -27t117.5 -76t77 -115.5t27.5 -145.5t-27.5 -145.5t-77 -115.5t-117.5 -76t-149 -27zM413 174q49 0 87 23.5t60 64t22 92.5t-22 93t-60 64t-87 23t-87.5 -23
t-60.5 -63.5t-22 -93.5q0 -52 22 -92.5t60.5 -64t87.5 -23.5z" />
    <glyph glyph-name="P" unicode="P" horiz-adv-x="675" 
d="M83 0v700h310q69 0 123.5 -30.5t86 -83.5t31.5 -122q0 -71 -31.5 -126.5t-86 -87.5t-123.5 -32h-112v-218h-198zM278 389h81q31 0 51.5 19t20.5 53q0 33 -20.5 50.5t-51.5 17.5h-81v-140z" />
    <glyph glyph-name="Q" unicode="Q" horiz-adv-x="825" 
d="M413 -10q-81 0 -149 27t-118 76t-77.5 115.5t-27.5 145.5t27.5 145.5t77.5 115.5t118 76t149 27t149 -27t117.5 -76t77 -115.5t27.5 -145.5q0 -78 -27.5 -144.5t-76.5 -115.5l74 -101l-138 -103l-85 117q-56 -17 -118 -17zM243 354q0 -52 22 -92.5t59.5 -64t84.5 -23.5
l-62 86l141 99l72 -99q22 42 22 94t-22 93t-60 64t-87 23t-87.5 -23t-60.5 -63.5t-22 -93.5z" />
    <glyph glyph-name="R" unicode="R" horiz-adv-x="705" 
d="M83 0v700h323q71 0 126.5 -29t87.5 -79.5t32 -114.5q0 -72 -34 -127.5t-91 -84.5l154 -265h-223l-134 238h-55v-238h-186zM269 380h110q38 0 59 22.5t21 60.5q0 36 -22.5 57t-65.5 21h-102v-161z" />
    <glyph glyph-name="S" unicode="S" horiz-adv-x="638" 
d="M323 -10q-113 0 -188 37.5t-128 103.5l116 131q50 -65 103 -86.5t103 -21.5q34 0 55.5 11t21.5 35q0 23 -21.5 36.5t-51 21.5t-55.5 14q-119 27 -177 80.5t-58 144.5q0 49 22.5 90t61.5 70.5t88 45t103 15.5q111 0 174 -32t101 -87l-118 -114q-32 35 -70.5 51.5
t-78.5 16.5q-38 0 -60 -11t-22 -34q0 -19 18.5 -31t44.5 -19t48 -11q74 -15 130 -41.5t88 -71t32 -113.5q0 -75 -37.5 -126.5t-101 -78t-143.5 -26.5z" />
    <glyph glyph-name="T" unicode="T" horiz-adv-x="691" 
d="M244 0v529h-213v171h629v-171h-218v-529h-198z" />
    <glyph glyph-name="U" unicode="U" horiz-adv-x="777" 
d="M388 -6q-89 0 -158 35.5t-109 97.5t-40 142v431h200v-422q0 -49 30.5 -81t76.5 -32q49 0 81 32t32 81v422h194v-431q0 -80 -39.5 -142t-109 -97.5t-158.5 -35.5z" />
    <glyph glyph-name="V" unicode="V" horiz-adv-x="711" 
d="M275 0l-279 700h200l121 -326q16 -41 25 -67.5t17 -54.5q8 28 17.5 54.5t24.5 67.5l119 326h195l-281 -700h-159z" />
    <glyph glyph-name="W" unicode="W" horiz-adv-x="991" 
d="M199 0l-203 700h199l91 -336q6 -25 11 -48.5t8 -45.5q4 22 9 45t14 49l94 258h154l92 -258q9 -25 15.5 -47.5t11.5 -42.5q2 19 5.5 41.5t10.5 48.5l91 336h193l-204 -700h-154l-145 356l-131 -356h-162z" />
    <glyph glyph-name="X" unicode="X" horiz-adv-x="713" 
d="M-13 0l251 358l-246 342h239l131 -191l125 191h229l-242 -353l252 -347h-239l-136 197l-135 -197h-229z" />
    <glyph glyph-name="Y" unicode="Y" horiz-adv-x="702" 
d="M261 0v310l-276 390h222l154 -221l140 221h216l-256 -388v-312h-200z" />
    <glyph glyph-name="Z" unicode="Z" horiz-adv-x="694" 
d="M60 0v129l296 392h-270v179h538v-128l-302 -403h313v-169h-575z" />
    <glyph glyph-name="bracketleft" unicode="[" horiz-adv-x="427" 
d="M80 -190v890h315v-163h-134v-564h134v-163h-315z" />
    <glyph glyph-name="backslash" unicode="\" horiz-adv-x="596" 
d="M406 -107l-398 807h187l400 -807h-189z" />
    <glyph glyph-name="bracketright" unicode="]" horiz-adv-x="427" 
d="M32 -190v163h134v564h-134v163h315v-890h-315z" />
    <glyph glyph-name="asciicircum" unicode="^" horiz-adv-x="598" 
d="M5 358l223 377h142l224 -377h-183l-112 195l-114 -195h-180z" />
    <glyph glyph-name="underscore" unicode="_" horiz-adv-x="685" 
d="M34 -207v155h617v-155h-617z" />
    <glyph glyph-name="grave" unicode="`" horiz-adv-x="500" 
d="M333 574l-219 117l77 114l196 -149z" />
    <glyph glyph-name="a" unicode="a" horiz-adv-x="671" 
d="M263 -9q-66 0 -118.5 35.5t-83 98t-30.5 142.5q0 82 30 144.5t83 97.5t122 35q51 0 88.5 -18.5t63.5 -49.5v57h183v-533h-187v56q-27 -29 -65 -47t-86 -18zM316 144q48 0 75.5 32.5t27.5 90.5t-27.5 91t-75.5 33q-47 0 -74 -33t-27 -91t27 -90.5t74 -32.5z" />
    <glyph glyph-name="b" unicode="b" horiz-adv-x="671" 
d="M409 -11q-51 0 -94 17.5t-69 46.5l-6 -52h-170v739h188v-254q26 27 64.5 42.5t81.5 15.5q68 0 121.5 -36t83.5 -98.5t30 -142.5q0 -82 -30 -144.5t-82 -98t-118 -35.5zM355 142q47 0 74.5 33t27.5 92q0 57 -27 90t-75 33t-75 -33t-27 -90q0 -59 27 -92t75 -33z" />
    <glyph glyph-name="c" unicode="c" horiz-adv-x="550" 
d="M308 -10q-80 0 -142.5 36t-98 98.5t-35.5 142.5t35.5 143t98 98.5t142.5 35.5q72 0 132.5 -23t97.5 -66l-102 -120q-18 21 -46 35.5t-65 14.5q-49 0 -79.5 -33t-30.5 -84q0 -50 29.5 -83.5t80.5 -33.5q38 0 65 13t46 35l101 -121q-36 -42 -97 -65t-132 -23z" />
    <glyph glyph-name="d" unicode="d" horiz-adv-x="663" 
d="M264 -11q-67 0 -119.5 35.5t-82.5 98t-30 143.5t30 143.5t83.5 98.5t121.5 36q44 0 82.5 -15.5t64.5 -41.5v253h188v-740h-170l-6 53q-26 -29 -69 -46.5t-93 -17.5zM317 142q48 0 75 33t27 91q0 59 -27 92t-75 33t-75 -33t-27 -92q0 -58 27 -91t75 -33z" />
    <glyph glyph-name="e" unicode="e" horiz-adv-x="586" 
d="M327 -10q-91 0 -157.5 35.5t-102 98t-35.5 142.5q0 81 34.5 144t96 98.5t139.5 36.5q77 -1 135.5 -36.5t91 -97t30.5 -141.5l-1 -42h-346q14 -36 48.5 -56.5t87.5 -20.5q31 0 54.5 8t50.5 28l86 -121q-53 -42 -105.5 -59t-106.5 -17zM306 393q-80 0 -99 -72h184
q-1 32 -24.5 52t-60.5 20z" />
    <glyph glyph-name="f" unicode="f" horiz-adv-x="393" 
d="M93 0v367h-75v149h75v29q0 55 24 100t67 72t100 27q40 0 73.5 -11t62.5 -30l-50 -134q-27 9 -43 9q-47 0 -47 -53v-9h102v-149h-102v-367h-187z" />
    <glyph glyph-name="g" unicode="g" horiz-adv-x="678" 
d="M317 -230q-69 0 -137 19.5t-111 51.5l63 126q33 -21 71.5 -33t83.5 -12q72 0 105 30.5t33 96.5v15q-27 -24 -65.5 -38.5t-81.5 -14.5q-72 0 -127.5 32.5t-87 90.5t-31.5 137q0 80 31 141.5t85.5 96.5t124.5 35q50 0 92.5 -17t68.5 -44l4 50h174v-484q0 -134 -78.5 -206.5
t-216.5 -72.5zM322 148q50 0 79 32t29 89t-29 89.5t-79 32.5t-78.5 -32.5t-28.5 -89.5t28.5 -89t78.5 -32z" />
    <glyph glyph-name="h" unicode="h" horiz-adv-x="653" 
d="M70 0v740h183v-260q27 29 67.5 46.5t85.5 17.5q90 0 138 -55.5t48 -160.5v-328h-186v313q0 79 -70 78q-35 0 -57 -21t-22 -52v-318h-187z" />
    <glyph glyph-name="i" unicode="i" horiz-adv-x="338" 
d="M169 634q-50 0 -78.5 23.5t-28.5 66.5q0 40 28.5 65.5t78.5 25.5q51 0 79 -23.5t28 -67.5q0 -40 -28.5 -65t-78.5 -25zM76 0v533h186v-533h-186z" />
    <glyph glyph-name="j" unicode="j" horiz-adv-x="338" 
d="M176 634q-51 0 -79 23.5t-28 66.5q0 40 28.5 65.5t78.5 25.5t78.5 -23.5t28.5 -67.5q0 -40 -28.5 -65t-78.5 -25zM29 -215l-71 144q49 0 75.5 10.5t36.5 39t10 80.5v474h187v-518q0 -124 -60 -177t-178 -53z" />
    <glyph glyph-name="k" unicode="k" horiz-adv-x="652" 
d="M70 0v740h187v-372l158 165h244l-246 -230l235 -303h-215l-140 191l-36 -34v-157h-187z" />
    <glyph glyph-name="l" unicode="l" horiz-adv-x="328" 
d="M71 0v740h186v-740h-186z" />
    <glyph glyph-name="m" unicode="m" horiz-adv-x="981" 
d="M70 0v533h174l4 -54q29 35 69.5 50t79.5 15q48 0 87 -18.5t65 -68.5q30 44 79.5 65.5t94.5 21.5q97 0 147 -55.5t50 -160.5v-328h-186v312q0 79 -68 79q-34 0 -56 -21t-22 -53v-317h-186v313q0 38 -18 58t-50 20q-34 0 -55.5 -21t-21.5 -52v-318h-187z" />
    <glyph glyph-name="n" unicode="n" horiz-adv-x="653" 
d="M70 0v533h174l5 -57q27 31 69 49.5t88 18.5q90 0 138 -55.5t48 -160.5v-328h-186v313q0 79 -70 78q-35 0 -57 -21t-22 -52v-318h-187z" />
    <glyph glyph-name="o" unicode="o" horiz-adv-x="653" 
d="M327 -10q-85 0 -152 36t-105 98.5t-38 142.5t38 143t105 98.5t152 35.5t151.5 -35.5t104.5 -98.5t38 -143t-38 -142.5t-104.5 -98.5t-151.5 -36zM327 147q46 0 76 34t30 86q0 53 -30 87t-76 34q-47 0 -77 -34t-30 -87q0 -52 30 -86t77 -34z" />
    <glyph glyph-name="p" unicode="p" horiz-adv-x="671" 
d="M70 -220v753h174l4 -50q27 27 69 44t92 17q66 0 118.5 -35.5t82 -97.5t29.5 -144q0 -80 -30 -142.5t-83 -98t-121 -35.5q-43 0 -81.5 15t-65.5 41v-267h-188zM355 144q48 0 75 33t27 90q0 58 -27 91t-75 33t-75 -33t-27 -91q0 -57 27 -90t75 -33z" />
    <glyph glyph-name="q" unicode="q" horiz-adv-x="671" 
d="M413 -220v267q-26 -25 -64.5 -40.5t-81.5 -15.5q-68 0 -121.5 35.5t-83.5 98t-30 142.5q0 82 30 144.5t82 97.5t119 35q49 0 91 -16.5t69 -43.5l4 50h174v-754h-188zM316 144q48 0 75 32.5t27 90.5t-27 91t-75 33t-75 -33t-27 -91t27 -90.5t75 -32.5z" />
    <glyph glyph-name="r" unicode="r" horiz-adv-x="478" 
d="M70 0v533h174l5 -75q27 39 67.5 62.5t87.5 23.5q18 0 34 -2.5t30 -6.5l-51 -206q-10 7 -30.5 12.5t-43.5 5.5q-40 0 -63 -25t-23 -67v-255h-187z" />
    <glyph glyph-name="s" unicode="s" horiz-adv-x="502" 
d="M252 -10q-83 0 -145.5 26t-98.5 67l110 94q31 -30 71.5 -43.5t71.5 -13.5q47 0 47 31q0 17 -17 25q-17 9 -84 26q-86 22 -131 63q-22 21 -34.5 48t-12.5 61q0 53 31.5 91t82.5 58.5t108 20.5q70 0 129 -21t103 -58l-95 -106q-26 22 -63.5 40t-68.5 18q-49 0 -49 -31
q0 -19 21 -30q9 -5 31 -12.5t62 -18.5q46 -13 80 -29.5t55 -39.5q31 -35 31 -82q0 -54 -30.5 -95.5t-83.5 -65t-121 -23.5z" />
    <glyph glyph-name="t" unicode="t" horiz-adv-x="405" 
d="M105 0v375h-88v158h88v135h186v-135h94v-158h-94v-375h-186z" />
    <glyph glyph-name="u" unicode="u" horiz-adv-x="658" 
d="M250 -11q-90 0 -139 56t-49 159v329h186v-310q0 -39 19.5 -60t53.5 -21q35 0 57 21t22 53v317h186v-533h-172l-6 63q-27 -34 -68.5 -54t-89.5 -20z" />
    <glyph glyph-name="v" unicode="v" horiz-adv-x="620" 
d="M230 0l-222 533h207l95 -318l96 318h206l-233 -533h-149z" />
    <glyph glyph-name="w" unicode="w" horiz-adv-x="849" 
d="M181 0l-173 533l197 1l77 -290l85 221h108l93 -221l76 289h197l-182 -533h-140l-97 253l-101 -253h-140z" />
    <glyph glyph-name="x" unicode="x" horiz-adv-x="626" 
d="M19 0l192 274l-184 259h220l75 -124l59 124h219l-181 -262l188 -271h-219l-82 138l-68 -138h-219z" />
    <glyph glyph-name="y" unicode="y" horiz-adv-x="638" 
d="M128 -230l111 262l-234 501h208l89 -212q16 -37 25 -69q4 10 8 21.5t8 24.5l81 235h209l-230 -533l-94 -230h-181z" />
    <glyph glyph-name="z" unicode="z" horiz-adv-x="580" 
d="M50 0v94l231 291h-231v148h466v-100l-218 -285h228v-148h-476z" />
    <glyph glyph-name="braceleft" unicode="{" horiz-adv-x="434" 
d="M362 -208q-106 21 -157.5 68.5t-51.5 132.5l1 95q0 46 -20 66t-59 21h-38v150h40q39 1 58 20.5t19 66.5l-1 95q0 82 51 130t158 71l43 -135q-32 -11 -50.5 -21t-25.5 -27t-7 -49l2 -78q0 -52 -31.5 -89t-100.5 -59q69 -23 100.5 -60t31.5 -88l-2 -78q0 -29 7 -44
t25 -24.5t51 -19.5z" />
    <glyph glyph-name="bar" unicode="|" horiz-adv-x="358" 
d="M90 -193v933h177v-933h-177z" />
    <glyph glyph-name="braceright" unicode="}" horiz-adv-x="434" 
d="M72 -208l-43 135q32 11 50 20.5t25.5 26.5t7.5 50l-2 78q0 52 31 89t100 59q-69 23 -100 60t-31 88l2 78q0 29 -7.5 44t-25.5 24.5t-50 19.5l43 144q105 -21 156.5 -68.5t51.5 -132.5l-1 -95q0 -46 20.5 -66.5t58.5 -20.5h39v-150h-41q-38 0 -57.5 -20t-19.5 -67l1 -95
q0 -82 -51 -130t-157 -71z" />
    <glyph glyph-name="asciitilde" unicode="~" horiz-adv-x="580" 
d="M395 192q-26 0 -54 8.5t-54 20.5q-23 10 -46.5 18.5t-38.5 8.5q-40 0 -40 -66h-134q0 108 40 166t126 58q25 0 55 -11t52 -21q18 -7 39 -16t38 -9q16 0 27.5 18.5t9.5 45.5l133 -1q0 -220 -153 -220z" />
    <glyph glyph-name="uni00A0" unicode="&#xa0;" horiz-adv-x="338" 
 />
    <glyph glyph-name="exclamdown" unicode="&#xa1;" horiz-adv-x="343" 
d="M229 268q14 -90 26.5 -186.5t12.5 -185.5v-83h-196v83q0 89 12.5 186.5t26.5 185.5h118zM170 541q45 0 69.5 -25t24.5 -71q0 -42 -26 -69t-68 -27q-45 0 -69.5 25t-24.5 71q0 42 26 69t68 27z" />
    <glyph glyph-name="cent" unicode="&#xa2;" horiz-adv-x="575" 
d="M277 0v83q-68 12 -119.5 49.5t-80.5 95t-29 127.5q0 71 29 128t80.5 95t119.5 49v81h130v-82q48 -9 88.5 -30t67.5 -53l-102 -120q-14 17 -35 29.5t-48 17.5v-229q27 4 47.5 16t35.5 30l101 -121q-27 -30 -67 -51t-88 -30v-85h-130zM231 356q0 -40 21.5 -70.5t58.5 -41.5
v223q-37 -10 -58.5 -40t-21.5 -71z" />
    <glyph glyph-name="sterling" unicode="&#xa3;" horiz-adv-x="651" 
d="M44 295v97h78q-10 35 -13 55.5t-3 39.5q0 70 32 122t90 80.5t137 28.5q73 0 126.5 -24.5t79.5 -68.5l-142 -112q-13 20 -31 28.5t-41 8.5q-37 0 -61 -22.5t-24 -58.5q0 -20 3.5 -39t9.5 -38h192v-97h-164q5 -19 7.5 -35.5t2.5 -28.5q0 -34 -15 -63q16 -5 38 -12
q21 -8 46.5 -15t56.5 -7q20 0 47 8.5t57 26.5l82 -124q-37 -33 -87 -49.5t-89 -16.5q-40 0 -76.5 9t-57.5 16q-20 6 -47.5 14t-58.5 8q-33 0 -67 -11t-70 -29l-65 133q36 22 75.5 37t81.5 21q1 9 1 17q0 18 -6.5 45.5t-15.5 55.5h-109z" />
    <glyph glyph-name="currency" unicode="&#xa4;" horiz-adv-x="565" 
d="M132 50l-112 113l59 60q-18 39 -18 84q0 46 18 85l-61 61l112 111l69 -67q39 13 84 13q46 0 86 -14l69 70l112 -112l-64 -64q18 -39 18 -83t-17 -82l63 -61l-112 -112l-68 66q-40 -14 -87 -14q-45 0 -85 14zM283 235q30 0 48.5 20t18.5 52t-18.5 52.5t-48.5 20.5
q-29 0 -48.5 -20.5t-19.5 -52.5t19.5 -52t48.5 -20z" />
    <glyph glyph-name="yen" unicode="&#xa5;" horiz-adv-x="702" 
d="M140 138v65h121v50h-121v65h116l-271 382h222l154 -221l140 221h216l-253 -383h122v-64h-125v-51h125v-64h-125v-138h-200v138h-121z" />
    <glyph glyph-name="brokenbar" unicode="&#xa6;" horiz-adv-x="362" 
d="M91 349v391h180v-391h-180zM91 -202v392h180v-392h-180z" />
    <glyph glyph-name="section" unicode="&#xa7;" horiz-adv-x="587" 
d="M269 -146q-80 0 -143.5 26.5t-99.5 66.5l93 103q46 -38 84 -51.5t65 -13.5q64 0 64 42q0 21 -28.5 35.5t-63.5 29.5l-72 28q-69 29 -104 69.5t-35 95.5q0 45 27.5 80.5t79.5 55.5q-30 25 -46 56.5t-16 74.5q0 44 24.5 82t77.5 61.5t138 23.5q80 0 140.5 -26t96.5 -66
l-94 -101q-45 37 -80.5 49t-62.5 12q-31 0 -46.5 -11t-15.5 -28q0 -23 23.5 -36.5t55.5 -26.5l81 -33q71 -30 106 -70.5t35 -95.5q-1 -45 -27.5 -79.5t-76.5 -53.5q29 -23 45 -52.5t16 -70.5q0 -48 -24.5 -88t-77.5 -64t-139 -24zM262 245l54 -21q32 4 47 17.5t15 32.5
q0 17 -13 27.5t-41 22.5l-59 23q-59 -8 -59 -50q0 -17 13.5 -28.5t42.5 -23.5z" />
    <glyph glyph-name="dieresis" unicode="&#xa8;" horiz-adv-x="500" 
d="M380 619q-46 0 -70.5 24.5t-24.5 69.5q0 42 26 68t69 26q46 0 70.5 -24t24.5 -70q0 -42 -26 -68t-69 -26zM121 619q-46 0 -70.5 24.5t-24.5 69.5q0 42 25.5 68t69.5 26q45 0 70 -24t25 -70q0 -42 -26 -68t-69 -26z" />
    <glyph glyph-name="copyright" unicode="&#xa9;" horiz-adv-x="793" 
d="M396 -24q-79 0 -146.5 29t-119 80t-80 119t-28.5 146t28.5 146t80 119t119 80t146.5 29q77 0 145 -29t119 -80t80 -119t29 -146t-29 -146t-80 -119t-119 -80t-145 -29zM396 50q62 0 116.5 23.5t95.5 64.5t64 95.5t23 116.5q0 63 -23 117.5t-64 95.5t-95.5 64t-116.5 23
q-63 0 -117.5 -23t-95.5 -64t-64 -95.5t-23 -117.5q0 -62 23 -116.5t64 -95.5t95.5 -64.5t117.5 -23.5zM410 144q-59 0 -107 26.5t-76 73t-28 105.5q0 58 28 105t76 75t107 28q37 0 71 -13t67 -37l-54 -118q-19 13 -35.5 19t-30.5 6q-30 0 -49.5 -19t-19.5 -46
q0 -28 19.5 -46.5t49.5 -18.5q14 0 32 5.5t36 19.5l56 -121q-32 -22 -68 -33t-74 -11z" />
    <glyph glyph-name="ordfeminine" unicode="&#xaa;" horiz-adv-x="403" 
d="M138 390q-55 0 -87 47.5t-32 124.5q0 69 36.5 114.5t94.5 45.5q60 0 88 -35v28h126v-314h-126v33q-15 -19 -40 -31.5t-60 -12.5zM192 491q22 0 36 18.5t14 48.5q0 29 -13.5 46t-37.5 17q-20 0 -33.5 -18t-13.5 -43q0 -32 12.5 -50.5t35.5 -18.5z" />
    <glyph glyph-name="guillemotleft" unicode="&#xab;" horiz-adv-x="597" 
d="M456 16l-183 234v17l183 235l105 -72l-110 -171l110 -171zM193 16l-183 234v17l183 235l105 -72l-110 -171l110 -171z" />
    <glyph glyph-name="logicalnot" unicode="&#xac;" horiz-adv-x="670" 
d="M461 100v163h-423v158h595v-321h-172z" />
    <glyph glyph-name="uni00AD" unicode="&#xad;" horiz-adv-x="481" 
d="M59 204v167h371v-167h-371z" />
    <glyph glyph-name="registered" unicode="&#xae;" horiz-adv-x="507" 
d="M260 226q-74 0 -133.5 34.5t-94.5 93t-35 130.5t35.5 130.5t95 93t132.5 34.5q69 0 127 -34.5t92.5 -93.5t34.5 -130q0 -72 -34.5 -130.5t-92 -93t-127.5 -34.5zM260 290q52 0 95 26t69 70t26 98t-26 98.5t-69 70.5t-95 26q-55 0 -100.5 -26t-72.5 -70.5t-27 -98.5
q0 -55 27 -99t72.5 -69.5t100.5 -25.5zM153 367v239h127q40 0 65 -21.5t25 -56.5q0 -21 -9.5 -37.5t-26.5 -26.5l57 -97h-97l-37 82h-14v-82h-90zM262 539h-19v-37h17q9 0 15.5 5t6.5 14q0 18 -20 18z" />
    <glyph glyph-name="macron" unicode="&#xaf;" horiz-adv-x="424" 
d="M71 630v113h359v-113h-359z" />
    <glyph glyph-name="degree" unicode="&#xb0;" horiz-adv-x="532" 
d="M266 391q-48 0 -87.5 21.5t-62.5 58.5t-23 82q0 46 22.5 83.5t61.5 59t89 21.5t89 -21.5t61.5 -58.5t22.5 -83t-23 -83t-62.5 -58.5t-87.5 -21.5zM266 499q21 0 36 16t15 39t-15 38.5t-36 15.5q-23 0 -37 -16t-14 -39t15 -38.5t36 -15.5z" />
    <glyph glyph-name="plusminus" unicode="&#xb1;" horiz-adv-x="667" 
d="M247 202v123h-172v148h172v122h171v-122h172v-148h-172v-123h-171zM78 -8v148h514v-148h-514z" />
    <glyph glyph-name="uni00B2" unicode="&#xb2;" horiz-adv-x="373" 
d="M58 418l-15 89l104 76q27 19 47.5 41t20.5 42q0 27 -24 27q-21 0 -38 -16.5t-28 -35.5l-89 63q36 49 74.5 73.5t90.5 24.5q62 0 98.5 -33.5t36.5 -79.5q0 -44 -20 -75.5t-50.5 -54.5t-63.5 -41h146v-100h-290z" />
    <glyph glyph-name="uni00B3" unicode="&#xb3;" horiz-adv-x="362" 
d="M183 412q-48 0 -82 8t-75 26l51 88q16 -8 34.5 -13t38.5 -5t33 9t13 23q0 12 -11.5 20t-33.5 8q-14 0 -28 -2.5t-28 -5.5l-24 62l101 66h-115v100h232l11 -92l-100 -69q11 3 19 3q41 0 71.5 -28.5t30.5 -74.5q0 -37 -19.5 -64.5t-51 -43t-67.5 -15.5z" />
    <glyph glyph-name="acute" unicode="&#xb4;" horiz-adv-x="500" 
d="M168 573l-54 82l195 150l78 -115z" />
    <glyph glyph-name="uni00B5" unicode="&#xb5;" horiz-adv-x="664" 
d="M72 -164v697h185v-311q0 -80 70 -80q35 0 57.5 21.5t22.5 54.5v315h185v-533h-171l-7 63q-30 -39 -64.5 -54.5t-87.5 -20.5q-6 0 -10 1l5 -153h-185z" />
    <glyph glyph-name="paragraph" unicode="&#xb6;" horiz-adv-x="786" 
d="M248 0v271h-19q-54 0 -96.5 27t-67 75t-24.5 109q0 66 28 115t78.5 76t118.5 27h437v-700h-191v596h-73v-596h-191z" />
    <glyph glyph-name="periodcentered" unicode="&#xb7;" horiz-adv-x="270" 
d="M135 253q-45 0 -69.5 25t-24.5 71q0 42 26 69t68 27q45 0 69.5 -25t24.5 -71q0 -42 -26 -69t-68 -27z" />
    <glyph glyph-name="cedilla" unicode="&#xb8;" horiz-adv-x="500" 
d="M148 -246l-10 84q19 0 40 4t35.5 11.5t14.5 19.5q0 16 -19 23t-43 7l-20 15l68 106h92l-47 -65q53 -5 78.5 -32.5t25.5 -65.5q0 -33 -20 -54t-52.5 -33t-70 -16.5t-72.5 -3.5z" />
    <glyph glyph-name="uni00B9" unicode="&#xb9;" horiz-adv-x="295" 
d="M111 431v234l-44 -26l-51 91l127 75h100v-374h-132z" />
    <glyph glyph-name="ordmasculine" unicode="&#xba;" horiz-adv-x="421" 
d="M209 393q-49 0 -88 21t-61.5 57.5t-22.5 83.5q0 46 22.5 83.5t61.5 59t88 21.5t89 -22t63 -59t23 -83t-22.5 -83t-62 -58t-90.5 -21zM209 484q22 0 35.5 20.5t13.5 52.5q0 33 -13 51.5t-36 18.5q-21 0 -35 -20.5t-14 -49.5q0 -34 13 -53.5t36 -19.5z" />
    <glyph glyph-name="guillemotright" unicode="&#xbb;" horiz-adv-x="599" 
d="M405 19l-105 72l110 171l-110 172l105 71l183 -233v-18zM141 19l-105 72l110 171l-110 172l105 71l183 -233v-18z" />
    <glyph glyph-name="onequarter" unicode="&#xbc;" horiz-adv-x="833" 
d="M121 361v234l-44 -26l-51 91l127 75h100v-374h-132zM79 0l467 700h165l-468 -700h-164zM745 0h-142v64h-148l-21 85l186 226h125v-211h56v-100h-56v-64zM565 164h63v73z" />
    <glyph glyph-name="onehalf" unicode="&#xbd;" horiz-adv-x="846" 
d="M121 361v234l-44 -26l-51 91l127 75h100v-374h-132zM79 0l467 700h165l-468 -700h-164zM518 0l-15 89l104 76q27 19 47.5 41t20.5 42q0 27 -24 27q-21 0 -38 -16.5t-28 -35.5l-89 63q36 49 74.5 73.5t90.5 24.5q62 0 98.5 -33.5t36.5 -79.5q0 -44 -20 -75.5t-50.5 -54.5
t-63.5 -41h146v-100h-290z" />
    <glyph glyph-name="threequarters" unicode="&#xbe;" horiz-adv-x="876" 
d="M181 342q-48 0 -82 8t-75 26l51 88q16 -8 34.5 -13t38.5 -5t33 9t13 23q0 12 -11.5 20t-33.5 8q-14 0 -28 -2.5t-28 -5.5l-24 62l101 66h-115v100h232l11 -92l-100 -69q11 3 19 3q41 0 71.5 -28.5t30.5 -74.5q0 -37 -19.5 -64.5t-51 -43t-67.5 -15.5zM124 0l467 700h165
l-468 -700h-164zM788 0h-142v64h-148l-21 85l186 226h125v-211h56v-100h-56v-64zM608 164h63v73z" />
    <glyph glyph-name="questiondown" unicode="&#xbf;" horiz-adv-x="547" 
d="M335 281l35 -126q-41 -10 -79 -25.5t-62.5 -38.5t-24.5 -56q0 -23 16 -36t42 -13q30 0 60.5 21.5t59.5 75.5l125 -119q-47 -71 -110.5 -109.5t-133.5 -38.5q-67 0 -121 27t-85.5 74t-31.5 106q0 52 27.5 101.5t76 87t109.5 54.5l7 15h90zM372 449q0 -42 -26 -69t-68 -27
q-45 0 -69.5 25t-24.5 71q0 42 26 69t68 27q44 0 69 -25t25 -71z" />
    <glyph glyph-name="Agrave" unicode="&#xc0;" horiz-adv-x="692" 
d="M-12 0l279 700h160l277 -700h-197l-43 116h-240l-43 -116h-193zM301 325l-26 -69h137l-25 69q-14 37 -24 66t-18 60q-9 -31 -19.5 -59.5zM454 744l-238 80l58 129l220 -115z" />
    <glyph glyph-name="Aacute" unicode="&#xc1;" horiz-adv-x="692" 
d="M-12 0l279 700h160l277 -700h-197l-43 116h-240l-43 -116h-193zM301 325l-26 -69h137l-25 69q-14 37 -24 66t-18 60q-9 -31 -19.5 -59.5zM248 744l-40 94l220 115l58 -129z" />
    <glyph glyph-name="Acircumflex" unicode="&#xc2;" horiz-adv-x="692" 
d="M-12 0l279 700h160l277 -700h-197l-43 116h-240l-43 -116h-193zM301 325l-26 -69h137l-25 69q-14 37 -24 66t-18 60q-9 -31 -19.5 -59.5zM211 753l-55 67l142 109h97l141 -109l-54 -67l-136 67z" />
    <glyph glyph-name="Atilde" unicode="&#xc3;" horiz-adv-x="692" 
d="M-12 0l279 700h160l277 -700h-197l-43 116h-240l-43 -116h-193zM301 325l-26 -69h137l-25 69q-14 37 -24 66t-18 60q-9 -31 -19.5 -59.5zM424 768q-18 0 -36.5 5.5t-44.5 16.5q-19 9 -31.5 13.5t-21.5 4.5q-31 0 -31 -39h-110q0 71 36 113t98 42q16 0 32.5 -4.5
t46.5 -18.5q17 -9 27 -13t19 -4q12 0 19 11t6 29h110q0 -44 -15 -79.5t-42 -56t-62 -20.5z" />
    <glyph glyph-name="Adieresis" unicode="&#xc4;" horiz-adv-x="692" 
d="M-12 0l279 700h160l277 -700h-197l-43 116h-240l-43 -116h-193zM301 325l-26 -69h137l-25 69q-14 37 -24 66t-18 60q-9 -31 -19.5 -59.5zM476 752q-46 0 -70.5 24.5t-24.5 69.5q0 41 25 67.5t70 26.5t69.5 -24.5t24.5 -69.5q0 -41 -25 -67.5t-69 -26.5zM215 752
q-46 0 -70 24.5t-24 69.5q0 41 25 67.5t69 26.5q46 0 70.5 -24.5t24.5 -69.5q0 -41 -25.5 -67.5t-69.5 -26.5z" />
    <glyph glyph-name="Aring" unicode="&#xc5;" horiz-adv-x="692" 
d="M-12 0l279 700h160l277 -700h-197l-43 116h-240l-43 -116h-193zM301 325l-26 -69h137l-25 69q-14 37 -24 66t-18 60q-9 -31 -19.5 -59.5zM346 671q-38 0 -70.5 18t-52.5 47.5t-20 64.5q0 38 19.5 69.5t52 50.5t71.5 19q38 0 70.5 -19t52 -50.5t19.5 -69.5
q0 -35 -19.5 -64.5t-52 -47.5t-70.5 -18zM346 763q15 0 26 11t11 27q0 17 -11.5 27.5t-25.5 10.5q-15 0 -26 -11t-11 -27t11 -27t26 -11z" />
    <glyph glyph-name="AE" unicode="&#xc6;" horiz-adv-x="1123" 
d="M-16 0l488 700h600v-161h-328v-109h283v-152h-283v-117h328v-161h-518v138h-256l-95 -138h-219zM554 290v223l-153 -223h153z" />
    <glyph glyph-name="Ccedilla" unicode="&#xc7;" horiz-adv-x="701" 
d="M417 -10q-110 0 -195 46.5t-133 129t-48 188.5q0 79 28.5 145.5t79.5 115.5t121 76t154 27q73 0 142.5 -27.5t119.5 -81.5l-120 -138q-25 29 -60.5 47.5t-83.5 18.5q-49 0 -89.5 -22t-64 -63.5t-23.5 -99.5q0 -83 52.5 -132.5t140.5 -49.5q46 0 85 19t65 48l95 -150
q-26 -28 -68.5 -50t-94 -34.5t-103.5 -12.5zM304 -246l-10 84q19 0 40 4t35.5 11.5t14.5 19.5q0 16 -19 23t-43 7l-20 15l68 106h92l-47 -65q53 -5 78.5 -32.5t25.5 -65.5q0 -33 -20 -54t-52.5 -33t-70 -16.5t-72.5 -3.5z" />
    <glyph glyph-name="Egrave" unicode="&#xc8;" horiz-adv-x="659" 
d="M83 0v700h509v-163h-318v-105h278v-154h-278v-115h333v-163h-524zM458 744l-238 80l58 129l220 -115z" />
    <glyph glyph-name="Eacute" unicode="&#xc9;" horiz-adv-x="659" 
d="M83 0v700h509v-163h-318v-105h278v-154h-278v-115h333v-163h-524zM251 744l-40 94l220 115l58 -129z" />
    <glyph glyph-name="Ecircumflex" unicode="&#xca;" horiz-adv-x="659" 
d="M83 0v700h509v-163h-318v-105h278v-154h-278v-115h333v-163h-524zM214 753l-55 67l142 109h97l141 -109l-54 -67l-136 67z" />
    <glyph glyph-name="Edieresis" unicode="&#xcb;" horiz-adv-x="659" 
d="M83 0v700h509v-163h-318v-105h278v-154h-278v-115h333v-163h-524zM480 752q-46 0 -70.5 24.5t-24.5 69.5q0 41 25 67.5t70 26.5t69.5 -24.5t24.5 -69.5q0 -41 -25 -67.5t-69 -26.5zM219 752q-46 0 -70 24.5t-24 69.5q0 41 25 67.5t69 26.5q46 0 70.5 -24.5t24.5 -69.5
q0 -41 -25.5 -67.5t-69.5 -26.5z" />
    <glyph glyph-name="Igrave" unicode="&#xcc;" horiz-adv-x="590" 
d="M75 0v163h121v375h-121v162h440v-162h-121v-375h121v-163h-440zM403 744l-238 80l58 129l220 -115z" />
    <glyph glyph-name="Iacute" unicode="&#xcd;" horiz-adv-x="590" 
d="M75 0v163h121v375h-121v162h440v-162h-121v-375h121v-163h-440zM197 744l-40 94l220 115l58 -129z" />
    <glyph glyph-name="Icircumflex" unicode="&#xce;" horiz-adv-x="590" 
d="M75 0v163h121v375h-121v162h440v-162h-121v-375h121v-163h-440zM160 753l-55 67l142 109h97l141 -109l-54 -67l-136 67z" />
    <glyph glyph-name="Idieresis" unicode="&#xcf;" horiz-adv-x="590" 
d="M75 0v163h121v375h-121v162h440v-162h-121v-375h121v-163h-440zM425 752q-46 0 -70.5 24.5t-24.5 69.5q0 41 25 67.5t70 26.5t69.5 -24.5t24.5 -69.5q0 -41 -25 -67.5t-69 -26.5zM164 752q-46 0 -70 24.5t-24 69.5q0 41 25 67.5t69 26.5q46 0 70.5 -24.5t24.5 -69.5
q0 -41 -25.5 -67.5t-69.5 -26.5z" />
    <glyph glyph-name="Eth" unicode="&#xd0;" horiz-adv-x="783" 
d="M83 0v284h-54v132h54v284h302q105 0 185.5 -45t126 -124t45.5 -181t-45.5 -181t-126 -124t-185.5 -45h-302zM380 284h-99v-113h99q48 0 84.5 22.5t57 63t20.5 93.5t-20.5 93.5t-57 63t-84.5 22.5h-99v-113h99v-132z" />
    <glyph glyph-name="Ntilde" unicode="&#xd1;" horiz-adv-x="813" 
d="M83 0v700h177l292 -401q-5 44 -8 80t-4.5 77t-0.5 97v147h191v-700h-179l-286 391q4 -34 6 -60.5t2.5 -55t0.5 -67.5v-208h-191zM485 768q-18 0 -36.5 5.5t-44.5 16.5q-19 9 -31.5 13.5t-21.5 4.5q-31 0 -31 -39h-110q0 71 36 113t98 42q16 0 32.5 -4.5t46.5 -18.5
q17 -9 27 -13t19 -4q12 0 19 11t6 29h110q0 -44 -15 -79.5t-42 -56t-62 -20.5z" />
    <glyph glyph-name="Ograve" unicode="&#xd2;" horiz-adv-x="825" 
d="M413 -10q-81 0 -149 27t-118 76t-77.5 115.5t-27.5 145.5t27.5 145.5t77.5 115.5t118 76t149 27t149 -27t117.5 -76t77 -115.5t27.5 -145.5t-27.5 -145.5t-77 -115.5t-117.5 -76t-149 -27zM413 174q49 0 87 23.5t60 64t22 92.5t-22 93t-60 64t-87 23t-87.5 -23
t-60.5 -63.5t-22 -93.5q0 -52 22 -92.5t60.5 -64t87.5 -23.5zM521 744l-238 80l58 129l220 -115z" />
    <glyph glyph-name="Oacute" unicode="&#xd3;" horiz-adv-x="825" 
d="M413 -10q-81 0 -149 27t-118 76t-77.5 115.5t-27.5 145.5t27.5 145.5t77.5 115.5t118 76t149 27t149 -27t117.5 -76t77 -115.5t27.5 -145.5t-27.5 -145.5t-77 -115.5t-117.5 -76t-149 -27zM413 174q49 0 87 23.5t60 64t22 92.5t-22 93t-60 64t-87 23t-87.5 -23
t-60.5 -63.5t-22 -93.5q0 -52 22 -92.5t60.5 -64t87.5 -23.5zM314 744l-40 94l220 115l58 -129z" />
    <glyph glyph-name="Ocircumflex" unicode="&#xd4;" horiz-adv-x="825" 
d="M413 -10q-81 0 -149 27t-118 76t-77.5 115.5t-27.5 145.5t27.5 145.5t77.5 115.5t118 76t149 27t149 -27t117.5 -76t77 -115.5t27.5 -145.5t-27.5 -145.5t-77 -115.5t-117.5 -76t-149 -27zM413 174q49 0 87 23.5t60 64t22 92.5t-22 93t-60 64t-87 23t-87.5 -23
t-60.5 -63.5t-22 -93.5q0 -52 22 -92.5t60.5 -64t87.5 -23.5zM278 753l-55 67l142 109h97l141 -109l-54 -67l-136 67z" />
    <glyph glyph-name="Otilde" unicode="&#xd5;" horiz-adv-x="825" 
d="M413 -10q-81 0 -149 27t-118 76t-77.5 115.5t-27.5 145.5t27.5 145.5t77.5 115.5t118 76t149 27t149 -27t117.5 -76t77 -115.5t27.5 -145.5t-27.5 -145.5t-77 -115.5t-117.5 -76t-149 -27zM413 174q49 0 87 23.5t60 64t22 92.5t-22 93t-60 64t-87 23t-87.5 -23
t-60.5 -63.5t-22 -93.5q0 -52 22 -92.5t60.5 -64t87.5 -23.5zM491 768q-18 0 -36.5 5.5t-44.5 16.5q-19 9 -31.5 13.5t-21.5 4.5q-31 0 -31 -39h-110q0 71 36 113t98 42q16 0 32.5 -4.5t46.5 -18.5q17 -9 27 -13t19 -4q12 0 19 11t6 29h110q0 -44 -15 -79.5t-42 -56
t-62 -20.5z" />
    <glyph glyph-name="Odieresis" unicode="&#xd6;" horiz-adv-x="825" 
d="M413 -10q-81 0 -149 27t-118 76t-77.5 115.5t-27.5 145.5t27.5 145.5t77.5 115.5t118 76t149 27t149 -27t117.5 -76t77 -115.5t27.5 -145.5t-27.5 -145.5t-77 -115.5t-117.5 -76t-149 -27zM413 174q49 0 87 23.5t60 64t22 92.5t-22 93t-60 64t-87 23t-87.5 -23
t-60.5 -63.5t-22 -93.5q0 -52 22 -92.5t60.5 -64t87.5 -23.5zM543 752q-46 0 -70.5 24.5t-24.5 69.5q0 41 25 67.5t70 26.5t69.5 -24.5t24.5 -69.5q0 -41 -25 -67.5t-69 -26.5zM282 752q-46 0 -70 24.5t-24 69.5q0 41 25 67.5t69 26.5q46 0 70.5 -24.5t24.5 -69.5
q0 -41 -25.5 -67.5t-69.5 -26.5z" />
    <glyph glyph-name="multiply" unicode="&#xd7;" horiz-adv-x="554" 
d="M150 40l-110 112l127 127l-128 128l111 110l127 -128l128 128l110 -111l-127 -127l127 -127l-111 -111l-127 127z" />
    <glyph glyph-name="Oslash" unicode="&#xd8;" horiz-adv-x="823" 
d="M146 -33l-63 53l61 74q-48 49 -75.5 115.5t-27.5 144.5q0 79 27.5 145.5t77.5 115.5t117.5 76t149.5 27q56 0 106 -13t93 -38l60 74l68 -47l-63 -77q51 -49 79 -116t28 -147q0 -79 -27.5 -145.5t-77.5 -115.5t-117.5 -76t-149.5 -27q-57 0 -108.5 14t-94.5 40zM243 354
q0 -59 28 -104l218 267q-35 17 -76 17q-50 0 -88 -23t-60 -63.5t-22 -93.5zM413 174q49 0 87 23.5t60 64t22 92.5q0 62 -31 108l-219 -268q36 -20 81 -20z" />
    <glyph glyph-name="Ugrave" unicode="&#xd9;" horiz-adv-x="777" 
d="M388 -6q-89 0 -158 35.5t-109 97.5t-40 142v431h200v-422q0 -49 30.5 -81t76.5 -32q49 0 81 32t32 81v422h194v-431q0 -80 -39.5 -142t-109 -97.5t-158.5 -35.5zM497 744l-238 80l58 129l220 -115z" />
    <glyph glyph-name="Uacute" unicode="&#xda;" horiz-adv-x="777" 
d="M388 -6q-89 0 -158 35.5t-109 97.5t-40 142v431h200v-422q0 -49 30.5 -81t76.5 -32q49 0 81 32t32 81v422h194v-431q0 -80 -39.5 -142t-109 -97.5t-158.5 -35.5zM290 744l-40 94l220 115l58 -129z" />
    <glyph glyph-name="Ucircumflex" unicode="&#xdb;" horiz-adv-x="777" 
d="M388 -6q-89 0 -158 35.5t-109 97.5t-40 142v431h200v-422q0 -49 30.5 -81t76.5 -32q49 0 81 32t32 81v422h194v-431q0 -80 -39.5 -142t-109 -97.5t-158.5 -35.5zM253 753l-55 67l142 109h97l141 -109l-54 -67l-136 67z" />
    <glyph glyph-name="Udieresis" unicode="&#xdc;" horiz-adv-x="777" 
d="M388 -6q-89 0 -158 35.5t-109 97.5t-40 142v431h200v-422q0 -49 30.5 -81t76.5 -32q49 0 81 32t32 81v422h194v-431q0 -80 -39.5 -142t-109 -97.5t-158.5 -35.5zM519 752q-46 0 -70.5 24.5t-24.5 69.5q0 41 25 67.5t70 26.5t69.5 -24.5t24.5 -69.5q0 -41 -25 -67.5
t-69 -26.5zM258 752q-46 0 -70 24.5t-24 69.5q0 41 25 67.5t69 26.5q46 0 70.5 -24.5t24.5 -69.5q0 -41 -25.5 -67.5t-69.5 -26.5z" />
    <glyph glyph-name="Yacute" unicode="&#xdd;" horiz-adv-x="702" 
d="M261 0v310l-276 390h222l154 -221l140 221h216l-256 -388v-312h-200zM253 744l-40 94l220 115l58 -129z" />
    <glyph glyph-name="Thorn" unicode="&#xde;" horiz-adv-x="675" 
d="M83 0v700h198v-104h112q69 0 123.5 -30.5t86 -84t31.5 -121.5q0 -71 -31.5 -127t-86 -87.5t-123.5 -31.5h-112v-114h-198zM281 284h78q31 0 51.5 19.5t20.5 52.5q0 34 -20.5 51.5t-51.5 17.5h-78v-141z" />
    <glyph glyph-name="germandbls" unicode="&#xdf;" horiz-adv-x="669" 
d="M18 347v157h75q2 103 68 166.5t186 63.5q65 0 117.5 -20t84 -58.5t31.5 -93.5q0 -40 -18 -79.5t-50 -68.5q64 -30 103 -83t39 -128q0 -61 -29 -109t-80 -76t-116 -28q-77 0 -125 44l68 135q14 -11 25 -14.5t24 -3.5q24 0 38 14t14 42q0 32 -20 55t-50 40t-61 31v94
q36 16 49.5 34t13.5 46t-17.5 43t-47.5 15q-32 0 -46.5 -18.5t-14.5 -50.5v-496h-186v347h-75z" />
    <glyph glyph-name="agrave" unicode="&#xe0;" horiz-adv-x="671" 
d="M263 -9q-66 0 -118.5 35.5t-83 98t-30.5 142.5q0 82 30 144.5t83 97.5t122 35q51 0 88.5 -18.5t63.5 -49.5v57h183v-533h-187v56q-27 -29 -65 -47t-86 -18zM316 144q48 0 75.5 32.5t27.5 90.5t-27.5 91t-75.5 33q-47 0 -74 -33t-27 -91t27 -90.5t74 -32.5zM399 582
l-219 117l77 114l196 -149z" />
    <glyph glyph-name="aacute" unicode="&#xe1;" horiz-adv-x="671" 
d="M263 -9q-66 0 -118.5 35.5t-83 98t-30.5 142.5q0 82 30 144.5t83 97.5t122 35q51 0 88.5 -18.5t63.5 -49.5v57h183v-533h-187v56q-27 -29 -65 -47t-86 -18zM316 144q48 0 75.5 32.5t27.5 90.5t-27.5 91t-75.5 33q-47 0 -74 -33t-27 -91t27 -90.5t74 -32.5zM254 581
l-54 82l195 150l78 -115z" />
    <glyph glyph-name="acircumflex" unicode="&#xe2;" horiz-adv-x="671" 
d="M263 -9q-66 0 -118.5 35.5t-83 98t-30.5 142.5q0 82 30 144.5t83 97.5t122 35q51 0 88.5 -18.5t63.5 -49.5v57h183v-533h-187v56q-27 -29 -65 -47t-86 -18zM316 144q48 0 75.5 32.5t27.5 90.5t-27.5 91t-75.5 33q-47 0 -74 -33t-27 -91t27 -90.5t74 -32.5zM195 598
l-66 57l157 137h100l157 -137l-66 -57l-141 83z" />
    <glyph glyph-name="atilde" unicode="&#xe3;" horiz-adv-x="671" 
d="M263 -9q-66 0 -118.5 35.5t-83 98t-30.5 142.5q0 82 30 144.5t83 97.5t122 35q51 0 88.5 -18.5t63.5 -49.5v57h183v-533h-187v56q-27 -29 -65 -47t-86 -18zM316 144q48 0 75.5 32.5t27.5 90.5t-27.5 91t-75.5 33q-47 0 -74 -33t-27 -91t27 -90.5t74 -32.5zM412 613
q-16 0 -35.5 5t-45.5 23q-18 13 -29 18t-18 5q-15 0 -26 -10.5t-13 -32.5l-99 13q0 60 31.5 101.5t85.5 41.5q16 0 34.5 -5t44.5 -22q11 -8 24 -15.5t25 -7.5q13 0 24 10.5t13 32.5l98 -14q0 -38 -14.5 -70.5t-40 -52.5t-59.5 -20z" />
    <glyph glyph-name="adieresis" unicode="&#xe4;" horiz-adv-x="671" 
d="M263 -9q-66 0 -118.5 35.5t-83 98t-30.5 142.5q0 82 30 144.5t83 97.5t122 35q51 0 88.5 -18.5t63.5 -49.5v57h183v-533h-187v56q-27 -29 -65 -47t-86 -18zM316 144q48 0 75.5 32.5t27.5 90.5t-27.5 91t-75.5 33q-47 0 -74 -33t-27 -91t27 -90.5t74 -32.5zM465 627
q-46 0 -70.5 24.5t-24.5 69.5q0 42 26 68t69 26q46 0 70.5 -24t24.5 -70q0 -42 -26 -68t-69 -26zM206 627q-46 0 -70.5 24.5t-24.5 69.5q0 42 25.5 68t69.5 26q45 0 70 -24t25 -70q0 -42 -26 -68t-69 -26z" />
    <glyph glyph-name="aring" unicode="&#xe5;" horiz-adv-x="671" 
d="M263 -9q-66 0 -118.5 35.5t-83 98t-30.5 142.5q0 82 30 144.5t83 97.5t122 35q51 0 88.5 -18.5t63.5 -49.5v57h183v-533h-187v56q-27 -29 -65 -47t-86 -18zM316 144q48 0 75.5 32.5t27.5 90.5t-27.5 91t-75.5 33q-47 0 -74 -33t-27 -91t27 -90.5t74 -32.5zM336 604
q-33 0 -62 16.5t-46.5 44t-17.5 60.5t17 61t46 44.5t63 16.5q35 0 63.5 -16.5t45.5 -44.5t17 -61t-17.5 -60.5t-46 -44t-62.5 -16.5zM336 694q14 0 23 8.5t9 22.5t-9 23t-23 9q-13 0 -22 -9t-9 -23q0 -13 9 -22t22 -9z" />
    <glyph glyph-name="ae" unicode="&#xe6;" horiz-adv-x="901" 
d="M214 -10q-52 0 -93.5 20t-65.5 55.5t-24 83.5q0 80 61 121t180 41h78v11q0 39 -20.5 54.5t-61.5 15.5q-38 0 -62.5 -13t-45.5 -45l-107 105q35 46 100 75.5t147 29.5q51 0 92 -12t69 -38q33 24 73.5 37t86.5 13q76 0 133.5 -35.5t89 -97.5t30.5 -141l-1 -50h-344
q16 -32 51.5 -50.5t88.5 -18.5q34 0 59.5 8t53.5 28l78 -121q-53 -42 -105.5 -59t-106.5 -17q-74 0 -132 24t-96 67q-32 -44 -89 -67.5t-117 -23.5zM624 393q-45 0 -72 -21.5t-34 -60.5h188v9q-1 33 -23.5 53t-58.5 20zM268 120q31 0 57.5 14t41.5 40q-7 22 -10 46h-73
q-33 0 -50.5 -14.5t-17.5 -39.5q0 -20 14.5 -33t37.5 -13z" />
    <glyph glyph-name="ccedilla" unicode="&#xe7;" horiz-adv-x="550" 
d="M308 -10q-80 0 -142.5 36t-98 98.5t-35.5 142.5t35.5 143t98 98.5t142.5 35.5q72 0 132.5 -23t97.5 -66l-102 -120q-18 21 -46 35.5t-65 14.5q-49 0 -79.5 -33t-30.5 -84q0 -50 29.5 -83.5t80.5 -33.5q38 0 65 13t46 35l101 -121q-36 -42 -97 -65t-132 -23zM206 -246
l-10 84q19 0 40 4t35.5 11.5t14.5 19.5q0 16 -19 23t-43 7l-20 15l68 106h92l-47 -65q53 -5 78.5 -32.5t25.5 -65.5q0 -33 -20 -54t-52.5 -33t-70 -16.5t-72.5 -3.5z" />
    <glyph glyph-name="egrave" unicode="&#xe8;" horiz-adv-x="586" 
d="M327 -10q-91 0 -157.5 35.5t-102 98t-35.5 142.5q0 81 34.5 144t96 98.5t139.5 36.5q77 -1 135.5 -36.5t91 -97t30.5 -141.5l-1 -42h-346q14 -36 48.5 -56.5t87.5 -20.5q31 0 54.5 8t50.5 28l86 -121q-53 -42 -105.5 -59t-106.5 -17zM306 393q-80 0 -99 -72h184
q-1 32 -24.5 52t-60.5 20zM365 582l-219 117l77 114l196 -149z" />
    <glyph glyph-name="eacute" unicode="&#xe9;" horiz-adv-x="586" 
d="M327 -10q-91 0 -157.5 35.5t-102 98t-35.5 142.5q0 81 34.5 144t96 98.5t139.5 36.5q77 -1 135.5 -36.5t91 -97t30.5 -141.5l-1 -42h-346q14 -36 48.5 -56.5t87.5 -20.5q31 0 54.5 8t50.5 28l86 -121q-53 -42 -105.5 -59t-106.5 -17zM306 393q-80 0 -99 -72h184
q-1 32 -24.5 52t-60.5 20zM220 581l-54 82l195 150l78 -115z" />
    <glyph glyph-name="ecircumflex" unicode="&#xea;" horiz-adv-x="586" 
d="M327 -10q-91 0 -157.5 35.5t-102 98t-35.5 142.5q0 81 34.5 144t96 98.5t139.5 36.5q77 -1 135.5 -36.5t91 -97t30.5 -141.5l-1 -42h-346q14 -36 48.5 -56.5t87.5 -20.5q31 0 54.5 8t50.5 28l86 -121q-53 -42 -105.5 -59t-106.5 -17zM306 393q-80 0 -99 -72h184
q-1 32 -24.5 52t-60.5 20zM161 598l-66 57l157 137h100l157 -137l-66 -57l-141 83z" />
    <glyph glyph-name="edieresis" unicode="&#xeb;" horiz-adv-x="586" 
d="M327 -10q-91 0 -157.5 35.5t-102 98t-35.5 142.5q0 81 34.5 144t96 98.5t139.5 36.5q77 -1 135.5 -36.5t91 -97t30.5 -141.5l-1 -42h-346q14 -36 48.5 -56.5t87.5 -20.5q31 0 54.5 8t50.5 28l86 -121q-53 -42 -105.5 -59t-106.5 -17zM306 393q-80 0 -99 -72h184
q-1 32 -24.5 52t-60.5 20zM431 627q-46 0 -70.5 24.5t-24.5 69.5q0 42 26 68t69 26q46 0 70.5 -24t24.5 -70q0 -42 -26 -68t-69 -26zM172 627q-46 0 -70.5 24.5t-24.5 69.5q0 42 25.5 68t69.5 26q45 0 70 -24t25 -70q0 -42 -26 -68t-69 -26z" />
    <glyph glyph-name="igrave" unicode="&#xec;" horiz-adv-x="310" 
d="M62 0v533h186v-533h-186zM218 582l-219 117l77 114l196 -149z" />
    <glyph glyph-name="iacute" unicode="&#xed;" horiz-adv-x="310" 
d="M62 0v533h186v-533h-186zM73 581l-54 82l195 150l78 -115z" />
    <glyph glyph-name="icircumflex" unicode="&#xee;" horiz-adv-x="310" 
d="M62 0v533h186v-533h-186zM14 598l-66 57l157 137h100l157 -137l-66 -57l-141 83z" />
    <glyph glyph-name="idieresis" unicode="&#xef;" horiz-adv-x="310" 
d="M62 0v533h186v-533h-186zM284 627q-46 0 -70.5 24.5t-24.5 69.5q0 42 26 68t69 26q46 0 70.5 -24t24.5 -70q0 -42 -26 -68t-69 -26zM25 627q-46 0 -70.5 24.5t-24.5 69.5q0 42 25.5 68t69.5 26q45 0 70 -24t25 -70q0 -42 -26 -68t-69 -26z" />
    <glyph glyph-name="eth" unicode="&#xf0;" horiz-adv-x="607" 
d="M302 -7q-80 0 -141 34.5t-95 94t-34 132.5q0 52 21 98.5t57.5 82.5t83 56t98.5 20q26 0 50 -5q-11 25 -28 46l-166 -40l-13 65l111 29q-33 18 -77 31l50 111q109 -26 189 -87l97 22l18 -66l-55 -13q52 -59 80 -138t28 -175q0 -88 -34 -155.5t-95.5 -105t-144.5 -37.5z
M304 147q42 0 71 33t29 82q0 47 -29 79.5t-71 32.5q-43 0 -71.5 -32t-28.5 -80q0 -49 28.5 -82t71.5 -33z" />
    <glyph glyph-name="ntilde" unicode="&#xf1;" horiz-adv-x="653" 
d="M70 0v533h174l5 -57q27 31 69 49.5t88 18.5q90 0 138 -55.5t48 -160.5v-328h-186v313q0 79 -70 78q-35 0 -57 -21t-22 -52v-318h-187zM433 613q-16 0 -35.5 5t-45.5 23q-18 13 -29 18t-18 5q-15 0 -26 -10.5t-13 -32.5l-99 13q0 60 31.5 101.5t85.5 41.5q16 0 34.5 -5
t44.5 -22q11 -8 24 -15.5t25 -7.5q13 0 24 10.5t13 32.5l98 -14q0 -38 -14.5 -70.5t-40 -52.5t-59.5 -20z" />
    <glyph glyph-name="ograve" unicode="&#xf2;" horiz-adv-x="653" 
d="M327 -10q-85 0 -152 36t-105 98.5t-38 142.5t38 143t105 98.5t152 35.5t151.5 -35.5t104.5 -98.5t38 -143t-38 -142.5t-104.5 -98.5t-151.5 -36zM327 147q46 0 76 34t30 86q0 53 -30 87t-76 34q-47 0 -77 -34t-30 -87q0 -52 30 -86t77 -34zM389 582l-219 117l77 114
l196 -149z" />
    <glyph glyph-name="oacute" unicode="&#xf3;" horiz-adv-x="653" 
d="M327 -10q-85 0 -152 36t-105 98.5t-38 142.5t38 143t105 98.5t152 35.5t151.5 -35.5t104.5 -98.5t38 -143t-38 -142.5t-104.5 -98.5t-151.5 -36zM327 147q46 0 76 34t30 86q0 53 -30 87t-76 34q-47 0 -77 -34t-30 -87q0 -52 30 -86t77 -34zM244 581l-54 82l195 150
l78 -115z" />
    <glyph glyph-name="ocircumflex" unicode="&#xf4;" horiz-adv-x="653" 
d="M327 -10q-85 0 -152 36t-105 98.5t-38 142.5t38 143t105 98.5t152 35.5t151.5 -35.5t104.5 -98.5t38 -143t-38 -142.5t-104.5 -98.5t-151.5 -36zM327 147q46 0 76 34t30 86q0 53 -30 87t-76 34q-47 0 -77 -34t-30 -87q0 -52 30 -86t77 -34zM185 598l-66 57l157 137h100
l157 -137l-66 -57l-141 83z" />
    <glyph glyph-name="otilde" unicode="&#xf5;" horiz-adv-x="653" 
d="M327 -10q-85 0 -152 36t-105 98.5t-38 142.5t38 143t105 98.5t152 35.5t151.5 -35.5t104.5 -98.5t38 -143t-38 -142.5t-104.5 -98.5t-151.5 -36zM327 147q46 0 76 34t30 86q0 53 -30 87t-76 34q-47 0 -77 -34t-30 -87q0 -52 30 -86t77 -34zM402 613q-16 0 -35.5 5
t-45.5 23q-18 13 -29 18t-18 5q-15 0 -26 -10.5t-13 -32.5l-99 13q0 60 31.5 101.5t85.5 41.5q16 0 34.5 -5t44.5 -22q11 -8 24 -15.5t25 -7.5q13 0 24 10.5t13 32.5l98 -14q0 -38 -14.5 -70.5t-40 -52.5t-59.5 -20z" />
    <glyph glyph-name="odieresis" unicode="&#xf6;" horiz-adv-x="653" 
d="M327 -10q-85 0 -152 36t-105 98.5t-38 142.5t38 143t105 98.5t152 35.5t151.5 -35.5t104.5 -98.5t38 -143t-38 -142.5t-104.5 -98.5t-151.5 -36zM327 147q46 0 76 34t30 86q0 53 -30 87t-76 34q-47 0 -77 -34t-30 -87q0 -52 30 -86t77 -34zM456 627q-46 0 -70.5 24.5
t-24.5 69.5q0 42 26 68t69 26q46 0 70.5 -24t24.5 -70q0 -42 -26 -68t-69 -26zM197 627q-46 0 -70.5 24.5t-24.5 69.5q0 42 25.5 68t69.5 26q45 0 70 -24t25 -70q0 -42 -26 -68t-69 -26z" />
    <glyph glyph-name="divide" unicode="&#xf7;" horiz-adv-x="597" 
d="M298 385q-47 0 -74.5 25t-27.5 69q0 42 28 68.5t74 26.5q47 0 74.5 -25t27.5 -70q0 -41 -28 -67.5t-74 -26.5zM40 193v148h518v-148h-518zM298 -41q-47 0 -74.5 25t-27.5 69q0 42 28 68.5t74 26.5q47 0 74.5 -25t27.5 -70q0 -41 -28 -67.5t-74 -26.5z" />
    <glyph glyph-name="oslash" unicode="&#xf8;" horiz-adv-x="653" 
d="M126 -35l-66 48l51 60q-38 37 -58.5 86.5t-20.5 107.5q0 80 38 143t105 98.5t152 35.5q83 0 151 -35l49 58l67 -49l-50 -59q36 -36 56.5 -85t20.5 -107q0 -80 -38 -142.5t-104.5 -98.5t-151.5 -36q-83 0 -150 35zM220 267q0 -28 10 -53l139 165q-20 9 -42 9
q-47 0 -77 -34t-30 -87zM327 147q46 0 76 34t30 86q0 27 -9 50l-137 -162q19 -8 40 -8z" />
    <glyph glyph-name="ugrave" unicode="&#xf9;" horiz-adv-x="658" 
d="M250 -11q-90 0 -139 56t-49 159v329h186v-310q0 -39 19.5 -60t53.5 -21q35 0 57 21t22 53v317h186v-533h-172l-6 63q-27 -34 -68.5 -54t-89.5 -20zM393 582l-219 117l77 114l196 -149z" />
    <glyph glyph-name="uacute" unicode="&#xfa;" horiz-adv-x="658" 
d="M250 -11q-90 0 -139 56t-49 159v329h186v-310q0 -39 19.5 -60t53.5 -21q35 0 57 21t22 53v317h186v-533h-172l-6 63q-27 -34 -68.5 -54t-89.5 -20zM248 581l-54 82l195 150l78 -115z" />
    <glyph glyph-name="ucircumflex" unicode="&#xfb;" horiz-adv-x="658" 
d="M250 -11q-90 0 -139 56t-49 159v329h186v-310q0 -39 19.5 -60t53.5 -21q35 0 57 21t22 53v317h186v-533h-172l-6 63q-27 -34 -68.5 -54t-89.5 -20zM189 598l-66 57l157 137h100l157 -137l-66 -57l-141 83z" />
    <glyph glyph-name="udieresis" unicode="&#xfc;" horiz-adv-x="658" 
d="M250 -11q-90 0 -139 56t-49 159v329h186v-310q0 -39 19.5 -60t53.5 -21q35 0 57 21t22 53v317h186v-533h-172l-6 63q-27 -34 -68.5 -54t-89.5 -20zM459 627q-46 0 -70.5 24.5t-24.5 69.5q0 42 26 68t69 26q46 0 70.5 -24t24.5 -70q0 -42 -26 -68t-69 -26zM200 627
q-46 0 -70.5 24.5t-24.5 69.5q0 42 25.5 68t69.5 26q45 0 70 -24t25 -70q0 -42 -26 -68t-69 -26z" />
    <glyph glyph-name="yacute" unicode="&#xfd;" horiz-adv-x="638" 
d="M128 -230l111 262l-234 501h208l89 -212q16 -37 25 -69q4 10 8 21.5t8 24.5l81 235h209l-230 -533l-94 -230h-181zM237 581l-54 82l195 150l78 -115z" />
    <glyph glyph-name="thorn" unicode="&#xfe;" horiz-adv-x="671" 
d="M70 -220v960h188v-248q27 24 66 38t85 14q66 0 118.5 -35.5t82 -97.5t29.5 -144q0 -80 -30 -142.5t-83 -98t-121 -35.5q-43 0 -81.5 15t-65.5 41v-267h-188zM355 144q48 0 75 33t27 90q0 58 -27 91t-75 33t-75 -33t-27 -91q0 -57 27 -90t75 -33z" />
    <glyph glyph-name="ydieresis" unicode="&#xff;" horiz-adv-x="638" 
d="M128 -230l111 262l-234 501h208l89 -212q16 -37 25 -69q4 10 8 21.5t8 24.5l81 235h209l-230 -533l-94 -230h-181zM449 627q-46 0 -70.5 24.5t-24.5 69.5q0 42 26 68t69 26q46 0 70.5 -24t24.5 -70q0 -42 -26 -68t-69 -26zM190 627q-46 0 -70.5 24.5t-24.5 69.5
q0 42 25.5 68t69.5 26q45 0 70 -24t25 -70q0 -42 -26 -68t-69 -26z" />
    <glyph glyph-name="Amacron" unicode="&#x100;" horiz-adv-x="692" 
d="M-12 0l279 700h160l277 -700h-197l-43 116h-240l-43 -116h-193zM301 325l-26 -69h137l-25 69q-14 37 -24 66t-18 60q-9 -31 -19.5 -59.5zM160 790v112h371v-112h-371z" />
    <glyph glyph-name="amacron" unicode="&#x101;" horiz-adv-x="671" 
d="M263 -9q-66 0 -118.5 35.5t-83 98t-30.5 142.5q0 82 30 144.5t83 97.5t122 35q51 0 88.5 -18.5t63.5 -49.5v57h183v-533h-187v56q-27 -29 -65 -47t-86 -18zM316 144q48 0 75.5 32.5t27.5 90.5t-27.5 91t-75.5 33q-47 0 -74 -33t-27 -91t27 -90.5t74 -32.5zM157 638v113
h359v-113h-359z" />
    <glyph glyph-name="Abreve" unicode="&#x102;" horiz-adv-x="692" 
d="M-12 0l279 700h160l277 -700h-197l-43 116h-240l-43 -116h-193zM301 325l-26 -69h137l-25 69q-14 37 -24 66t-18 60q-9 -31 -19.5 -59.5zM346 760q-71 0 -121.5 43t-65.5 116l116 12q9 -26 28.5 -41t42.5 -15t42.5 15t28.5 41l116 -12q-15 -73 -65.5 -116t-121.5 -43z
" />
    <glyph glyph-name="abreve" unicode="&#x103;" horiz-adv-x="671" 
d="M263 -9q-66 0 -118.5 35.5t-83 98t-30.5 142.5q0 82 30 144.5t83 97.5t122 35q51 0 88.5 -18.5t63.5 -49.5v57h183v-533h-187v56q-27 -29 -65 -47t-86 -18zM316 144q48 0 75.5 32.5t27.5 90.5t-27.5 91t-75.5 33q-47 0 -74 -33t-27 -91t27 -90.5t74 -32.5zM336 606
q-71 0 -121.5 43t-65.5 120l116 12q9 -29 29 -44.5t42 -15.5q23 0 42.5 15.5t28.5 44.5l116 -12q-15 -77 -65.5 -120t-121.5 -43z" />
    <glyph glyph-name="Aogonek" unicode="&#x104;" horiz-adv-x="692" 
d="M-12 0l279 700h160l277 -700h-197l-43 116h-240l-43 -116h-193zM301 325l-26 -69h137l-25 69q-14 37 -24 66t-18 60q-9 -31 -19.5 -59.5zM559 -217q-54 0 -90 30t-36 79q0 52 46.5 94t125.5 63l33 -49q-35 -6 -59.5 -27t-24.5 -46q0 -12 6 -20t18 -8q17 0 31 23l76 -56
q-17 -36 -48.5 -59.5t-77.5 -23.5z" />
    <glyph glyph-name="aogonek" unicode="&#x105;" horiz-adv-x="671" 
d="M263 -9q-66 0 -118.5 35.5t-83 98t-30.5 142.5q0 82 30 144.5t83 97.5t122 35q51 0 88.5 -18.5t63.5 -49.5v57h183v-533h-187v56q-27 -29 -65 -47t-86 -18zM316 144q48 0 75.5 32.5t27.5 90.5t-27.5 91t-75.5 33q-47 0 -74 -33t-27 -91t27 -90.5t74 -32.5zM463 -216
q-54 0 -90 33t-36 82q0 103 176 150l43 -49q-41 -9 -69.5 -30t-28.5 -46q0 -24 24 -24q10 0 16 5.5t15 17.5l76 -56q-17 -29 -50 -56t-76 -27z" />
    <glyph glyph-name="Cacute" unicode="&#x106;" horiz-adv-x="701" 
d="M417 -10q-110 0 -195 46.5t-133 129t-48 188.5q0 79 28.5 145.5t79.5 115.5t121 76t154 27q73 0 142.5 -27.5t119.5 -81.5l-120 -138q-25 29 -60.5 47.5t-83.5 18.5q-49 0 -89.5 -22t-64 -63.5t-23.5 -99.5q0 -83 52.5 -132.5t140.5 -49.5q46 0 85 19t65 48l95 -150
q-26 -28 -68.5 -50t-94 -34.5t-103.5 -12.5zM322 744l-40 94l220 115l58 -129z" />
    <glyph glyph-name="cacute" unicode="&#x107;" horiz-adv-x="550" 
d="M308 -10q-80 0 -142.5 36t-98 98.5t-35.5 142.5t35.5 143t98 98.5t142.5 35.5q72 0 132.5 -23t97.5 -66l-102 -120q-18 21 -46 35.5t-65 14.5q-49 0 -79.5 -33t-30.5 -84q0 -50 29.5 -83.5t80.5 -33.5q38 0 65 13t46 35l101 -121q-36 -42 -97 -65t-132 -23zM226 581
l-54 82l195 150l78 -115z" />
    <glyph glyph-name="Ccircumflex" unicode="&#x108;" horiz-adv-x="701" 
d="M417 -10q-110 0 -195 46.5t-133 129t-48 188.5q0 79 28.5 145.5t79.5 115.5t121 76t154 27q73 0 142.5 -27.5t119.5 -81.5l-120 -138q-25 29 -60.5 47.5t-83.5 18.5q-49 0 -89.5 -22t-64 -63.5t-23.5 -99.5q0 -83 52.5 -132.5t140.5 -49.5q46 0 85 19t65 48l95 -150
q-26 -28 -68.5 -50t-94 -34.5t-103.5 -12.5zM285 753l-55 67l142 109h97l141 -109l-54 -67l-136 67z" />
    <glyph glyph-name="ccircumflex" unicode="&#x109;" horiz-adv-x="550" 
d="M308 -10q-80 0 -142.5 36t-98 98.5t-35.5 142.5t35.5 143t98 98.5t142.5 35.5q72 0 132.5 -23t97.5 -66l-102 -120q-18 21 -46 35.5t-65 14.5q-49 0 -79.5 -33t-30.5 -84q0 -50 29.5 -83.5t80.5 -33.5q38 0 65 13t46 35l101 -121q-36 -42 -97 -65t-132 -23zM167 598
l-66 57l157 137h100l157 -137l-66 -57l-141 83z" />
    <glyph glyph-name="Cdotaccent" unicode="&#x10a;" horiz-adv-x="701" 
d="M417 -10q-110 0 -195 46.5t-133 129t-48 188.5q0 79 28.5 145.5t79.5 115.5t121 76t154 27q73 0 142.5 -27.5t119.5 -81.5l-120 -138q-25 29 -60.5 47.5t-83.5 18.5q-49 0 -89.5 -22t-64 -63.5t-23.5 -99.5q0 -83 52.5 -132.5t140.5 -49.5q46 0 85 19t65 48l95 -150
q-26 -28 -68.5 -50t-94 -34.5t-103.5 -12.5zM420 755q-51 0 -79 24t-28 67q0 39 28.5 65t78.5 26q51 0 79 -24t28 -67q0 -39 -28.5 -65t-78.5 -26z" />
    <glyph glyph-name="cdotaccent" unicode="&#x10b;" horiz-adv-x="550" 
d="M308 -10q-80 0 -142.5 36t-98 98.5t-35.5 142.5t35.5 143t98 98.5t142.5 35.5q72 0 132.5 -23t97.5 -66l-102 -120q-18 21 -46 35.5t-65 14.5q-49 0 -79.5 -33t-30.5 -84q0 -50 29.5 -83.5t80.5 -33.5q38 0 65 13t46 35l101 -121q-36 -42 -97 -65t-132 -23zM308 633
q-51 0 -79 24t-28 67q0 40 28.5 65.5t78.5 25.5t78.5 -24t28.5 -67q0 -40 -28.5 -65.5t-78.5 -25.5z" />
    <glyph glyph-name="Ccaron" unicode="&#x10c;" horiz-adv-x="701" 
d="M417 -10q-110 0 -195 46.5t-133 129t-48 188.5q0 79 28.5 145.5t79.5 115.5t121 76t154 27q73 0 142.5 -27.5t119.5 -81.5l-120 -138q-25 29 -60.5 47.5t-83.5 18.5q-49 0 -89.5 -22t-64 -63.5t-23.5 -99.5q0 -83 52.5 -132.5t140.5 -49.5q46 0 85 19t65 48l95 -150
q-26 -28 -68.5 -50t-94 -34.5t-103.5 -12.5zM370 754l-140 109l54 67l136 -67l136 67l55 -67l-141 -109h-100z" />
    <glyph glyph-name="ccaron" unicode="&#x10d;" horiz-adv-x="550" 
d="M308 -10q-80 0 -142.5 36t-98 98.5t-35.5 142.5t35.5 143t98 98.5t142.5 35.5q72 0 132.5 -23t97.5 -66l-102 -120q-18 21 -46 35.5t-65 14.5q-49 0 -79.5 -33t-30.5 -84q0 -50 29.5 -83.5t80.5 -33.5q38 0 65 13t46 35l101 -121q-36 -42 -97 -65t-132 -23zM258 606
l-155 137l66 57l139 -83l139 83l67 -57l-156 -137h-100z" />
    <glyph glyph-name="Dcaron" unicode="&#x10e;" horiz-adv-x="783" 
d="M83 0v700h302q105 0 185.5 -45t126 -124t45.5 -181t-45.5 -181t-126 -124t-185.5 -45h-302zM380 529h-99v-358h99q48 0 84.5 22.5t57 63t20.5 93.5t-20.5 93.5t-57 63t-84.5 22.5zM342 754l-140 109l54 67l136 -67l136 67l55 -67l-141 -109h-100z" />
    <glyph glyph-name="dcaron" unicode="&#x10f;" horiz-adv-x="800" 
d="M264 -11q-67 0 -119.5 35.5t-82.5 98t-30 143.5t30 143.5t83.5 98.5t121.5 36q44 0 82.5 -15.5t64.5 -41.5v253h188v-740h-170l-6 53q-26 -29 -69 -46.5t-93 -17.5zM317 142q48 0 75 33t27 91q0 59 -27 92t-75 33t-75 -33t-27 -92q0 -58 27 -91t75 -33zM708 462l-48 60
q14 5 33 14t33.5 21t14.5 25q0 9 -7 14.5t-20 11.5q-22 10 -32 24t-10 36q0 37 25 55t62 18q46 0 78.5 -26.5t32.5 -80.5q0 -67 -43.5 -109.5t-118.5 -62.5z" />
    <glyph glyph-name="Dcroat" unicode="&#x110;" horiz-adv-x="783" 
d="M83 0v284h-54v132h54v284h302q105 0 185.5 -45t126 -124t45.5 -181t-45.5 -181t-126 -124t-185.5 -45h-302zM380 284h-99v-113h99q48 0 84.5 22.5t57 63t20.5 93.5t-20.5 93.5t-57 63t-84.5 22.5h-99v-113h99v-132z" />
    <glyph glyph-name="dcroat" unicode="&#x111;" horiz-adv-x="663" 
d="M264 -11q-67 0 -119.5 35.5t-82.5 98t-30 143.5t30 143.5t83.5 98.5t121.5 36q44 0 82.5 -15.5t64.5 -41.5v81h-119v132h119v40h188v-40h45v-132h-45v-568h-170l-6 53q-26 -29 -69 -46.5t-93 -17.5zM317 142q48 0 75 33t27 91q0 59 -27 92t-75 33t-75 -33t-27 -92
q0 -58 27 -91t75 -33z" />
    <glyph glyph-name="Emacron" unicode="&#x112;" horiz-adv-x="659" 
d="M83 0v700h509v-163h-318v-105h278v-154h-278v-115h333v-163h-524zM164 790v112h371v-112h-371z" />
    <glyph glyph-name="emacron" unicode="&#x113;" horiz-adv-x="586" 
d="M327 -10q-91 0 -157.5 35.5t-102 98t-35.5 142.5q0 81 34.5 144t96 98.5t139.5 36.5q77 -1 135.5 -36.5t91 -97t30.5 -141.5l-1 -42h-346q14 -36 48.5 -56.5t87.5 -20.5q31 0 54.5 8t50.5 28l86 -121q-53 -42 -105.5 -59t-106.5 -17zM306 393q-80 0 -99 -72h184
q-1 32 -24.5 52t-60.5 20zM123 638v113h359v-113h-359z" />
    <glyph glyph-name="Ebreve" unicode="&#x114;" horiz-adv-x="659" 
d="M83 0v700h509v-163h-318v-105h278v-154h-278v-115h333v-163h-524zM350 760q-71 0 -121.5 43t-65.5 116l116 12q9 -26 28.5 -41t42.5 -15t42.5 15t28.5 41l116 -12q-15 -73 -65.5 -116t-121.5 -43z" />
    <glyph glyph-name="ebreve" unicode="&#x115;" horiz-adv-x="586" 
d="M327 -10q-91 0 -157.5 35.5t-102 98t-35.5 142.5q0 81 34.5 144t96 98.5t139.5 36.5q77 -1 135.5 -36.5t91 -97t30.5 -141.5l-1 -42h-346q14 -36 48.5 -56.5t87.5 -20.5q31 0 54.5 8t50.5 28l86 -121q-53 -42 -105.5 -59t-106.5 -17zM306 393q-80 0 -99 -72h184
q-1 32 -24.5 52t-60.5 20zM302 606q-71 0 -121.5 43t-65.5 120l116 12q9 -29 29 -44.5t42 -15.5q23 0 42.5 15.5t28.5 44.5l116 -12q-15 -77 -65.5 -120t-121.5 -43z" />
    <glyph glyph-name="Edotaccent" unicode="&#x116;" horiz-adv-x="659" 
d="M83 0v700h509v-163h-318v-105h278v-154h-278v-115h333v-163h-524zM350 755q-51 0 -79 24t-28 67q0 39 28.5 65t78.5 26q51 0 79 -24t28 -67q0 -39 -28.5 -65t-78.5 -26z" />
    <glyph glyph-name="edotaccent" unicode="&#x117;" horiz-adv-x="586" 
d="M327 -10q-91 0 -157.5 35.5t-102 98t-35.5 142.5q0 81 34.5 144t96 98.5t139.5 36.5q77 -1 135.5 -36.5t91 -97t30.5 -141.5l-1 -42h-346q14 -36 48.5 -56.5t87.5 -20.5q31 0 54.5 8t50.5 28l86 -121q-53 -42 -105.5 -59t-106.5 -17zM306 393q-80 0 -99 -72h184
q-1 32 -24.5 52t-60.5 20zM302 633q-51 0 -79 24t-28 67q0 40 28.5 65.5t78.5 25.5t78.5 -24t28.5 -67q0 -40 -28.5 -65.5t-78.5 -25.5z" />
    <glyph glyph-name="Eogonek" unicode="&#x118;" horiz-adv-x="659" 
d="M83 0v700h509v-163h-318v-105h278v-154h-278v-115h333v-163h-524zM482 -217q-54 0 -90 30t-36 79q0 52 46.5 94t125.5 63l33 -49q-35 -6 -59.5 -27t-24.5 -46q0 -12 6 -20t18 -8q17 0 31 23l76 -56q-17 -36 -48.5 -59.5t-77.5 -23.5z" />
    <glyph glyph-name="eogonek" unicode="&#x119;" horiz-adv-x="586" 
d="M379 -207q-54 0 -85 32t-31 77q0 26 10.5 47.5t29.5 41.5q-84 4 -145 41t-93.5 97t-32.5 137q0 81 34.5 144t96 98.5t139.5 36.5q77 -1 135.5 -36.5t91 -97t30.5 -141.5l-1 -42h-346q14 -36 48.5 -56.5t87.5 -20.5q31 0 54.5 8t50.5 28l86 -121q-38 -30 -77 -48
q-38 -22 -58.5 -41t-20.5 -40q0 -14 7 -21.5t17 -7.5q17 0 33 23l76 -56q-17 -29 -51 -55.5t-86 -26.5zM306 393q-80 0 -99 -72h184q-1 32 -24.5 52t-60.5 20z" />
    <glyph glyph-name="Ecaron" unicode="&#x11a;" horiz-adv-x="659" 
d="M83 0v700h509v-163h-318v-105h278v-154h-278v-115h333v-163h-524zM300 754l-140 109l54 67l136 -67l136 67l55 -67l-141 -109h-100z" />
    <glyph glyph-name="ecaron" unicode="&#x11b;" horiz-adv-x="586" 
d="M327 -10q-91 0 -157.5 35.5t-102 98t-35.5 142.5q0 81 34.5 144t96 98.5t139.5 36.5q77 -1 135.5 -36.5t91 -97t30.5 -141.5l-1 -42h-346q14 -36 48.5 -56.5t87.5 -20.5q31 0 54.5 8t50.5 28l86 -121q-53 -42 -105.5 -59t-106.5 -17zM306 393q-80 0 -99 -72h184
q-1 32 -24.5 52t-60.5 20zM252 606l-155 137l66 57l139 -83l139 83l67 -57l-156 -137h-100z" />
    <glyph glyph-name="Gcircumflex" unicode="&#x11c;" horiz-adv-x="789" 
d="M414 -10q-117 0 -200.5 47t-128 129.5t-44.5 187.5t48.5 187.5t135.5 129.5t202 47q89 0 161.5 -32.5t116.5 -81.5l-118 -126q-33 31 -71.5 50t-91.5 19q-51 0 -91.5 -25t-64 -68.5t-23.5 -99.5q0 -55 24.5 -99t66.5 -69t96 -25q52 0 88 29t42 74h-157v144h338
q1 -11 2.5 -33.5t2 -44.5t0.5 -31q0 -90 -43.5 -160t-119 -109.5t-171.5 -39.5zM280 753l-55 67l142 109h97l141 -109l-54 -67l-136 67z" />
    <glyph glyph-name="gcircumflex" unicode="&#x11d;" horiz-adv-x="678" 
d="M317 -230q-69 0 -137 19.5t-111 51.5l63 126q33 -21 71.5 -33t83.5 -12q72 0 105 30.5t33 96.5v15q-27 -24 -65.5 -38.5t-81.5 -14.5q-72 0 -127.5 32.5t-87 90.5t-31.5 137q0 80 31 141.5t85.5 96.5t124.5 35q50 0 92.5 -17t68.5 -44l4 50h174v-484q0 -134 -78.5 -206.5
t-216.5 -72.5zM322 148q50 0 79 32t29 89t-29 89.5t-79 32.5t-78.5 -32.5t-28.5 -89.5t28.5 -89t78.5 -32zM198 598l-66 57l157 137h100l157 -137l-66 -57l-141 83z" />
    <glyph glyph-name="Gbreve" unicode="&#x11e;" horiz-adv-x="789" 
d="M414 -10q-117 0 -200.5 47t-128 129.5t-44.5 187.5t48.5 187.5t135.5 129.5t202 47q89 0 161.5 -32.5t116.5 -81.5l-118 -126q-33 31 -71.5 50t-91.5 19q-51 0 -91.5 -25t-64 -68.5t-23.5 -99.5q0 -55 24.5 -99t66.5 -69t96 -25q52 0 88 29t42 74h-157v144h338
q1 -11 2.5 -33.5t2 -44.5t0.5 -31q0 -90 -43.5 -160t-119 -109.5t-171.5 -39.5zM416 760q-71 0 -121.5 43t-65.5 116l116 12q9 -26 28.5 -41t42.5 -15t42.5 15t28.5 41l116 -12q-15 -73 -65.5 -116t-121.5 -43z" />
    <glyph glyph-name="gbreve" unicode="&#x11f;" horiz-adv-x="678" 
d="M317 -230q-69 0 -137 19.5t-111 51.5l63 126q33 -21 71.5 -33t83.5 -12q72 0 105 30.5t33 96.5v15q-27 -24 -65.5 -38.5t-81.5 -14.5q-72 0 -127.5 32.5t-87 90.5t-31.5 137q0 80 31 141.5t85.5 96.5t124.5 35q50 0 92.5 -17t68.5 -44l4 50h174v-484q0 -134 -78.5 -206.5
t-216.5 -72.5zM322 148q50 0 79 32t29 89t-29 89.5t-79 32.5t-78.5 -32.5t-28.5 -89.5t28.5 -89t78.5 -32zM339 606q-71 0 -121.5 43t-65.5 120l116 12q9 -29 29 -44.5t42 -15.5q23 0 42.5 15.5t28.5 44.5l116 -12q-15 -77 -65.5 -120t-121.5 -43z" />
    <glyph glyph-name="Gdotaccent" unicode="&#x120;" horiz-adv-x="789" 
d="M414 -10q-117 0 -200.5 47t-128 129.5t-44.5 187.5t48.5 187.5t135.5 129.5t202 47q89 0 161.5 -32.5t116.5 -81.5l-118 -126q-33 31 -71.5 50t-91.5 19q-51 0 -91.5 -25t-64 -68.5t-23.5 -99.5q0 -55 24.5 -99t66.5 -69t96 -25q52 0 88 29t42 74h-157v144h338
q1 -11 2.5 -33.5t2 -44.5t0.5 -31q0 -90 -43.5 -160t-119 -109.5t-171.5 -39.5zM416 755q-51 0 -79 24t-28 67q0 39 28.5 65t78.5 26q51 0 79 -24t28 -67q0 -39 -28.5 -65t-78.5 -26z" />
    <glyph glyph-name="gdotaccent" unicode="&#x121;" horiz-adv-x="678" 
d="M317 -230q-69 0 -137 19.5t-111 51.5l63 126q33 -21 71.5 -33t83.5 -12q72 0 105 30.5t33 96.5v15q-27 -24 -65.5 -38.5t-81.5 -14.5q-72 0 -127.5 32.5t-87 90.5t-31.5 137q0 80 31 141.5t85.5 96.5t124.5 35q50 0 92.5 -17t68.5 -44l4 50h174v-484q0 -134 -78.5 -206.5
t-216.5 -72.5zM322 148q50 0 79 32t29 89t-29 89.5t-79 32.5t-78.5 -32.5t-28.5 -89.5t28.5 -89t78.5 -32zM339 633q-51 0 -79 24t-28 67q0 40 28.5 65.5t78.5 25.5t78.5 -24t28.5 -67q0 -40 -28.5 -65.5t-78.5 -25.5z" />
    <glyph glyph-name="uni0122" unicode="&#x122;" horiz-adv-x="789" 
d="M414 -10q-117 0 -200.5 47t-128 129.5t-44.5 187.5t48.5 187.5t135.5 129.5t202 47q89 0 161.5 -32.5t116.5 -81.5l-118 -126q-33 31 -71.5 50t-91.5 19q-51 0 -91.5 -25t-64 -68.5t-23.5 -99.5q0 -55 24.5 -99t66.5 -69t96 -25q52 0 88 29t42 74h-157v144h338
q1 -11 2.5 -33.5t2 -44.5t0.5 -31q0 -90 -43.5 -160t-119 -109.5t-171.5 -39.5zM338 -316l-48 60q14 5 33 14t33.5 21t14.5 25q0 9 -7 14.5t-20 11.5q-22 10 -32 24t-10 36q0 37 25 55t62 18q46 0 78.5 -26.5t32.5 -80.5q0 -67 -43.5 -109.5t-118.5 -62.5z" />
    <glyph glyph-name="uni0123" unicode="&#x123;" horiz-adv-x="678" 
d="M317 -230q-69 0 -137 19.5t-111 51.5l63 126q33 -21 71.5 -33t83.5 -12q72 0 105 30.5t33 96.5v15q-27 -24 -65.5 -38.5t-81.5 -14.5q-72 0 -127.5 32.5t-87 90.5t-31.5 137q0 80 31 141.5t85.5 96.5t124.5 35q50 0 92.5 -17t68.5 -44l4 50h174v-484q0 -134 -78.5 -206.5
t-216.5 -72.5zM322 148q50 0 79 32t29 89t-29 89.5t-79 32.5t-78.5 -32.5t-28.5 -89.5t28.5 -89t78.5 -32zM341 591q-44 0 -75.5 26.5t-31.5 83.5q0 60 46 101t117 68l47 -61q-14 -4 -33 -13t-33.5 -21t-14.5 -26q0 -10 7.5 -15t19.5 -11q21 -10 31.5 -23t10.5 -37
q0 -37 -26.5 -54.5t-64.5 -17.5z" />
    <glyph glyph-name="Hcircumflex" unicode="&#x124;" horiz-adv-x="788" 
d="M83 0v700h198v-264h226v264h198v-700h-198v262h-226v-262h-198zM259 753l-55 67l142 109h97l141 -109l-54 -67l-136 67z" />
    <glyph glyph-name="hcircumflex" unicode="&#x125;" horiz-adv-x="653" 
d="M70 0v740h183v-260q27 29 67.5 46.5t85.5 17.5q90 0 138 -55.5t48 -160.5v-328h-186v313q0 79 -70 78q-35 0 -57 -21t-22 -52v-318h-187zM192 793l-55 67l142 109h97l141 -109l-54 -67l-136 67z" />
    <glyph glyph-name="Hbar" unicode="&#x126;" horiz-adv-x="804" 
d="M93 0v485h-69v154h69v61h198v-71h225v71h198v-61h69v-154h-69v-485h-198v262h-225v-262h-198zM291 436h225v59h-225v-59z" />
    <glyph glyph-name="hbar" unicode="&#x127;" horiz-adv-x="653" 
d="M70 0v571h-56v132h56v37h183v-37h112v-132h-112v-91q27 29 67.5 46.5t85.5 17.5q90 0 138 -55.5t48 -160.5v-328h-186v313q0 79 -70 78q-35 0 -57 -21t-22 -52v-318h-187z" />
    <glyph glyph-name="Itilde" unicode="&#x128;" horiz-adv-x="590" 
d="M75 0v163h121v375h-121v162h440v-162h-121v-375h121v-163h-440zM373 768q-18 0 -36.5 5.5t-44.5 16.5q-19 9 -31.5 13.5t-21.5 4.5q-31 0 -31 -39h-110q0 71 36 113t98 42q16 0 32.5 -4.5t46.5 -18.5q17 -9 27 -13t19 -4q12 0 19 11t6 29h110q0 -44 -15 -79.5t-42 -56
t-62 -20.5z" />
    <glyph glyph-name="itilde" unicode="&#x129;" horiz-adv-x="310" 
d="M62 0v533h186v-533h-186zM231 613q-16 0 -35.5 5t-45.5 23q-18 13 -29 18t-18 5q-15 0 -26 -10.5t-13 -32.5l-99 13q0 60 31.5 101.5t85.5 41.5q16 0 34.5 -5t44.5 -22q11 -8 24 -15.5t25 -7.5q13 0 24 10.5t13 32.5l98 -14q0 -38 -14.5 -70.5t-40 -52.5t-59.5 -20z" />
    <glyph glyph-name="Imacron" unicode="&#x12a;" horiz-adv-x="590" 
d="M75 0v163h121v375h-121v162h440v-162h-121v-375h121v-163h-440zM109 790v112h371v-112h-371z" />
    <glyph glyph-name="imacron" unicode="&#x12b;" horiz-adv-x="310" 
d="M62 0v533h186v-533h-186zM-24 638v113h359v-113h-359z" />
    <glyph glyph-name="Ibreve" unicode="&#x12c;" horiz-adv-x="590" 
d="M75 0v163h121v375h-121v162h440v-162h-121v-375h121v-163h-440zM295 760q-71 0 -121.5 43t-65.5 116l116 12q9 -26 28.5 -41t42.5 -15t42.5 15t28.5 41l116 -12q-15 -73 -65.5 -116t-121.5 -43z" />
    <glyph glyph-name="ibreve" unicode="&#x12d;" horiz-adv-x="310" 
d="M62 0v533h186v-533h-186zM155 606q-71 0 -121.5 43t-65.5 120l116 12q9 -29 29 -44.5t42 -15.5q23 0 42.5 15.5t28.5 44.5l116 -12q-15 -77 -65.5 -120t-121.5 -43z" />
    <glyph glyph-name="Iogonek" unicode="&#x12e;" horiz-adv-x="590" 
d="M75 0v163h121v375h-121v162h440v-162h-121v-375h121v-163h-440zM342 -217q-54 0 -90 30t-36 79q0 52 46.5 94t125.5 63l33 -49q-35 -6 -59.5 -27t-24.5 -46q0 -12 6 -20t18 -8q17 0 31 23l76 -56q-17 -36 -48.5 -59.5t-77.5 -23.5z" />
    <glyph glyph-name="iogonek" unicode="&#x12f;" horiz-adv-x="310" 
d="M62 0v533h186v-533h-186zM155 633q-51 0 -79 24t-28 67q0 40 28.5 65.5t78.5 25.5t78.5 -24t28.5 -67q0 -40 -28.5 -65.5t-78.5 -25.5zM140 -216q-54 0 -90 33t-36 82q0 103 176 150l43 -49q-41 -9 -69.5 -30t-28.5 -46q0 -24 24 -24q10 0 16 5.5t15 17.5l76 -56
q-17 -29 -50 -56t-76 -27z" />
    <glyph glyph-name="Idotaccent" unicode="&#x130;" horiz-adv-x="590" 
d="M75 0v163h121v375h-121v162h440v-162h-121v-375h121v-163h-440zM295 755q-51 0 -79 24t-28 67q0 39 28.5 65t78.5 26q51 0 79 -24t28 -67q0 -39 -28.5 -65t-78.5 -26z" />
    <glyph glyph-name="dotlessi" unicode="&#x131;" horiz-adv-x="310" 
d="M62 0v533h186v-533h-186z" />
    <glyph glyph-name="IJ" unicode="&#x132;" horiz-adv-x="1265" 
d="M75 0v163h121v375h-121v162h440v-162h-121v-375h121v-163h-440zM854 -10q-83 0 -140 33t-90 92l111 115q21 -32 43.5 -48.5t48.5 -16.5q29 0 46.5 20t17.5 52v293h-129v170h428v-170h-108v-317q0 -70 -30.5 -120t-82 -76.5t-115.5 -26.5z" />
    <glyph glyph-name="ij" unicode="&#x133;" horiz-adv-x="676" 
d="M169 634q-50 0 -78.5 23.5t-28.5 66.5q0 40 28.5 65.5t78.5 25.5q51 0 79 -23.5t28 -67.5q0 -40 -28.5 -65t-78.5 -25zM76 0v533h186v-533h-186zM514 634q-51 0 -79 23.5t-28 66.5q0 40 28.5 65.5t78.5 25.5t78.5 -23.5t28.5 -67.5q0 -40 -28.5 -65t-78.5 -25zM367 -215
l-71 144q49 0 75.5 10.5t36.5 39t10 80.5v474h187v-518q0 -124 -60 -177t-178 -53z" />
    <glyph glyph-name="Jcircumflex" unicode="&#x134;" horiz-adv-x="675" 
d="M264 -10q-83 0 -140 33t-90 92l111 115q21 -32 43.5 -48.5t48.5 -16.5q29 0 46.5 20t17.5 52v293h-129v170h428v-170h-108v-317q0 -70 -30.5 -120t-82 -76.5t-115.5 -26.5zM262 753l-55 67l142 109h97l141 -109l-54 -67l-136 67z" />
    <glyph glyph-name="jcircumflex" unicode="&#x135;" horiz-adv-x="338" 
d="M29 -215l-71 144q49 0 75.5 10.5t36.5 39t10 80.5v474h186v-518q0 -124 -59.5 -177t-177.5 -53zM35 598l-66 57l157 137h100l157 -137l-66 -57l-141 83z" />
    <glyph glyph-name="uni0136" unicode="&#x136;" horiz-adv-x="742" 
d="M83 0v700h198v-223l219 223h228l-296 -293l321 -407h-227l-218 285l-27 -27v-258h-198zM314 -316l-48 60q14 5 33 14t33.5 21t14.5 25q0 9 -7 14.5t-20 11.5q-22 10 -32 24t-10 36q0 37 25 55t62 18q46 0 78.5 -26.5t32.5 -80.5q0 -67 -43.5 -109.5t-118.5 -62.5z" />
    <glyph glyph-name="uni0137" unicode="&#x137;" horiz-adv-x="652" 
d="M70 0v740h187v-372l158 165h244l-246 -230l235 -303h-215l-140 191l-36 -34v-157h-187zM269 -316l-48 60q14 5 33 13.5t33.5 20.5t14.5 27q0 9 -7 14t-20 11q-22 10 -32 24t-10 36q0 37 26 55t66 18q44 0 75 -27.5t31 -83.5q0 -58 -43.5 -99t-118.5 -69z" />
    <glyph glyph-name="kgreenlandic" unicode="&#x138;" horiz-adv-x="663" 
d="M70 0v533h186v-183l158 183h241l-232 -234l221 -299h-214l-123 182l-51 -51v-131h-186z" />
    <glyph glyph-name="Lacute" unicode="&#x139;" horiz-adv-x="613" 
d="M83 0v700h198v-529h305v-171h-503zM86 744l-40 94l220 115l58 -129z" />
    <glyph glyph-name="lacute" unicode="&#x13a;" horiz-adv-x="328" 
d="M71 0v740h186v-740h-186zM66 784l-40 94l220 115l58 -129z" />
    <glyph glyph-name="uni013B" unicode="&#x13b;" horiz-adv-x="613" 
d="M83 0v700h198v-529h305v-171h-503zM250 -316l-48 60q14 5 33 14t33.5 21t14.5 25q0 9 -7 14.5t-20 11.5q-22 10 -32 24t-10 36q0 37 25 55t62 18q46 0 78.5 -26.5t32.5 -80.5q0 -67 -43.5 -109.5t-118.5 -62.5z" />
    <glyph glyph-name="uni013C" unicode="&#x13c;" horiz-adv-x="328" 
d="M71 0v740h186v-740h-186zM107 -316l-48 60q14 5 33 13.5t33.5 20.5t14.5 27q0 9 -7 14t-20 11q-22 10 -32 24t-10 36q0 37 26 55t66 18q44 0 75 -27.5t31 -83.5q0 -58 -43.5 -99t-118.5 -69z" />
    <glyph glyph-name="Lcaron" unicode="&#x13d;" horiz-adv-x="613" 
d="M83 0v700h198v-529h305v-171h-503zM424 422l-48 60q14 5 33 14t33.5 21t14.5 25q0 9 -7 14.5t-20 11.5q-22 10 -32 24t-10 36q0 37 25 55t62 18q46 0 78.5 -26.5t32.5 -80.5q0 -67 -43.5 -109.5t-118.5 -62.5z" />
    <glyph glyph-name="lcaron" unicode="&#x13e;" horiz-adv-x="464" 
d="M71 0v740h186v-740h-186zM372 462l-48 60q14 5 33 14t33.5 21t14.5 25q0 9 -7 14.5t-20 11.5q-22 10 -32 24t-10 36q0 37 25 55t62 18q46 0 78.5 -26.5t32.5 -80.5q0 -67 -43.5 -109.5t-118.5 -62.5z" />
    <glyph glyph-name="Ldot" unicode="&#x13f;" horiz-adv-x="613" 
d="M83 0v700h198v-529h305v-171h-503zM492 299q-45 0 -69.5 25t-24.5 71q0 42 26 69t68 27q45 0 69.5 -25t24.5 -71q0 -42 -26 -69t-68 -27z" />
    <glyph glyph-name="ldot" unicode="&#x140;" horiz-adv-x="492" 
d="M71 0v740h186v-740h-186zM412 299q-45 0 -69.5 25t-24.5 71q0 42 26 69t68 27q45 0 69.5 -25t24.5 -71q0 -42 -26 -69t-68 -27z" />
    <glyph glyph-name="Lslash" unicode="&#x141;" horiz-adv-x="620" 
d="M90 0v257l-63 -28l-57 148l120 52v271h198v-184l70 31l57 -149l-127 -55v-172h304v-171h-502z" />
    <glyph glyph-name="lslash" unicode="&#x142;" horiz-adv-x="433" 
d="M124 0v265l-67 -30l-57 149l124 54v302h186v-221l66 29l58 -148l-124 -54v-346h-186z" />
    <glyph glyph-name="Nacute" unicode="&#x143;" horiz-adv-x="813" 
d="M83 0v700h177l292 -401q-5 44 -8 80t-4.5 77t-0.5 97v147h191v-700h-179l-286 391q4 -34 6 -60.5t2.5 -55t0.5 -67.5v-208h-191zM309 744l-40 94l220 115l58 -129z" />
    <glyph glyph-name="nacute" unicode="&#x144;" horiz-adv-x="653" 
d="M70 0v533h174l5 -57q27 31 69 49.5t88 18.5q90 0 138 -55.5t48 -160.5v-328h-186v313q0 79 -70 78q-35 0 -57 -21t-22 -52v-318h-187zM275 581l-54 82l195 150l78 -115z" />
    <glyph glyph-name="uni0145" unicode="&#x145;" horiz-adv-x="813" 
d="M83 0v700h177l292 -401q-5 44 -8 80t-4.5 77t-0.5 97v147h191v-700h-179l-286 391q4 -34 6 -60.5t2.5 -55t0.5 -67.5v-208h-191zM350 -316l-48 60q14 5 33 14t33.5 21t14.5 25q0 9 -7 14.5t-20 11.5q-22 10 -32 24t-10 36q0 37 25 55t62 18q46 0 78.5 -26.5t32.5 -80.5
q0 -67 -43.5 -109.5t-118.5 -62.5z" />
    <glyph glyph-name="uni0146" unicode="&#x146;" horiz-adv-x="653" 
d="M70 0v533h174l5 -57q27 31 69 49.5t88 18.5q90 0 138 -55.5t48 -160.5v-328h-186v313q0 79 -70 78q-35 0 -57 -21t-22 -52v-318h-187zM270 -316l-48 60q14 5 33 13.5t33.5 20.5t14.5 27q0 9 -7 14t-20 11q-22 10 -32 24t-10 36q0 37 26 55t66 18q44 0 75 -27.5t31 -83.5
q0 -58 -43.5 -99t-118.5 -69z" />
    <glyph glyph-name="Ncaron" unicode="&#x147;" horiz-adv-x="813" 
d="M83 0v700h177l292 -401q-5 44 -8 80t-4.5 77t-0.5 97v147h191v-700h-179l-286 391q4 -34 6 -60.5t2.5 -55t0.5 -67.5v-208h-191zM357 754l-140 109l54 67l136 -67l136 67l55 -67l-141 -109h-100z" />
    <glyph glyph-name="ncaron" unicode="&#x148;" horiz-adv-x="653" 
d="M70 0v533h174l5 -57q27 31 69 49.5t88 18.5q90 0 138 -55.5t48 -160.5v-328h-186v313q0 79 -70 78q-35 0 -57 -21t-22 -52v-318h-187zM307 606l-155 137l66 57l139 -83l139 83l67 -57l-156 -137h-100z" />
    <glyph glyph-name="napostrophe" unicode="&#x149;" horiz-adv-x="685" 
d="M-109 434l19 266h184l-85 -266h-118zM102 0v533h174l5 -57q27 31 69 49.5t88 18.5q90 0 138 -55.5t48 -160.5v-328h-186v313q0 79 -70 78q-35 0 -57 -21t-22 -52v-318h-187z" />
    <glyph glyph-name="Eng" unicode="&#x14a;" horiz-adv-x="813" 
d="M487 -205l-80 145q30 0 62 6.5t54 19.5t22 34v9l-280 380q4 -38 6.5 -78.5t2.5 -67.5v-243h-191v700h177l292 -400q-6 49 -9 86t-4 75.5t0 91.5v147h191v-704q0 -108 -64 -154.5t-179 -46.5z" />
    <glyph glyph-name="eng" unicode="&#x14b;" horiz-adv-x="653" 
d="M350 -205l-70 145q66 0 95 28t31 84v261q0 79 -70 78q-35 0 -57 -21t-22 -52v-318h-187v533h174l4 -58q28 31 69.5 50t88.5 19q90 0 138 -55.5t48 -160.5v-332q0 -104 -61 -152.5t-181 -48.5z" />
    <glyph glyph-name="Omacron" unicode="&#x14c;" horiz-adv-x="825" 
d="M413 -10q-81 0 -149 27t-118 76t-77.5 115.5t-27.5 145.5t27.5 145.5t77.5 115.5t118 76t149 27t149 -27t117.5 -76t77 -115.5t27.5 -145.5t-27.5 -145.5t-77 -115.5t-117.5 -76t-149 -27zM413 174q49 0 87 23.5t60 64t22 92.5t-22 93t-60 64t-87 23t-87.5 -23
t-60.5 -63.5t-22 -93.5q0 -52 22 -92.5t60.5 -64t87.5 -23.5zM227 790v112h371v-112h-371z" />
    <glyph glyph-name="omacron" unicode="&#x14d;" horiz-adv-x="653" 
d="M327 -10q-85 0 -152 36t-105 98.5t-38 142.5t38 143t105 98.5t152 35.5t151.5 -35.5t104.5 -98.5t38 -143t-38 -142.5t-104.5 -98.5t-151.5 -36zM327 147q46 0 76 34t30 86q0 53 -30 87t-76 34q-47 0 -77 -34t-30 -87q0 -52 30 -86t77 -34zM147 638v113h359v-113h-359z
" />
    <glyph glyph-name="Obreve" unicode="&#x14e;" horiz-adv-x="825" 
d="M413 -10q-81 0 -149 27t-118 76t-77.5 115.5t-27.5 145.5t27.5 145.5t77.5 115.5t118 76t149 27t149 -27t117.5 -76t77 -115.5t27.5 -145.5t-27.5 -145.5t-77 -115.5t-117.5 -76t-149 -27zM413 174q49 0 87 23.5t60 64t22 92.5t-22 93t-60 64t-87 23t-87.5 -23
t-60.5 -63.5t-22 -93.5q0 -52 22 -92.5t60.5 -64t87.5 -23.5zM413 760q-71 0 -121.5 43t-65.5 116l116 12q9 -26 28.5 -41t42.5 -15t42.5 15t28.5 41l116 -12q-15 -73 -65.5 -116t-121.5 -43z" />
    <glyph glyph-name="obreve" unicode="&#x14f;" horiz-adv-x="653" 
d="M327 -10q-85 0 -152 36t-105 98.5t-38 142.5t38 143t105 98.5t152 35.5t151.5 -35.5t104.5 -98.5t38 -143t-38 -142.5t-104.5 -98.5t-151.5 -36zM327 147q46 0 76 34t30 86q0 53 -30 87t-76 34q-47 0 -77 -34t-30 -87q0 -52 30 -86t77 -34zM326 606q-71 0 -121.5 43
t-65.5 120l116 12q9 -29 29 -44.5t42 -15.5q23 0 42.5 15.5t28.5 44.5l116 -12q-15 -77 -65.5 -120t-121.5 -43z" />
    <glyph glyph-name="Ohungarumlaut" unicode="&#x150;" horiz-adv-x="825" 
d="M413 -10q-81 0 -149 27t-118 76t-77.5 115.5t-27.5 145.5t27.5 145.5t77.5 115.5t118 76t149 27t149 -27t117.5 -76t77 -115.5t27.5 -145.5t-27.5 -145.5t-77 -115.5t-117.5 -76t-149 -27zM413 174q49 0 87 23.5t60 64t22 92.5t-22 93t-60 64t-87 23t-87.5 -23
t-60.5 -63.5t-22 -93.5q0 -52 22 -92.5t60.5 -64t87.5 -23.5zM285 755l-57 79l159 146l80 -108zM518 752l-55 82l168 143l79 -114z" />
    <glyph glyph-name="ohungarumlaut" unicode="&#x151;" horiz-adv-x="653" 
d="M327 -10q-85 0 -152 36t-105 98.5t-38 142.5t38 143t105 98.5t152 35.5t151.5 -35.5t104.5 -98.5t38 -143t-38 -142.5t-104.5 -98.5t-151.5 -36zM327 147q46 0 76 34t30 86q0 53 -30 87t-76 34q-47 0 -77 -34t-30 -87q0 -52 30 -86t77 -34zM173 578l-82 46l141 199
l108 -85zM381 582l-77 51l156 190l102 -94z" />
    <glyph glyph-name="OE" unicode="&#x152;" horiz-adv-x="1102" 
d="M375 0q-102 0 -177 44t-116 122.5t-41 183.5q0 104 44 183t123 123t187 44h655v-163h-333v-101h278v-154h-278v-119h333v-163h-675zM241 350q0 -84 42 -131.5t119 -47.5h125v358h-121q-79 0 -122 -48t-43 -131z" />
    <glyph glyph-name="oe" unicode="&#x153;" horiz-adv-x="996" 
d="M327 -10q-85 0 -152 36t-105 98.5t-38 142.5t38 143t105 98.5t152 35.5q124 0 203 -77q68 77 181 77q78 0 136.5 -35.5t91 -97t31.5 -141.5l-1 -42h-348q12 -36 42.5 -56.5t85.5 -20.5q34 0 59.5 8t54.5 28l86 -121q-53 -41 -105.5 -58.5t-106.5 -17.5q-134 0 -211 80
q-34 -39 -85.5 -59.5t-113.5 -20.5zM712 393q-43 0 -65 -21t-29 -51h183q-1 33 -25.5 52.5t-63.5 19.5zM327 147q46 0 76 34t30 86q0 53 -30 87t-76 34q-47 0 -77 -34t-30 -87q0 -52 30 -86t77 -34z" />
    <glyph glyph-name="Racute" unicode="&#x154;" horiz-adv-x="705" 
d="M83 0v700h323q71 0 126.5 -29t87.5 -79.5t32 -114.5q0 -72 -34 -127.5t-91 -84.5l154 -265h-223l-134 238h-55v-238h-186zM269 380h110q38 0 59 22.5t21 60.5q0 36 -22.5 57t-65.5 21h-102v-161zM241 744l-40 94l220 115l58 -129z" />
    <glyph glyph-name="racute" unicode="&#x155;" horiz-adv-x="478" 
d="M70 0v533h174l5 -75q27 39 67.5 62.5t87.5 23.5q18 0 34 -2.5t30 -6.5l-51 -206q-10 7 -30.5 12.5t-43.5 5.5q-40 0 -63 -25t-23 -67v-255h-187zM189 581l-54 82l195 150l78 -115z" />
    <glyph glyph-name="uni0156" unicode="&#x156;" horiz-adv-x="705" 
d="M83 0v700h323q71 0 126.5 -29t87.5 -79.5t32 -114.5q0 -72 -34 -127.5t-91 -84.5l154 -265h-223l-134 238h-55v-238h-186zM269 380h110q38 0 59 22.5t21 60.5q0 36 -22.5 57t-65.5 21h-102v-161zM296 -316l-48 60q14 5 33 14t33.5 21t14.5 25q0 9 -7 14.5t-20 11.5
q-22 10 -32 24t-10 36q0 37 25 55t62 18q46 0 78.5 -26.5t32.5 -80.5q0 -67 -43.5 -109.5t-118.5 -62.5z" />
    <glyph glyph-name="uni0157" unicode="&#x157;" horiz-adv-x="478" 
d="M70 0v533h174l5 -75q27 39 67.5 62.5t87.5 23.5q18 0 34 -2.5t30 -6.5l-51 -206q-10 7 -30.5 12.5t-43.5 5.5q-40 0 -63 -25t-23 -67v-255h-187zM100 -316l-48 60q14 5 33 13.5t33.5 20.5t14.5 27q0 9 -7 14t-20 11q-22 10 -32 24t-10 36q0 37 26 55t66 18q44 0 75 -27.5
t31 -83.5q0 -58 -43.5 -99t-118.5 -69z" />
    <glyph glyph-name="Rcaron" unicode="&#x158;" horiz-adv-x="705" 
d="M83 0v700h323q71 0 126.5 -29t87.5 -79.5t32 -114.5q0 -72 -34 -127.5t-91 -84.5l154 -265h-223l-134 238h-55v-238h-186zM269 380h110q38 0 59 22.5t21 60.5q0 36 -22.5 57t-65.5 21h-102v-161zM290 754l-140 109l54 67l136 -67l136 67l55 -67l-141 -109h-100z" />
    <glyph glyph-name="rcaron" unicode="&#x159;" horiz-adv-x="478" 
d="M70 0v533h174l5 -75q27 39 67.5 62.5t87.5 23.5q18 0 34 -2.5t30 -6.5l-51 -206q-10 7 -30.5 12.5t-43.5 5.5q-40 0 -63 -25t-23 -67v-255h-187zM221 606l-155 137l66 57l139 -83l139 83l67 -57l-156 -137h-100z" />
    <glyph glyph-name="Sacute" unicode="&#x15a;" horiz-adv-x="638" 
d="M323 -10q-113 0 -188 37.5t-128 103.5l116 131q50 -65 103 -86.5t103 -21.5q34 0 55.5 11t21.5 35q0 23 -21.5 36.5t-51 21.5t-55.5 14q-119 27 -177 80.5t-58 144.5q0 49 22.5 90t61.5 70.5t88 45t103 15.5q111 0 174 -32t101 -87l-118 -114q-32 35 -70.5 51.5
t-78.5 16.5q-38 0 -60 -11t-22 -34q0 -19 18.5 -31t44.5 -19t48 -11q74 -15 130 -41.5t88 -71t32 -113.5q0 -75 -37.5 -126.5t-101 -78t-143.5 -26.5zM233 744l-40 94l220 115l58 -129z" />
    <glyph glyph-name="sacute" unicode="&#x15b;" horiz-adv-x="502" 
d="M252 -10q-83 0 -145.5 26t-98.5 67l110 94q31 -30 71.5 -43.5t71.5 -13.5q47 0 47 31q0 17 -17 25q-17 9 -84 26q-86 22 -131 63q-22 21 -34.5 48t-12.5 61q0 53 31.5 91t82.5 58.5t108 20.5q70 0 129 -21t103 -58l-95 -106q-26 22 -63.5 40t-68.5 18q-49 0 -49 -31
q0 -19 21 -30q9 -5 31 -12.5t62 -18.5q46 -13 80 -29.5t55 -39.5q31 -35 31 -82q0 -54 -30.5 -95.5t-83.5 -65t-121 -23.5zM170 581l-54 82l195 150l78 -115z" />
    <glyph glyph-name="Scircumflex" unicode="&#x15c;" horiz-adv-x="638" 
d="M323 -10q-113 0 -188 37.5t-128 103.5l116 131q50 -65 103 -86.5t103 -21.5q34 0 55.5 11t21.5 35q0 23 -21.5 36.5t-51 21.5t-55.5 14q-119 27 -177 80.5t-58 144.5q0 49 22.5 90t61.5 70.5t88 45t103 15.5q111 0 174 -32t101 -87l-118 -114q-32 35 -70.5 51.5
t-78.5 16.5q-38 0 -60 -11t-22 -34q0 -19 18.5 -31t44.5 -19t48 -11q74 -15 130 -41.5t88 -71t32 -113.5q0 -75 -37.5 -126.5t-101 -78t-143.5 -26.5zM196 753l-55 67l142 109h97l141 -109l-54 -67l-136 67z" />
    <glyph glyph-name="scircumflex" unicode="&#x15d;" horiz-adv-x="502" 
d="M252 -10q-83 0 -145.5 26t-98.5 67l110 94q31 -30 71.5 -43.5t71.5 -13.5q47 0 47 31q0 17 -17 25q-17 9 -84 26q-86 22 -131 63q-22 21 -34.5 48t-12.5 61q0 53 31.5 91t82.5 58.5t108 20.5q70 0 129 -21t103 -58l-95 -106q-26 22 -63.5 40t-68.5 18q-49 0 -49 -31
q0 -19 21 -30q9 -5 31 -12.5t62 -18.5q46 -13 80 -29.5t55 -39.5q31 -35 31 -82q0 -54 -30.5 -95.5t-83.5 -65t-121 -23.5zM111 598l-66 57l157 137h100l157 -137l-66 -57l-141 83z" />
    <glyph glyph-name="Scedilla" unicode="&#x15e;" horiz-adv-x="638" 
d="M323 -10q-113 0 -188 37.5t-128 103.5l116 131q50 -65 103 -86.5t103 -21.5q34 0 55.5 11t21.5 35q0 23 -21.5 36.5t-51 21.5t-55.5 14q-119 27 -177 80.5t-58 144.5q0 49 22.5 90t61.5 70.5t88 45t103 15.5q111 0 174 -32t101 -87l-118 -114q-32 35 -70.5 51.5
t-78.5 16.5q-38 0 -60 -11t-22 -34q0 -19 18.5 -31t44.5 -19t48 -11q74 -15 130 -41.5t88 -71t32 -113.5q0 -75 -37.5 -126.5t-101 -78t-143.5 -26.5zM237 -246l-10 84q19 0 40 4t35.5 11.5t14.5 19.5q0 16 -19 23t-43 7l-20 15l68 106h92l-47 -65q53 -5 78.5 -32.5
t25.5 -65.5q0 -33 -20 -54t-52.5 -33t-70 -16.5t-72.5 -3.5z" />
    <glyph glyph-name="scedilla" unicode="&#x15f;" horiz-adv-x="502" 
d="M252 -10q-83 0 -145.5 26t-98.5 67l110 94q31 -30 71.5 -43.5t71.5 -13.5q47 0 47 31q0 17 -17 25q-17 9 -84 26q-86 22 -131 63q-22 21 -34.5 48t-12.5 61q0 53 31.5 91t82.5 58.5t108 20.5q70 0 129 -21t103 -58l-95 -106q-26 22 -63.5 40t-68.5 18q-49 0 -49 -31
q0 -19 21 -30q9 -5 31 -12.5t62 -18.5q46 -13 80 -29.5t55 -39.5q31 -35 31 -82q0 -54 -30.5 -95.5t-83.5 -65t-121 -23.5zM150 -246l-10 84q19 0 40 4t35.5 11.5t14.5 19.5q0 16 -19 23t-43 7l-20 15l68 106h92l-47 -65q53 -5 78.5 -32.5t25.5 -65.5q0 -33 -20 -54
t-52.5 -33t-70 -16.5t-72.5 -3.5z" />
    <glyph glyph-name="Scaron" unicode="&#x160;" horiz-adv-x="638" 
d="M323 -10q-113 0 -188 37.5t-128 103.5l116 131q50 -65 103 -86.5t103 -21.5q34 0 55.5 11t21.5 35q0 23 -21.5 36.5t-51 21.5t-55.5 14q-119 27 -177 80.5t-58 144.5q0 49 22.5 90t61.5 70.5t88 45t103 15.5q111 0 174 -32t101 -87l-118 -114q-32 35 -70.5 51.5
t-78.5 16.5q-38 0 -60 -11t-22 -34q0 -19 18.5 -31t44.5 -19t48 -11q74 -15 130 -41.5t88 -71t32 -113.5q0 -75 -37.5 -126.5t-101 -78t-143.5 -26.5zM281 754l-140 109l54 67l136 -67l136 67l55 -67l-141 -109h-100z" />
    <glyph glyph-name="scaron" unicode="&#x161;" horiz-adv-x="502" 
d="M252 -10q-83 0 -145.5 26t-98.5 67l110 94q31 -30 71.5 -43.5t71.5 -13.5q47 0 47 31q0 17 -17 25q-17 9 -84 26q-86 22 -131 63q-22 21 -34.5 48t-12.5 61q0 53 31.5 91t82.5 58.5t108 20.5q70 0 129 -21t103 -58l-95 -106q-26 22 -63.5 40t-68.5 18q-49 0 -49 -31
q0 -19 21 -30q9 -5 31 -12.5t62 -18.5q46 -13 80 -29.5t55 -39.5q31 -35 31 -82q0 -54 -30.5 -95.5t-83.5 -65t-121 -23.5zM202 606l-155 137l66 57l139 -83l139 83l67 -57l-156 -137h-100z" />
    <glyph glyph-name="uni0162" unicode="&#x162;" horiz-adv-x="691" 
d="M244 0v529h-213v171h629v-171h-218v-529h-198zM243 -246l-10 84q19 0 40 4t35.5 11.5t14.5 19.5q0 16 -19 23t-43 7l-20 15l68 106h92l-47 -65q53 -5 78.5 -32.5t25.5 -65.5q0 -33 -20 -54t-52.5 -33t-70 -16.5t-72.5 -3.5z" />
    <glyph glyph-name="uni0163" unicode="&#x163;" horiz-adv-x="405" 
d="M105 0v375h-88v158h88v135h186v-135h94v-158h-94v-375h-186zM100 -246l-10 84q19 0 40 4t35.5 11.5t14.5 19.5q0 16 -19 23t-43 7l-20 15l68 106h92l-47 -65q53 -5 78.5 -32.5t25.5 -65.5q0 -33 -20 -54t-52.5 -33t-70 -16.5t-72.5 -3.5z" />
    <glyph glyph-name="Tcaron" unicode="&#x164;" horiz-adv-x="691" 
d="M244 0v529h-213v171h629v-171h-218v-529h-198zM296 754l-140 109l54 67l136 -67l136 67l55 -67l-141 -109h-100z" />
    <glyph glyph-name="tcaron" unicode="&#x165;" horiz-adv-x="405" 
d="M105 0v375h-88v158h88v135h186v-135h94v-158h-94v-375h-186zM367 569l-48 60q14 5 33 14t33.5 21t14.5 25q0 9 -7 14.5t-20 11.5q-22 10 -32 24t-10 36q0 37 25 55t62 18q46 0 78.5 -26.5t32.5 -80.5q0 -67 -43.5 -109.5t-118.5 -62.5z" />
    <glyph glyph-name="Tbar" unicode="&#x166;" horiz-adv-x="691" 
d="M244 0v285h-68v132h68v112h-213v171h629v-171h-218v-112h85v-132h-85v-285h-198z" />
    <glyph glyph-name="tbar" unicode="&#x167;" horiz-adv-x="405" 
d="M105 0v185h-80v131h80v59h-88v158h88v135h186v-135h94v-158h-94v-59h85v-131h-85v-185h-186z" />
    <glyph glyph-name="Utilde" unicode="&#x168;" horiz-adv-x="777" 
d="M388 -6q-89 0 -158 35.5t-109 97.5t-40 142v431h200v-422q0 -49 30.5 -81t76.5 -32q49 0 81 32t32 81v422h194v-431q0 -80 -39.5 -142t-109 -97.5t-158.5 -35.5zM466 768q-18 0 -36.5 5.5t-44.5 16.5q-19 9 -31.5 13.5t-21.5 4.5q-31 0 -31 -39h-110q0 71 36 113t98 42
q16 0 32.5 -4.5t46.5 -18.5q17 -9 27 -13t19 -4q12 0 19 11t6 29h110q0 -44 -15 -79.5t-42 -56t-62 -20.5z" />
    <glyph glyph-name="utilde" unicode="&#x169;" horiz-adv-x="658" 
d="M250 -11q-90 0 -139 56t-49 159v329h186v-310q0 -39 19.5 -60t53.5 -21q35 0 57 21t22 53v317h186v-533h-172l-6 63q-27 -34 -68.5 -54t-89.5 -20zM406 613q-16 0 -35.5 5t-45.5 23q-18 13 -29 18t-18 5q-15 0 -26 -10.5t-13 -32.5l-99 13q0 60 31.5 101.5t85.5 41.5
q16 0 34.5 -5t44.5 -22q11 -8 24 -15.5t25 -7.5q13 0 24 10.5t13 32.5l98 -14q0 -38 -14.5 -70.5t-40 -52.5t-59.5 -20z" />
    <glyph glyph-name="Umacron" unicode="&#x16a;" horiz-adv-x="777" 
d="M388 -6q-89 0 -158 35.5t-109 97.5t-40 142v431h200v-422q0 -49 30.5 -81t76.5 -32q49 0 81 32t32 81v422h194v-431q0 -80 -39.5 -142t-109 -97.5t-158.5 -35.5zM202 790v112h371v-112h-371z" />
    <glyph glyph-name="umacron" unicode="&#x16b;" horiz-adv-x="658" 
d="M250 -11q-90 0 -139 56t-49 159v329h186v-310q0 -39 19.5 -60t53.5 -21q35 0 57 21t22 53v317h186v-533h-172l-6 63q-27 -34 -68.5 -54t-89.5 -20zM151 638v113h359v-113h-359z" />
    <glyph glyph-name="Ubreve" unicode="&#x16c;" horiz-adv-x="777" 
d="M388 -6q-89 0 -158 35.5t-109 97.5t-40 142v431h200v-422q0 -49 30.5 -81t76.5 -32q49 0 81 32t32 81v422h194v-431q0 -80 -39.5 -142t-109 -97.5t-158.5 -35.5zM388 760q-71 0 -121.5 43t-65.5 116l116 12q9 -26 28.5 -41t42.5 -15t42.5 15t28.5 41l116 -12
q-15 -73 -65.5 -116t-121.5 -43z" />
    <glyph glyph-name="ubreve" unicode="&#x16d;" horiz-adv-x="658" 
d="M250 -11q-90 0 -139 56t-49 159v329h186v-310q0 -39 19.5 -60t53.5 -21q35 0 57 21t22 53v317h186v-533h-172l-6 63q-27 -34 -68.5 -54t-89.5 -20zM330 606q-71 0 -121.5 43t-65.5 120l116 12q9 -29 29 -44.5t42 -15.5q23 0 42.5 15.5t28.5 44.5l116 -12
q-15 -77 -65.5 -120t-121.5 -43z" />
    <glyph glyph-name="Uring" unicode="&#x16e;" horiz-adv-x="777" 
d="M388 -6q-89 0 -158 35.5t-109 97.5t-40 142v431h200v-422q0 -49 30.5 -81t76.5 -32q49 0 81 32t32 81v422h194v-431q0 -80 -39.5 -142t-109 -97.5t-158.5 -35.5zM388 671q-38 0 -70.5 18t-52.5 47.5t-20 64.5q0 38 19.5 69.5t52 50.5t71.5 19q38 0 70.5 -19t52 -50.5
t19.5 -69.5q0 -35 -19.5 -64.5t-52 -47.5t-70.5 -18zM388 763q15 0 26 11t11 27q0 17 -11.5 27.5t-25.5 10.5q-15 0 -26 -11t-11 -27t11 -27t26 -11z" />
    <glyph glyph-name="uring" unicode="&#x16f;" horiz-adv-x="658" 
d="M250 -11q-90 0 -139 56t-49 159v329h186v-310q0 -39 19.5 -60t53.5 -21q35 0 57 21t22 53v317h186v-533h-172l-6 63q-27 -34 -68.5 -54t-89.5 -20zM330 604q-33 0 -62 16.5t-46.5 44t-17.5 60.5t17 61t46 44.5t63 16.5q35 0 63.5 -16.5t45.5 -44.5t17 -61t-17.5 -60.5
t-46 -44t-62.5 -16.5zM330 694q14 0 23 8.5t9 22.5t-9 23t-23 9q-13 0 -22 -9t-9 -23q0 -13 9 -22t22 -9z" />
    <glyph glyph-name="Uhungarumlaut" unicode="&#x170;" horiz-adv-x="777" 
d="M388 -6q-89 0 -158 35.5t-109 97.5t-40 142v431h200v-422q0 -49 30.5 -81t76.5 -32q49 0 81 32t32 81v422h194v-431q0 -80 -39.5 -142t-109 -97.5t-158.5 -35.5zM261 755l-57 79l159 146l80 -108zM494 752l-55 82l168 143l79 -114z" />
    <glyph glyph-name="uhungarumlaut" unicode="&#x171;" horiz-adv-x="658" 
d="M250 -11q-90 0 -139 56t-49 159v329h186v-310q0 -39 19.5 -60t53.5 -21q35 0 57 21t22 53v317h186v-533h-172l-6 63q-27 -34 -68.5 -54t-89.5 -20zM177 578l-82 46l141 199l108 -85zM385 582l-77 51l156 190l102 -94z" />
    <glyph glyph-name="Uogonek" unicode="&#x172;" horiz-adv-x="777" 
d="M468 -217q-53 0 -86.5 32.5t-33.5 82.5q0 28 10.5 51.5t28.5 44.5q-89 0 -158 35.5t-108.5 97.5t-39.5 142v431h200v-422q0 -49 30.5 -81t76.5 -32q49 0 81 32t32 81v422h194v-431q0 -79 -39 -141t-106 -97q-33 -21 -57 -46t-24 -55q0 -13 7 -22t18 -9q18 0 31 23l76 -56
q-17 -33 -51.5 -58t-81.5 -25z" />
    <glyph glyph-name="uogonek" unicode="&#x173;" horiz-adv-x="658" 
d="M250 -11q-90 0 -139 56t-49 159v329h186v-310q0 -39 19.5 -60t53.5 -21q35 0 57 21t22 53v317h186v-533h-172l-6 63q-27 -34 -68.5 -54t-89.5 -20zM461 -216q-54 0 -90 33t-36 82q0 103 176 150l43 -49q-41 -9 -69.5 -30t-28.5 -46q0 -24 24 -24q10 0 16 5.5t15 17.5
l76 -56q-17 -29 -50 -56t-76 -27z" />
    <glyph glyph-name="Wcircumflex" unicode="&#x174;" horiz-adv-x="991" 
d="M199 0l-203 700h199l91 -336q6 -25 11 -48.5t8 -45.5q4 22 9 45t14 49l94 258h154l92 -258q9 -25 15.5 -47.5t11.5 -42.5q2 19 5.5 41.5t10.5 48.5l91 336h193l-204 -700h-154l-145 356l-131 -356h-162zM360 753l-55 67l142 109h97l141 -109l-54 -67l-136 67z" />
    <glyph glyph-name="wcircumflex" unicode="&#x175;" horiz-adv-x="849" 
d="M181 0l-173 533l197 1l77 -290l85 221h108l93 -221l76 289h197l-182 -533h-140l-97 253l-101 -253h-140zM284 598l-66 57l157 137h100l157 -137l-66 -57l-141 83z" />
    <glyph glyph-name="Ycircumflex" unicode="&#x176;" horiz-adv-x="702" 
d="M261 0v310l-276 390h222l154 -221l140 221h216l-256 -388v-312h-200zM216 753l-55 67l142 109h97l141 -109l-54 -67l-136 67z" />
    <glyph glyph-name="ycircumflex" unicode="&#x177;" horiz-adv-x="638" 
d="M128 -230l111 262l-234 501h208l89 -212q16 -37 25 -69q4 10 8 21.5t8 24.5l81 235h209l-230 -533l-94 -230h-181zM178 598l-66 57l157 137h100l157 -137l-66 -57l-141 83z" />
    <glyph glyph-name="Ydieresis" unicode="&#x178;" horiz-adv-x="702" 
d="M261 0v310l-276 390h222l154 -221l140 221h216l-256 -388v-312h-200zM481 752q-46 0 -70.5 24.5t-24.5 69.5q0 41 25 67.5t70 26.5t69.5 -24.5t24.5 -69.5q0 -41 -25 -67.5t-69 -26.5zM220 752q-46 0 -70 24.5t-24 69.5q0 41 25 67.5t69 26.5q46 0 70.5 -24.5t24.5 -69.5
q0 -41 -25.5 -67.5t-69.5 -26.5z" />
    <glyph glyph-name="Zacute" unicode="&#x179;" horiz-adv-x="694" 
d="M60 0v129l296 392h-270v179h538v-128l-302 -403h313v-169h-575zM249 744l-40 94l220 115l58 -129z" />
    <glyph glyph-name="zacute" unicode="&#x17a;" horiz-adv-x="580" 
d="M50 0v94l231 291h-231v148h466v-100l-218 -285h228v-148h-476zM208 581l-54 82l195 150l78 -115z" />
    <glyph glyph-name="Zdotaccent" unicode="&#x17b;" horiz-adv-x="694" 
d="M60 0v129l296 392h-270v179h538v-128l-302 -403h313v-169h-575zM348 755q-51 0 -79 24t-28 67q0 39 28.5 65t78.5 26q51 0 79 -24t28 -67q0 -39 -28.5 -65t-78.5 -26z" />
    <glyph glyph-name="zdotaccent" unicode="&#x17c;" horiz-adv-x="580" 
d="M50 0v94l231 291h-231v148h466v-100l-218 -285h228v-148h-476zM290 633q-51 0 -79 24t-28 67q0 40 28.5 65.5t78.5 25.5t78.5 -24t28.5 -67q0 -40 -28.5 -65.5t-78.5 -25.5z" />
    <glyph glyph-name="Zcaron" unicode="&#x17d;" horiz-adv-x="694" 
d="M60 0v129l296 392h-270v179h538v-128l-302 -403h313v-169h-575zM298 754l-140 109l54 67l136 -67l136 67l55 -67l-141 -109h-100z" />
    <glyph glyph-name="zcaron" unicode="&#x17e;" horiz-adv-x="580" 
d="M50 0v94l231 291h-231v148h466v-100l-218 -285h228v-148h-476zM240 606l-155 137l66 57l139 -83l139 83l67 -57l-156 -137h-100z" />
    <glyph glyph-name="uni018F" unicode="&#x18f;" horiz-adv-x="767" 
d="M383 -10q-68 0 -128 24t-107 68t-75 103t-32 128v108h473q-16 50 -55.5 78t-94.5 28q-58 0 -98 -14.5t-87 -48.5l-75 155q46 32 86.5 52t85.5 29.5t104 9.5q71 0 133.5 -28t110 -77.5t74.5 -114.5t27 -140t-26.5 -140t-73.5 -114.5t-109 -77.5t-133 -28zM383 173
q45 0 79 23.5t50 70.5h-258q16 -45 52.5 -69.5t76.5 -24.5z" />
    <glyph glyph-name="florin" unicode="&#x192;" horiz-adv-x="574" 
d="M118 -31q-35 0 -67 7.5t-59 24.5l65 153q16 -8 28.5 -11.5t29.5 -3.5q39 0 53 75l12 73h-87v150l112 -1l13 79q15 97 73.5 142.5t151.5 45.5q76 0 137 -39l-65 -153q-16 12 -28.5 17t-28.5 5q-25 0 -37 -16t-17 -41l-7 -40h90v-150h-115l-20 -114q-18 -105 -77.5 -154
t-156.5 -49z" />
    <glyph glyph-name="uni019D" unicode="&#x19d;" horiz-adv-x="806" 
d="M24 -205l-80 145q132 0 132 119v641h177l292 -401q-5 44 -8 80.5t-4 77t-1 96.5v147h191v-700h-179l-286 391q4 -41 6 -74.5t3 -68t1 -79.5v-154q0 -119 -61.5 -169.5t-182.5 -50.5z" />
    <glyph glyph-name="Ohorn" unicode="&#x1a0;" horiz-adv-x="825" 
d="M413 -10q-81 0 -149 27t-118 76t-77.5 115.5t-27.5 145.5t27.5 145.5t77.5 115.5t118 76t149 27q40 0 90 -10q17 -4 34.5 -8t36.5 -4q82 0 82 135h142q0 -49 -9.5 -93.5t-35 -77.5t-73.5 -45q49 -48 76.5 -115t27.5 -146t-27.5 -145.5t-77 -115.5t-117.5 -76t-149 -27z
M413 174q49 0 87 23.5t60 64t22 92.5t-22 93t-60 64t-87 23t-87.5 -23t-60.5 -63.5t-22 -93.5q0 -52 22 -92.5t60.5 -64t87.5 -23.5z" />
    <glyph glyph-name="ohorn" unicode="&#x1a1;" horiz-adv-x="653" 
d="M327 -10q-85 0 -152 36t-105 98.5t-38 142.5t38 143t105 98.5t152 35.5q14 0 29.5 -1.5t28.5 -3.5q12 -3 21.5 -4.5t17.5 -1.5q86 0 86 114h140q0 -62 -25 -113.5t-82 -73.5q37 -36 57.5 -85.5t20.5 -107.5q0 -80 -38 -142.5t-104.5 -98.5t-151.5 -36zM327 147
q46 0 76 34t30 86q0 53 -30 87t-76 34q-47 0 -77 -34t-30 -87q0 -52 30 -86t77 -34z" />
    <glyph glyph-name="Uhorn" unicode="&#x1af;" horiz-adv-x="777" 
d="M388 -6q-89 0 -158 35.5t-109 97.5t-40 142v431h200v-422q0 -49 30.5 -81t76.5 -32q49 0 81 32t32 81v422h72q88 0 88 131h142q0 -67 -25.5 -122t-82.5 -79v-361q0 -80 -39.5 -142t-109 -97.5t-158.5 -35.5z" />
    <glyph glyph-name="uhorn" unicode="&#x1b0;" horiz-adv-x="658" 
d="M250 -11q-90 0 -139 56t-49 159v329h186v-310q0 -39 19.5 -60t53.5 -21q35 0 57 21t22 53v317q63 0 96.5 11.5t46.5 36.5t13 66h140q0 -63 -27 -116.5t-83 -70.5v-460h-172l-6 62q-26 -33 -68 -53t-90 -20z" />
    <glyph glyph-name="uni01C4" unicode="&#x1c4;" horiz-adv-x="1432" 
d="M83 0v700h302q105 0 185.5 -45t126 -124t45.5 -181t-45.5 -181t-126 -124t-185.5 -45h-302zM380 529h-99v-358h99q48 0 84.5 22.5t57 63t20.5 93.5t-20.5 93.5t-57 63t-84.5 22.5zM798 0v129l296 392h-270v179h538v-128l-302 -403h313v-169h-575zM1036 754l-140 109
l54 67l136 -67l136 67l55 -67l-141 -109h-100z" />
    <glyph glyph-name="uni01C5" unicode="&#x1c5;" horiz-adv-x="1362" 
d="M83 0v700h302q105 0 185.5 -45t126 -124t45.5 -181t-45.5 -181t-126 -124t-185.5 -45h-302zM380 529h-99v-358h99q48 0 84.5 22.5t57 63t20.5 93.5t-20.5 93.5t-57 63t-84.5 22.5zM832 0v94l231 291h-231v148h466v-100l-218 -285h228v-148h-476zM1022 606l-155 137l66 57
l139 -83l139 83l67 -57l-156 -137h-100z" />
    <glyph glyph-name="uni01C6" unicode="&#x1c6;" horiz-adv-x="1243" 
d="M264 -11q-67 0 -119.5 35.5t-82.5 98t-30 143.5t30 143.5t83.5 98.5t121.5 36q44 0 82.5 -15.5t64.5 -41.5v253h188v-740h-170l-6 53q-26 -29 -69 -46.5t-93 -17.5zM317 142q48 0 75 33t27 91q0 59 -27 92t-75 33t-75 -33t-27 -92q0 -58 27 -91t75 -33zM713 0v94l231 291
h-231v148h466v-100l-218 -285h228v-148h-476zM904 606l-155 137l66 57l139 -83l139 83l67 -57l-156 -137h-100z" />
    <glyph glyph-name="uni01C7" unicode="&#x1c7;" horiz-adv-x="1289" 
d="M83 0v700h198v-529h305v-171h-503zM877 -10q-83 0 -140 33t-90 92l111 115q21 -32 43.5 -48.5t48.5 -16.5q29 0 46.5 20t17.5 52v293h-129v170h428v-170h-108v-317q0 -70 -30.5 -120t-82 -76.5t-115.5 -26.5z" />
    <glyph glyph-name="uni01C8" unicode="&#x1c8;" horiz-adv-x="952" 
d="M83 0v700h198v-529h305v-171h-503zM789 634q-51 0 -79 23.5t-28 66.5q0 40 28.5 65.5t78.5 25.5t78.5 -23.5t28.5 -67.5q0 -40 -28.5 -65t-78.5 -25zM642 -215l-71 144q49 0 75.5 10.5t36.5 39t10 80.5v474h187v-518q0 -124 -60 -177t-178 -53z" />
    <glyph glyph-name="uni01C9" unicode="&#x1c9;" horiz-adv-x="652" 
d="M71 0v740h186v-740h-186zM490 634q-51 0 -79 23.5t-28 66.5q0 40 28.5 65.5t78.5 25.5t78.5 -23.5t28.5 -67.5q0 -40 -28.5 -65t-78.5 -25zM343 -215l-71 144q49 0 75.5 10.5t36.5 39t10 80.5v474h187v-518q0 -124 -60 -177t-178 -53z" />
    <glyph glyph-name="uni01CA" unicode="&#x1ca;" horiz-adv-x="1488" 
d="M83 0v700h177l292 -401q-5 44 -8 80t-4.5 77t-0.5 97v147h191v-700h-179l-286 391q4 -34 6 -60.5t2.5 -55t0.5 -67.5v-208h-191zM1077 -10q-83 0 -140 33t-90 92l111 115q21 -32 43.5 -48.5t48.5 -16.5q29 0 46.5 20t17.5 52v293h-129v170h428v-170h-108v-317
q0 -70 -30.5 -120t-82 -76.5t-115.5 -26.5z" />
    <glyph glyph-name="uni01CB" unicode="&#x1cb;" horiz-adv-x="1151" 
d="M83 0v700h177l292 -401q-5 44 -8 80t-4.5 77t-0.5 97v147h191v-700h-179l-286 391q4 -34 6 -60.5t2.5 -55t0.5 -67.5v-208h-191zM989 634q-51 0 -79 23.5t-28 66.5q0 40 28.5 65.5t78.5 25.5t78.5 -23.5t28.5 -67.5q0 -40 -28.5 -65t-78.5 -25zM842 -215l-71 144
q49 0 75.5 10.5t36.5 39t10 80.5v474h187v-518q0 -124 -60 -177t-178 -53z" />
    <glyph glyph-name="uni01CC" unicode="&#x1cc;" horiz-adv-x="992" 
d="M70 0v533h174l5 -57q27 31 69 49.5t88 18.5q90 0 138 -55.5t48 -160.5v-328h-186v313q0 79 -70 78q-35 0 -57 -21t-22 -52v-318h-187zM829 634q-51 0 -79 23.5t-28 66.5q0 40 28.5 65.5t78.5 25.5t78.5 -23.5t28.5 -67.5q0 -40 -28.5 -65t-78.5 -25zM682 -215l-71 144
q49 0 75.5 10.5t36.5 39t10 80.5v474h187v-518q0 -124 -60 -177t-178 -53z" />
    <glyph glyph-name="uni01CD" unicode="&#x1cd;" horiz-adv-x="692" 
d="M-12 0l279 700h160l277 -700h-197l-43 116h-240l-43 -116h-193zM301 325l-26 -69h137l-25 69q-14 37 -24 66t-18 60q-9 -31 -19.5 -59.5zM296 754l-140 109l54 67l136 -67l136 67l55 -67l-141 -109h-100z" />
    <glyph glyph-name="uni01CE" unicode="&#x1ce;" horiz-adv-x="671" 
d="M263 -9q-66 0 -118.5 35.5t-83 98t-30.5 142.5q0 82 30 144.5t83 97.5t122 35q51 0 88.5 -18.5t63.5 -49.5v57h183v-533h-187v56q-27 -29 -65 -47t-86 -18zM316 144q48 0 75.5 32.5t27.5 90.5t-27.5 91t-75.5 33q-47 0 -74 -33t-27 -91t27 -90.5t74 -32.5zM286 606
l-155 137l66 57l139 -83l139 83l67 -57l-156 -137h-100z" />
    <glyph glyph-name="uni01CF" unicode="&#x1cf;" horiz-adv-x="590" 
d="M75 0v163h121v375h-121v162h440v-162h-121v-375h121v-163h-440zM245 754l-140 109l54 67l136 -67l136 67l55 -67l-141 -109h-100z" />
    <glyph glyph-name="uni01D0" unicode="&#x1d0;" horiz-adv-x="310" 
d="M62 0v533h186v-533h-186zM105 606l-155 137l66 57l139 -83l139 83l67 -57l-156 -137h-100z" />
    <glyph glyph-name="uni01D1" unicode="&#x1d1;" horiz-adv-x="825" 
d="M413 -10q-81 0 -149 27t-118 76t-77.5 115.5t-27.5 145.5t27.5 145.5t77.5 115.5t118 76t149 27t149 -27t117.5 -76t77 -115.5t27.5 -145.5t-27.5 -145.5t-77 -115.5t-117.5 -76t-149 -27zM413 174q49 0 87 23.5t60 64t22 92.5t-22 93t-60 64t-87 23t-87.5 -23
t-60.5 -63.5t-22 -93.5q0 -52 22 -92.5t60.5 -64t87.5 -23.5zM363 754l-140 109l54 67l136 -67l136 67l55 -67l-141 -109h-100z" />
    <glyph glyph-name="uni01D2" unicode="&#x1d2;" horiz-adv-x="653" 
d="M327 -10q-85 0 -152 36t-105 98.5t-38 142.5t38 143t105 98.5t152 35.5t151.5 -35.5t104.5 -98.5t38 -143t-38 -142.5t-104.5 -98.5t-151.5 -36zM327 147q46 0 76 34t30 86q0 53 -30 87t-76 34q-47 0 -77 -34t-30 -87q0 -52 30 -86t77 -34zM276 606l-155 137l66 57
l139 -83l139 83l67 -57l-156 -137h-100z" />
    <glyph glyph-name="uni01D3" unicode="&#x1d3;" horiz-adv-x="777" 
d="M388 -6q-89 0 -158 35.5t-109 97.5t-40 142v431h200v-422q0 -49 30.5 -81t76.5 -32q49 0 81 32t32 81v422h194v-431q0 -80 -39.5 -142t-109 -97.5t-158.5 -35.5zM338 754l-140 109l54 67l136 -67l136 67l55 -67l-141 -109h-100z" />
    <glyph glyph-name="uni01D4" unicode="&#x1d4;" horiz-adv-x="658" 
d="M250 -11q-90 0 -139 56t-49 159v329h186v-310q0 -39 19.5 -60t53.5 -21q35 0 57 21t22 53v317h186v-533h-172l-6 63q-27 -34 -68.5 -54t-89.5 -20zM280 606l-155 137l66 57l139 -83l139 83l67 -57l-156 -137h-100z" />
    <glyph glyph-name="Gcaron" unicode="&#x1e6;" horiz-adv-x="789" 
d="M414 -10q-117 0 -200.5 47t-128 129.5t-44.5 187.5t48.5 187.5t135.5 129.5t202 47q89 0 161.5 -32.5t116.5 -81.5l-118 -126q-33 31 -71.5 50t-91.5 19q-51 0 -91.5 -25t-64 -68.5t-23.5 -99.5q0 -55 24.5 -99t66.5 -69t96 -25q52 0 88 29t42 74h-157v144h338
q1 -11 2.5 -33.5t2 -44.5t0.5 -31q0 -90 -43.5 -160t-119 -109.5t-171.5 -39.5zM366 754l-140 109l54 67l136 -67l136 67l55 -67l-141 -109h-100z" />
    <glyph glyph-name="gcaron" unicode="&#x1e7;" horiz-adv-x="678" 
d="M317 -230q-69 0 -137 19.5t-111 51.5l63 126q33 -21 71.5 -33t83.5 -12q72 0 105 30.5t33 96.5v15q-27 -24 -65.5 -38.5t-81.5 -14.5q-72 0 -127.5 32.5t-87 90.5t-31.5 137q0 80 31 141.5t85.5 96.5t124.5 35q50 0 92.5 -17t68.5 -44l4 50h174v-484q0 -134 -78.5 -206.5
t-216.5 -72.5zM322 148q50 0 79 32t29 89t-29 89.5t-79 32.5t-78.5 -32.5t-28.5 -89.5t28.5 -89t78.5 -32zM289 606l-155 137l66 57l139 -83l139 83l67 -57l-156 -137h-100z" />
    <glyph glyph-name="uni01EA" unicode="&#x1ea;" horiz-adv-x="825" 
d="M413 -10q-81 0 -149 27t-118 76t-77.5 115.5t-27.5 145.5t27.5 145.5t77.5 115.5t118 76t149 27t149 -27t117.5 -76t77 -115.5t27.5 -145.5q0 -107 -49.5 -190.5t-134.5 -128.5q-34 -22 -60.5 -48t-26.5 -57q0 -13 7 -22t19 -9q17 0 31 23l76 -56q-17 -33 -51.5 -58
t-81.5 -25q-54 0 -87 32.5t-33 82.5q0 27 9.5 49.5t25.5 42.5h-15zM413 174q49 0 87 23.5t60 64t22 92.5t-22 93t-60 64t-87 23t-87.5 -23t-60.5 -63.5t-22 -93.5q0 -52 22 -92.5t60.5 -64t87.5 -23.5z" />
    <glyph glyph-name="uni01EB" unicode="&#x1eb;" horiz-adv-x="653" 
d="M380 -207q-53 0 -84 32t-31 78q0 25 10.5 46.5t29.5 41.5q-80 4 -141.5 41t-96.5 97.5t-35 137.5q0 80 38 143t105 98.5t152 35.5t151.5 -35.5t104.5 -98.5t38 -143q0 -85 -43 -150.5t-115 -98.5q-37 -22 -57.5 -41t-20.5 -40q0 -14 6.5 -21.5t16.5 -7.5q17 0 33 23
l76 -56q-17 -29 -51 -55.5t-86 -26.5zM327 147q46 0 76 34t30 86q0 53 -30 87t-76 34q-47 0 -77 -34t-30 -87q0 -52 30 -86t77 -34z" />
    <glyph glyph-name="uni01F1" unicode="&#x1f1;" horiz-adv-x="1432" 
d="M83 0v700h302q105 0 185.5 -45t126 -124t45.5 -181t-45.5 -181t-126 -124t-185.5 -45h-302zM380 529h-99v-358h99q48 0 84.5 22.5t57 63t20.5 93.5t-20.5 93.5t-57 63t-84.5 22.5zM798 0v129l296 392h-270v179h538v-128l-302 -403h313v-169h-575z" />
    <glyph glyph-name="uni01F2" unicode="&#x1f2;" horiz-adv-x="1362" 
d="M83 0v700h302q105 0 185.5 -45t126 -124t45.5 -181t-45.5 -181t-126 -124t-185.5 -45h-302zM380 529h-99v-358h99q48 0 84.5 22.5t57 63t20.5 93.5t-20.5 93.5t-57 63t-84.5 22.5zM832 0v94l231 291h-231v148h466v-100l-218 -285h228v-148h-476z" />
    <glyph glyph-name="Aringacute" unicode="&#x1fa;" horiz-adv-x="692" 
d="M-12 0l279 700h160l277 -700h-197l-43 116h-240l-43 -116h-193zM301 325l-26 -69h137l-25 69q-14 37 -24 66t-18 60q-9 -31 -19.5 -59.5zM346 671q-38 0 -70.5 18t-52.5 47.5t-20 64.5q0 38 19.5 69.5t52 50.5t71.5 19q38 0 70.5 -19t52 -50.5t19.5 -69.5
q0 -35 -19.5 -64.5t-52 -47.5t-70.5 -18zM346 763q15 0 26 11t11 27q0 17 -11.5 27.5t-25.5 10.5q-15 0 -26 -11t-11 -27t11 -27t26 -11zM248 952l-40 94l220 115l58 -129z" />
    <glyph glyph-name="aringacute" unicode="&#x1fb;" horiz-adv-x="671" 
d="M263 -9q-66 0 -118.5 35.5t-83 98t-30.5 142.5q0 82 30 144.5t83 97.5t122 35q51 0 88.5 -18.5t63.5 -49.5v57h183v-533h-187v56q-27 -29 -65 -47t-86 -18zM316 144q48 0 75.5 32.5t27.5 90.5t-27.5 91t-75.5 33q-47 0 -74 -33t-27 -91t27 -90.5t74 -32.5zM336 604
q-33 0 -62 16.5t-46.5 44t-17.5 60.5t17 61t46 44.5t63 16.5q35 0 63.5 -16.5t45.5 -44.5t17 -61t-17.5 -60.5t-46 -44t-62.5 -16.5zM336 694q14 0 23 8.5t9 22.5t-9 23t-23 9q-13 0 -22 -9t-9 -23q0 -13 9 -22t22 -9zM254 876l-54 82l195 150l78 -115z" />
    <glyph glyph-name="AEacute" unicode="&#x1fc;" horiz-adv-x="1123" 
d="M-16 0l488 700h600v-161h-328v-109h283v-152h-283v-117h328v-161h-518v138h-256l-95 -138h-219zM554 290v223l-153 -223h153zM655 744l-40 94l220 115l58 -129z" />
    <glyph glyph-name="aeacute" unicode="&#x1fd;" horiz-adv-x="901" 
d="M214 -10q-52 0 -93.5 20t-65.5 55.5t-24 83.5q0 80 61 121t180 41h78v11q0 39 -20.5 54.5t-61.5 15.5q-38 0 -62.5 -13t-45.5 -45l-107 105q35 46 100 75.5t147 29.5q51 0 92 -12t69 -38q33 24 73.5 37t86.5 13q76 0 133.5 -35.5t89 -97.5t30.5 -141l-1 -50h-344
q16 -32 51.5 -50.5t88.5 -18.5q34 0 59.5 8t53.5 28l78 -121q-53 -42 -105.5 -59t-106.5 -17q-74 0 -132 24t-96 67q-32 -44 -89 -67.5t-117 -23.5zM624 393q-45 0 -72 -21.5t-34 -60.5h188v9q-1 33 -23.5 53t-58.5 20zM268 120q31 0 57.5 14t41.5 40q-7 22 -10 46h-73
q-33 0 -50.5 -14.5t-17.5 -39.5q0 -20 14.5 -33t37.5 -13zM378 581l-54 82l195 150l78 -115z" />
    <glyph glyph-name="Oslashacute" unicode="&#x1fe;" horiz-adv-x="823" 
d="M146 -33l-63 53l61 74q-48 49 -75.5 115.5t-27.5 144.5q0 79 27.5 145.5t77.5 115.5t117.5 76t149.5 27q56 0 106 -13t93 -38l60 74l68 -47l-63 -77q51 -49 79 -116t28 -147q0 -79 -27.5 -145.5t-77.5 -115.5t-117.5 -76t-149.5 -27q-57 0 -108.5 14t-94.5 40zM243 354
q0 -59 28 -104l218 267q-35 17 -76 17q-50 0 -88 -23t-60 -63.5t-22 -93.5zM413 174q49 0 87 23.5t60 64t22 92.5q0 62 -31 108l-219 -268q36 -20 81 -20zM313 744l-40 94l220 115l58 -129z" />
    <glyph glyph-name="oslashacute" unicode="&#x1ff;" horiz-adv-x="653" 
d="M126 -35l-66 48l51 60q-38 37 -58.5 86.5t-20.5 107.5q0 80 38 143t105 98.5t152 35.5q83 0 151 -35l49 58l67 -49l-50 -59q36 -36 56.5 -85t20.5 -107q0 -80 -38 -142.5t-104.5 -98.5t-151.5 -36q-83 0 -150 35zM220 267q0 -28 10 -53l139 165q-20 9 -42 9
q-47 0 -77 -34t-30 -87zM327 147q46 0 76 34t30 86q0 27 -9 50l-137 -162q19 -8 40 -8zM244 581l-54 82l195 150l78 -115z" />
    <glyph glyph-name="uni0200" unicode="&#x200;" horiz-adv-x="692" 
d="M-12 0l279 700h160l277 -700h-197l-43 116h-240l-43 -116h-193zM301 325l-26 -69h137l-25 69q-14 37 -24 66t-18 60q-9 -31 -19.5 -59.5zM474 739l-172 130l88 102l147 -158zM242 735l-183 126l87 107l157 -155z" />
    <glyph glyph-name="uni0201" unicode="&#x201;" horiz-adv-x="671" 
d="M263 -9q-66 0 -118.5 35.5t-83 98t-30.5 142.5q0 82 30 144.5t83 97.5t122 35q51 0 88.5 -18.5t63.5 -49.5v57h183v-533h-187v56q-27 -29 -65 -47t-86 -18zM316 144q48 0 75.5 32.5t27.5 90.5t-27.5 91t-75.5 33q-47 0 -74 -33t-27 -91t27 -90.5t74 -32.5zM429 578
l-167 160l108 85l142 -199zM221 582l-180 147l101 94l157 -190z" />
    <glyph glyph-name="uni0202" unicode="&#x202;" horiz-adv-x="692" 
d="M-12 0l279 700h160l277 -700h-197l-43 116h-240l-43 -116h-193zM301 325l-26 -69h137l-25 69q-14 37 -24 66t-18 60q-9 -31 -19.5 -59.5zM275 761l-116 12q15 73 65.5 116t121.5 43t121.5 -43t65.5 -116l-116 -12q-9 26 -28.5 41.5t-42.5 15.5t-42.5 -15.5t-28.5 -41.5z
" />
    <glyph glyph-name="uni0203" unicode="&#x203;" horiz-adv-x="671" 
d="M263 -9q-66 0 -118.5 35.5t-83 98t-30.5 142.5q0 82 30 144.5t83 97.5t122 35q51 0 88.5 -18.5t63.5 -49.5v57h183v-533h-187v56q-27 -29 -65 -47t-86 -18zM316 144q48 0 75.5 32.5t27.5 90.5t-27.5 91t-75.5 33q-47 0 -74 -33t-27 -91t27 -90.5t74 -32.5zM265 616
l-116 12q15 76 65.5 119.5t121.5 43.5t121.5 -43.5t65.5 -119.5l-116 -12q-9 29 -28.5 44.5t-42.5 15.5q-22 0 -42 -15.5t-29 -44.5z" />
    <glyph glyph-name="uni0204" unicode="&#x204;" horiz-adv-x="659" 
d="M83 0v700h509v-163h-318v-105h278v-154h-278v-115h333v-163h-524zM478 739l-172 130l88 102l147 -158zM246 735l-183 126l87 107l157 -155z" />
    <glyph glyph-name="uni0205" unicode="&#x205;" horiz-adv-x="586" 
d="M327 -10q-91 0 -157.5 35.5t-102 98t-35.5 142.5q0 81 34.5 144t96 98.5t139.5 36.5q77 -1 135.5 -36.5t91 -97t30.5 -141.5l-1 -42h-346q14 -36 48.5 -56.5t87.5 -20.5q31 0 54.5 8t50.5 28l86 -121q-53 -42 -105.5 -59t-106.5 -17zM306 393q-80 0 -99 -72h184
q-1 32 -24.5 52t-60.5 20zM395 578l-167 160l108 85l142 -199zM187 582l-180 147l101 94l157 -190z" />
    <glyph glyph-name="uni0206" unicode="&#x206;" horiz-adv-x="659" 
d="M83 0v700h509v-163h-318v-105h278v-154h-278v-115h333v-163h-524zM279 761l-116 12q15 73 65.5 116t121.5 43t121.5 -43t65.5 -116l-116 -12q-9 26 -28.5 41.5t-42.5 15.5t-42.5 -15.5t-28.5 -41.5z" />
    <glyph glyph-name="uni0207" unicode="&#x207;" horiz-adv-x="586" 
d="M327 -10q-91 0 -157.5 35.5t-102 98t-35.5 142.5q0 81 34.5 144t96 98.5t139.5 36.5q77 -1 135.5 -36.5t91 -97t30.5 -141.5l-1 -42h-346q14 -36 48.5 -56.5t87.5 -20.5q31 0 54.5 8t50.5 28l86 -121q-53 -42 -105.5 -59t-106.5 -17zM306 393q-80 0 -99 -72h184
q-1 32 -24.5 52t-60.5 20zM231 616l-116 12q15 76 65.5 119.5t121.5 43.5t121.5 -43.5t65.5 -119.5l-116 -12q-9 29 -28.5 44.5t-42.5 15.5q-22 0 -42 -15.5t-29 -44.5z" />
    <glyph glyph-name="uni0208" unicode="&#x208;" horiz-adv-x="590" 
d="M75 0v163h121v375h-121v162h440v-162h-121v-375h121v-163h-440zM423 739l-172 130l88 102l147 -158zM191 735l-183 126l87 107l157 -155z" />
    <glyph glyph-name="uni0209" unicode="&#x209;" horiz-adv-x="310" 
d="M62 0v533h186v-533h-186zM248 578l-167 160l108 85l142 -199zM40 582l-180 147l101 94l157 -190z" />
    <glyph glyph-name="uni020A" unicode="&#x20a;" horiz-adv-x="590" 
d="M75 0v163h121v375h-121v162h440v-162h-121v-375h121v-163h-440zM224 761l-116 12q15 73 65.5 116t121.5 43t121.5 -43t65.5 -116l-116 -12q-9 26 -28.5 41.5t-42.5 15.5t-42.5 -15.5t-28.5 -41.5z" />
    <glyph glyph-name="uni020B" unicode="&#x20b;" horiz-adv-x="310" 
d="M62 0v533h186v-533h-186zM84 616l-116 12q15 76 65.5 119.5t121.5 43.5t121.5 -43.5t65.5 -119.5l-116 -12q-9 29 -28.5 44.5t-42.5 15.5q-22 0 -42 -15.5t-29 -44.5z" />
    <glyph glyph-name="uni020C" unicode="&#x20c;" horiz-adv-x="825" 
d="M413 -10q-81 0 -149 27t-118 76t-77.5 115.5t-27.5 145.5t27.5 145.5t77.5 115.5t118 76t149 27t149 -27t117.5 -76t77 -115.5t27.5 -145.5t-27.5 -145.5t-77 -115.5t-117.5 -76t-149 -27zM413 174q49 0 87 23.5t60 64t22 92.5t-22 93t-60 64t-87 23t-87.5 -23
t-60.5 -63.5t-22 -93.5q0 -52 22 -92.5t60.5 -64t87.5 -23.5zM541 739l-172 130l88 102l147 -158zM309 735l-183 126l87 107l157 -155z" />
    <glyph glyph-name="uni020D" unicode="&#x20d;" horiz-adv-x="653" 
d="M327 -10q-85 0 -152 36t-105 98.5t-38 142.5t38 143t105 98.5t152 35.5t151.5 -35.5t104.5 -98.5t38 -143t-38 -142.5t-104.5 -98.5t-151.5 -36zM327 147q46 0 76 34t30 86q0 53 -30 87t-76 34q-47 0 -77 -34t-30 -87q0 -52 30 -86t77 -34zM419 578l-167 160l108 85
l142 -199zM211 582l-180 147l101 94l157 -190z" />
    <glyph glyph-name="uni020E" unicode="&#x20e;" horiz-adv-x="825" 
d="M413 -10q-81 0 -149 27t-118 76t-77.5 115.5t-27.5 145.5t27.5 145.5t77.5 115.5t118 76t149 27t149 -27t117.5 -76t77 -115.5t27.5 -145.5t-27.5 -145.5t-77 -115.5t-117.5 -76t-149 -27zM413 174q49 0 87 23.5t60 64t22 92.5t-22 93t-60 64t-87 23t-87.5 -23
t-60.5 -63.5t-22 -93.5q0 -52 22 -92.5t60.5 -64t87.5 -23.5zM342 761l-116 12q15 73 65.5 116t121.5 43t121.5 -43t65.5 -116l-116 -12q-9 26 -28.5 41.5t-42.5 15.5t-42.5 -15.5t-28.5 -41.5z" />
    <glyph glyph-name="uni020F" unicode="&#x20f;" horiz-adv-x="653" 
d="M327 -10q-85 0 -152 36t-105 98.5t-38 142.5t38 143t105 98.5t152 35.5t151.5 -35.5t104.5 -98.5t38 -143t-38 -142.5t-104.5 -98.5t-151.5 -36zM327 147q46 0 76 34t30 86q0 53 -30 87t-76 34q-47 0 -77 -34t-30 -87q0 -52 30 -86t77 -34zM255 616l-116 12
q15 76 65.5 119.5t121.5 43.5t121.5 -43.5t65.5 -119.5l-116 -12q-9 29 -28.5 44.5t-42.5 15.5q-22 0 -42 -15.5t-29 -44.5z" />
    <glyph glyph-name="uni0210" unicode="&#x210;" horiz-adv-x="705" 
d="M83 0v700h323q71 0 126.5 -29t87.5 -79.5t32 -114.5q0 -72 -34 -127.5t-91 -84.5l154 -265h-223l-134 238h-55v-238h-186zM269 380h110q38 0 59 22.5t21 60.5q0 36 -22.5 57t-65.5 21h-102v-161zM468 739l-172 130l88 102l147 -158zM236 735l-183 126l87 107l157 -155z
" />
    <glyph glyph-name="uni0211" unicode="&#x211;" horiz-adv-x="478" 
d="M70 0v533h174l5 -75q27 39 67.5 62.5t87.5 23.5q18 0 34 -2.5t30 -6.5l-51 -206q-10 7 -30.5 12.5t-43.5 5.5q-40 0 -63 -25t-23 -67v-255h-187zM364 578l-167 160l108 85l142 -199zM156 582l-180 147l101 94l157 -190z" />
    <glyph glyph-name="uni0212" unicode="&#x212;" horiz-adv-x="705" 
d="M83 0v700h323q71 0 126.5 -29t87.5 -79.5t32 -114.5q0 -72 -34 -127.5t-91 -84.5l154 -265h-223l-134 238h-55v-238h-186zM269 380h110q38 0 59 22.5t21 60.5q0 36 -22.5 57t-65.5 21h-102v-161zM269 761l-116 12q15 73 65.5 116t121.5 43t121.5 -43t65.5 -116l-116 -12
q-9 26 -28.5 41.5t-42.5 15.5t-42.5 -15.5t-28.5 -41.5z" />
    <glyph glyph-name="uni0213" unicode="&#x213;" horiz-adv-x="478" 
d="M70 0v533h174l5 -75q27 39 67.5 62.5t87.5 23.5q18 0 34 -2.5t30 -6.5l-51 -206q-10 7 -30.5 12.5t-43.5 5.5q-40 0 -63 -25t-23 -67v-255h-187zM200 616l-116 12q15 76 65.5 119.5t121.5 43.5t121.5 -43.5t65.5 -119.5l-116 -12q-9 29 -28.5 44.5t-42.5 15.5
q-22 0 -42 -15.5t-29 -44.5z" />
    <glyph glyph-name="uni0214" unicode="&#x214;" horiz-adv-x="777" 
d="M388 -6q-89 0 -158 35.5t-109 97.5t-40 142v431h200v-422q0 -49 30.5 -81t76.5 -32q49 0 81 32t32 81v422h194v-431q0 -80 -39.5 -142t-109 -97.5t-158.5 -35.5zM517 739l-172 130l88 102l147 -158zM285 735l-183 126l87 107l157 -155z" />
    <glyph glyph-name="uni0215" unicode="&#x215;" horiz-adv-x="658" 
d="M250 -11q-90 0 -139 56t-49 159v329h186v-310q0 -39 19.5 -60t53.5 -21q35 0 57 21t22 53v317h186v-533h-172l-6 63q-27 -34 -68.5 -54t-89.5 -20zM422 578l-167 160l108 85l142 -199zM214 582l-180 147l101 94l157 -190z" />
    <glyph glyph-name="uni0216" unicode="&#x216;" horiz-adv-x="777" 
d="M388 -6q-89 0 -158 35.5t-109 97.5t-40 142v431h200v-422q0 -49 30.5 -81t76.5 -32q49 0 81 32t32 81v422h194v-431q0 -80 -39.5 -142t-109 -97.5t-158.5 -35.5zM317 761l-116 12q15 73 65.5 116t121.5 43t121.5 -43t65.5 -116l-116 -12q-9 26 -28.5 41.5t-42.5 15.5
t-42.5 -15.5t-28.5 -41.5z" />
    <glyph glyph-name="uni0217" unicode="&#x217;" horiz-adv-x="658" 
d="M250 -11q-90 0 -139 56t-49 159v329h186v-310q0 -39 19.5 -60t53.5 -21q35 0 57 21t22 53v317h186v-533h-172l-6 63q-27 -34 -68.5 -54t-89.5 -20zM259 616l-116 12q15 76 65.5 119.5t121.5 43.5t121.5 -43.5t65.5 -119.5l-116 -12q-9 29 -28.5 44.5t-42.5 15.5
q-22 0 -42 -15.5t-29 -44.5z" />
    <glyph glyph-name="uni0218" unicode="&#x218;" horiz-adv-x="638" 
d="M323 -10q-113 0 -188 37.5t-128 103.5l116 131q50 -65 103 -86.5t103 -21.5q34 0 55.5 11t21.5 35q0 23 -21.5 36.5t-51 21.5t-55.5 14q-119 27 -177 80.5t-58 144.5q0 49 22.5 90t61.5 70.5t88 45t103 15.5q111 0 174 -32t101 -87l-118 -114q-32 35 -70.5 51.5
t-78.5 16.5q-38 0 -60 -11t-22 -34q0 -19 18.5 -31t44.5 -19t48 -11q74 -15 130 -41.5t88 -71t32 -113.5q0 -75 -37.5 -126.5t-101 -78t-143.5 -26.5zM283 -316l-48 60q14 5 33 14t33.5 21t14.5 25q0 9 -7 14.5t-20 11.5q-22 10 -32 24t-10 36q0 37 25 55t62 18
q46 0 78.5 -26.5t32.5 -80.5q0 -67 -43.5 -109.5t-118.5 -62.5z" />
    <glyph glyph-name="uni0219" unicode="&#x219;" horiz-adv-x="502" 
d="M252 -10q-83 0 -145.5 26t-98.5 67l110 94q31 -30 71.5 -43.5t71.5 -13.5q47 0 47 31q0 17 -17 25q-17 9 -84 26q-86 22 -131 63q-22 21 -34.5 48t-12.5 61q0 53 31.5 91t82.5 58.5t108 20.5q70 0 129 -21t103 -58l-95 -106q-26 22 -63.5 40t-68.5 18q-49 0 -49 -31
q0 -19 21 -30q9 -5 31 -12.5t62 -18.5q46 -13 80 -29.5t55 -39.5q31 -35 31 -82q0 -54 -30.5 -95.5t-83.5 -65t-121 -23.5zM196 -316l-48 60q14 5 33 13.5t33.5 20.5t14.5 27q0 9 -7 14t-20 11q-22 10 -32 24t-10 36q0 37 26 55t66 18q44 0 75 -27.5t31 -83.5
q0 -58 -43.5 -99t-118.5 -69z" />
    <glyph glyph-name="uni021A" unicode="&#x21a;" horiz-adv-x="691" 
d="M244 0v529h-213v171h629v-171h-218v-529h-198zM289 -316l-48 60q14 5 33 14t33.5 21t14.5 25q0 9 -7 14.5t-20 11.5q-22 10 -32 24t-10 36q0 37 25 55t62 18q46 0 78.5 -26.5t32.5 -80.5q0 -67 -43.5 -109.5t-118.5 -62.5z" />
    <glyph glyph-name="uni021B" unicode="&#x21b;" horiz-adv-x="405" 
d="M105 0v375h-88v158h88v135h186v-135h94v-158h-94v-375h-186zM146 -316l-48 60q14 5 33 13.5t33.5 20.5t14.5 27q0 9 -7 14t-20 11q-22 10 -32 24t-10 36q0 37 26 55t66 18q44 0 75 -27.5t31 -83.5q0 -58 -43.5 -99t-118.5 -69z" />
    <glyph glyph-name="uni022A" unicode="&#x22a;" horiz-adv-x="825" 
d="M413 -10q-81 0 -149 27t-118 76t-77.5 115.5t-27.5 145.5t27.5 145.5t77.5 115.5t118 76t149 27t149 -27t117.5 -76t77 -115.5t27.5 -145.5t-27.5 -145.5t-77 -115.5t-117.5 -76t-149 -27zM413 174q49 0 87 23.5t60 64t22 92.5t-22 93t-60 64t-87 23t-87.5 -23
t-60.5 -63.5t-22 -93.5q0 -52 22 -92.5t60.5 -64t87.5 -23.5zM543 752q-46 0 -70.5 24.5t-24.5 69.5q0 41 25 67.5t70 26.5t69.5 -24.5t24.5 -69.5q0 -41 -25 -67.5t-69 -26.5zM282 752q-46 0 -70 24.5t-24 69.5q0 41 25 67.5t69 26.5q46 0 70.5 -24.5t24.5 -69.5
q0 -41 -25.5 -67.5t-69.5 -26.5zM227 998v112h371v-112h-371z" />
    <glyph glyph-name="uni022B" unicode="&#x22b;" horiz-adv-x="653" 
d="M327 -10q-85 0 -152 36t-105 98.5t-38 142.5t38 143t105 98.5t152 35.5t151.5 -35.5t104.5 -98.5t38 -143t-38 -142.5t-104.5 -98.5t-151.5 -36zM327 147q46 0 76 34t30 86q0 53 -30 87t-76 34q-47 0 -77 -34t-30 -87q0 -52 30 -86t77 -34zM456 627q-46 0 -70.5 24.5
t-24.5 69.5q0 42 26 68t69 26q46 0 70.5 -24t24.5 -70q0 -42 -26 -68t-69 -26zM197 627q-46 0 -70.5 24.5t-24.5 69.5q0 42 25.5 68t69.5 26q45 0 70 -24t25 -70q0 -42 -26 -68t-69 -26zM147 865v113h359v-113h-359z" />
    <glyph glyph-name="uni022C" unicode="&#x22c;" horiz-adv-x="825" 
d="M413 -10q-81 0 -149 27t-118 76t-77.5 115.5t-27.5 145.5t27.5 145.5t77.5 115.5t118 76t149 27t149 -27t117.5 -76t77 -115.5t27.5 -145.5t-27.5 -145.5t-77 -115.5t-117.5 -76t-149 -27zM413 174q49 0 87 23.5t60 64t22 92.5t-22 93t-60 64t-87 23t-87.5 -23
t-60.5 -63.5t-22 -93.5q0 -52 22 -92.5t60.5 -64t87.5 -23.5zM491 768q-18 0 -36.5 5.5t-44.5 16.5q-19 9 -31.5 13.5t-21.5 4.5q-31 0 -31 -39h-110q0 71 36 113t98 42q16 0 32.5 -4.5t46.5 -18.5q17 -9 27 -13t19 -4q12 0 19 11t6 29h110q0 -44 -15 -79.5t-42 -56
t-62 -20.5zM227 998v112h371v-112h-371z" />
    <glyph glyph-name="uni022D" unicode="&#x22d;" horiz-adv-x="653" 
d="M327 -10q-85 0 -152 36t-105 98.5t-38 142.5t38 143t105 98.5t152 35.5t151.5 -35.5t104.5 -98.5t38 -143t-38 -142.5t-104.5 -98.5t-151.5 -36zM327 147q46 0 76 34t30 86q0 53 -30 87t-76 34q-47 0 -77 -34t-30 -87q0 -52 30 -86t77 -34zM402 613q-16 0 -35.5 5
t-45.5 23q-18 13 -29 18t-18 5q-15 0 -26 -10.5t-13 -32.5l-99 13q0 60 31.5 101.5t85.5 41.5q16 0 34.5 -5t44.5 -22q11 -8 24 -15.5t25 -7.5q13 0 24 10.5t13 32.5l98 -14q0 -38 -14.5 -70.5t-40 -52.5t-59.5 -20zM147 857v113h359v-113h-359z" />
    <glyph glyph-name="uni0230" unicode="&#x230;" horiz-adv-x="825" 
d="M413 -10q-81 0 -149 27t-118 76t-77.5 115.5t-27.5 145.5t27.5 145.5t77.5 115.5t118 76t149 27t149 -27t117.5 -76t77 -115.5t27.5 -145.5t-27.5 -145.5t-77 -115.5t-117.5 -76t-149 -27zM413 174q49 0 87 23.5t60 64t22 92.5t-22 93t-60 64t-87 23t-87.5 -23
t-60.5 -63.5t-22 -93.5q0 -52 22 -92.5t60.5 -64t87.5 -23.5zM413 755q-51 0 -79 24t-28 67q0 39 28.5 65t78.5 26q51 0 79 -24t28 -67q0 -39 -28.5 -65t-78.5 -26zM227 998v112h371v-112h-371z" />
    <glyph glyph-name="uni0231" unicode="&#x231;" horiz-adv-x="653" 
d="M327 -10q-85 0 -152 36t-105 98.5t-38 142.5t38 143t105 98.5t152 35.5t151.5 -35.5t104.5 -98.5t38 -143t-38 -142.5t-104.5 -98.5t-151.5 -36zM327 147q46 0 76 34t30 86q0 53 -30 87t-76 34q-47 0 -77 -34t-30 -87q0 -52 30 -86t77 -34zM326 633q-51 0 -79 24t-28 67
q0 40 28.5 65.5t78.5 25.5t78.5 -24t28.5 -67q0 -40 -28.5 -65.5t-78.5 -25.5zM147 865v113h359v-113h-359z" />
    <glyph glyph-name="uni0232" unicode="&#x232;" horiz-adv-x="702" 
d="M261 0v310l-276 390h222l154 -221l140 221h216l-256 -388v-312h-200zM165 790v112h371v-112h-371z" />
    <glyph glyph-name="uni0233" unicode="&#x233;" horiz-adv-x="638" 
d="M128 -230l111 262l-234 501h208l89 -212q16 -37 25 -69q4 10 8 21.5t8 24.5l81 235h209l-230 -533l-94 -230h-181zM140 638v113h359v-113h-359z" />
    <glyph glyph-name="uni0237" unicode="&#x237;" horiz-adv-x="338" 
d="M29 -215l-71 144q49 0 75.5 10.5t36.5 39t10 80.5v474h186v-518q0 -124 -59.5 -177t-177.5 -53z" />
    <glyph glyph-name="uni0259" unicode="&#x259;" horiz-adv-x="586" 
d="M284 -11q-77 0 -135 35.5t-90 97.5t-32 141l1 42h346q-14 36 -48.5 57t-87.5 21q-31 0 -54.5 -8.5t-50.5 -28.5l-86 121q53 42 105.5 59t106.5 17q92 0 158 -35.5t101.5 -98t35.5 -142.5q0 -81 -35 -143.5t-96 -98.5t-139 -36zM281 141q39 0 64 18.5t34 53.5h-184
q1 -33 24.5 -52.5t61.5 -19.5z" />
    <glyph glyph-name="uni0272" unicode="&#x272;" horiz-adv-x="663" 
d="M29 -215l-71 144q49 0 75.5 9t36.5 32.5t10 67.5v495h174l4 -58q27 31 69 50t89 19q90 0 138 -55.5t48 -160.5v-328h-186v313q0 79 -70 78q-35 0 -57 -21t-22 -52v-304q-6 -229 -238 -229z" />
    <glyph glyph-name="uni02BB" unicode="&#x2bb;" horiz-adv-x="292" 
d="M151 410q-47 0 -79 36.5t-32 94.5q0 46 22.5 89t61.5 75.5t90 46.5l50 -61q-44 -18 -69.5 -45.5t-25.5 -47.5q0 -9 5.5 -19.5t22.5 -21.5q24 -16 34 -33.5t10 -39.5q0 -34 -25.5 -54t-64.5 -20z" />
    <glyph glyph-name="uni02BC" unicode="&#x2bc;" horiz-adv-x="273" 
d="M48 434l19 266h184l-85 -266h-118z" />
    <glyph glyph-name="uni02BE" unicode="&#x2be;" horiz-adv-x="219" 
d="M48 516v90q13 0 22 9t9 22q0 14 -9 23t-22 9v90q34 0 62.5 -16.5t46 -44.5t17.5 -61t-17.5 -60.5t-46.5 -44t-62 -16.5z" />
    <glyph glyph-name="uni02BF" unicode="&#x2bf;" horiz-adv-x="219" 
d="M169 516q-34 0 -62.5 16.5t-46 44t-17.5 60.5t17 61t45.5 44.5t62.5 16.5l1 -90q-14 0 -23 -9t-9 -23q0 -13 9 -22t23 -9v-90z" />
    <glyph glyph-name="circumflex" unicode="&#x2c6;" horiz-adv-x="500" 
d="M109 590l-66 57l157 137h100l157 -137l-66 -57l-141 83z" />
    <glyph glyph-name="caron" unicode="&#x2c7;" horiz-adv-x="500" 
d="M200 598l-155 137l66 57l139 -83l139 83l67 -57l-156 -137h-100z" />
    <glyph glyph-name="uni02C8" unicode="&#x2c8;" horiz-adv-x="231" 
d="M67 368v344h97v-344h-97z" />
    <glyph glyph-name="uni02CC" unicode="&#x2cc;" horiz-adv-x="264" 
d="M61 -147v344h141v-344h-141z" />
    <glyph glyph-name="breve" unicode="&#x2d8;" horiz-adv-x="402" 
d="M250 598q-71 0 -121.5 43t-65.5 120l116 12q9 -29 29 -44.5t42 -15.5q23 0 42.5 15.5t28.5 44.5l116 -12q-15 -77 -65.5 -120t-121.5 -43z" />
    <glyph glyph-name="dotaccent" unicode="&#x2d9;" horiz-adv-x="500" 
d="M250 625q-51 0 -79 24t-28 67q0 40 28.5 65.5t78.5 25.5t78.5 -24t28.5 -67q0 -40 -28.5 -65.5t-78.5 -25.5z" />
    <glyph glyph-name="ring" unicode="&#x2da;" horiz-adv-x="500" 
d="M250 596q-33 0 -62 16.5t-46.5 44t-17.5 60.5t17 61t46 44.5t63 16.5q35 0 63.5 -16.5t45.5 -44.5t17 -61t-17.5 -60.5t-46 -44t-62.5 -16.5zM250 686q14 0 23 8.5t9 22.5t-9 23t-23 9q-13 0 -22 -9t-9 -23q0 -13 9 -22t22 -9z" />
    <glyph glyph-name="ogonek" unicode="&#x2db;" horiz-adv-x="500" 
d="M250 -216q-54 0 -90 33t-36 82q0 103 176 150l43 -49q-41 -9 -69.5 -30t-28.5 -46q0 -24 24 -24q10 0 16 5.5t15 17.5l76 -56q-17 -29 -50 -56t-76 -27z" />
    <glyph glyph-name="tilde" unicode="&#x2dc;" horiz-adv-x="500" 
d="M326 605q-16 0 -35.5 5t-45.5 23q-18 13 -29 18t-18 5q-15 0 -26 -10.5t-13 -32.5l-99 13q0 60 31.5 101.5t85.5 41.5q16 0 34.5 -5t44.5 -22q11 -8 24 -15.5t25 -7.5q13 0 24 10.5t13 32.5l98 -14q0 -38 -14.5 -70.5t-40 -52.5t-59.5 -20z" />
    <glyph glyph-name="hungarumlaut" unicode="&#x2dd;" horiz-adv-x="500" 
d="M97 570l-82 46l141 199l108 -85zM305 574l-77 51l156 190l102 -94z" />
    <glyph glyph-name="gravecomb" unicode="&#x300;" 
d="M333 574l-219 117l77 114l196 -149z" />
    <glyph glyph-name="acutecomb" unicode="&#x301;" 
d="M168 573l-54 82l195 150l78 -115z" />
    <glyph glyph-name="uni0302" unicode="&#x302;" 
d="M109 590l-66 57l157 137h100l157 -137l-66 -57l-141 83z" />
    <glyph glyph-name="tildecomb" unicode="&#x303;" 
d="M326 605q-16 0 -35.5 5t-45.5 23q-18 13 -29 18t-18 5q-15 0 -26 -10.5t-13 -32.5l-99 13q0 60 31.5 101.5t85.5 41.5q16 0 34.5 -5t44.5 -22q11 -8 24 -15.5t25 -7.5q13 0 24 10.5t13 32.5l98 -14q0 -38 -14.5 -70.5t-40 -52.5t-59.5 -20z" />
    <glyph glyph-name="uni0304" unicode="&#x304;" 
d="M71 630v113h359v-113h-359z" />
    <glyph glyph-name="uni0306" unicode="&#x306;" 
d="M250 598q-71 0 -121.5 43t-65.5 120l116 12q9 -29 29 -44.5t42 -15.5q23 0 42.5 15.5t28.5 44.5l116 -12q-15 -77 -65.5 -120t-121.5 -43z" />
    <glyph glyph-name="uni0307" unicode="&#x307;" 
d="M250 625q-51 0 -79 24t-28 67q0 40 28.5 65.5t78.5 25.5t78.5 -24t28.5 -67q0 -40 -28.5 -65.5t-78.5 -25.5z" />
    <glyph glyph-name="uni0308" unicode="&#x308;" 
d="M380 619q-46 0 -70.5 24.5t-24.5 69.5q0 42 26 68t69 26q46 0 70.5 -24t24.5 -70q0 -42 -26 -68t-69 -26zM121 619q-46 0 -70.5 24.5t-24.5 69.5q0 42 25.5 68t69.5 26q45 0 70 -24t25 -70q0 -42 -26 -68t-69 -26z" />
    <glyph glyph-name="hookabovecomb" unicode="&#x309;" 
d="M224 582q-8 9 -14.5 20t-6.5 25t6.5 25.5t26.5 25.5q12 9 21 16t9 18q0 19 -31 19q-22 0 -45 -7t-47 -16l-27 94q23 12 59 22t78 10q57 0 94 -25.5t37 -71.5q0 -36 -15 -54.5t-31 -29.5t-27.5 -21t-11.5 -20q0 -6 3 -13z" />
    <glyph glyph-name="uni030A" unicode="&#x30a;" 
d="M250 596q-33 0 -62 16.5t-46.5 44t-17.5 60.5t17 61t46 44.5t63 16.5q35 0 63.5 -16.5t45.5 -44.5t17 -61t-17.5 -60.5t-46 -44t-62.5 -16.5zM250 686q14 0 23 8.5t9 22.5t-9 23t-23 9q-13 0 -22 -9t-9 -23q0 -13 9 -22t22 -9z" />
    <glyph glyph-name="uni030B" unicode="&#x30b;" 
d="M97 570l-82 46l141 199l108 -85zM305 574l-77 51l156 190l102 -94z" />
    <glyph glyph-name="uni030C" unicode="&#x30c;" 
d="M200 598l-155 137l66 57l139 -83l139 83l67 -57l-156 -137h-100z" />
    <glyph glyph-name="uni030F" unicode="&#x30f;" 
d="M403 570l-167 160l108 85l142 -199zM195 574l-180 147l101 94l157 -190z" />
    <glyph glyph-name="uni0311" unicode="&#x311;" 
d="M179 608l-116 12q15 76 65.5 119.5t121.5 43.5t121.5 -43.5t65.5 -119.5l-116 -12q-9 29 -28.5 44.5t-42.5 15.5q-22 0 -42 -15.5t-29 -44.5z" />
    <glyph glyph-name="uni0312" unicode="&#x312;" 
d="M252 583q-44 0 -75.5 26.5t-31.5 83.5q0 60 46 101t117 68l47 -61q-14 -4 -33 -13t-33.5 -21t-14.5 -26q0 -10 7.5 -15t19.5 -11q21 -10 31.5 -23t10.5 -37q0 -37 -26.5 -54.5t-64.5 -17.5z" />
    <glyph glyph-name="uni031B" unicode="&#x31b;" 
d="M135 456v113q91 0 91 114h140q0 -65 -26.5 -116t-78 -81t-126.5 -30z" />
    <glyph glyph-name="dotbelowcomb" unicode="&#x323;" 
d="M250 -232q-52 0 -81.5 24.5t-29.5 69.5q0 42 30 68.5t81 26.5q52 0 81.5 -25t29.5 -70q0 -41 -30 -67.5t-81 -26.5z" />
    <glyph glyph-name="uni0324" unicode="&#x324;" 
d="M380 -233q-46 0 -70.5 24.5t-24.5 70.5q0 41 26 67.5t69 26.5q46 0 70.5 -24.5t24.5 -69.5q0 -42 -26 -68.5t-69 -26.5zM121 -233q-46 0 -70.5 24.5t-24.5 70.5q0 41 25.5 67.5t69.5 26.5q45 0 70 -24.5t25 -69.5q0 -42 -26 -68.5t-69 -26.5z" />
    <glyph glyph-name="uni0326" unicode="&#x326;" 
d="M193 -316l-48 60q14 5 33 13.5t33.5 20.5t14.5 27q0 9 -7 14t-20 11q-22 10 -32 24t-10 36q0 37 26 55t66 18q44 0 75 -27.5t31 -83.5q0 -58 -43.5 -99t-118.5 -69z" />
    <glyph glyph-name="uni0327" unicode="&#x327;" 
d="M148 -246l-10 84q19 0 40 4t35.5 11.5t14.5 19.5q0 16 -19 23t-43 7l-20 15l68 106h92l-47 -65q53 -5 78.5 -32.5t25.5 -65.5q0 -33 -20 -54t-52.5 -33t-70 -16.5t-72.5 -3.5z" />
    <glyph glyph-name="uni0328" unicode="&#x328;" 
d="M250 -216q-54 0 -90 33t-36 82q0 103 176 150l43 -49q-41 -9 -69.5 -30t-28.5 -46q0 -24 24 -24q10 0 16 5.5t15 17.5l76 -56q-17 -29 -50 -56t-76 -27z" />
    <glyph glyph-name="uni032E" unicode="&#x32e;" 
d="M250 -236q-71 0 -121.5 43t-65.5 120l116 12q9 -29 29 -44.5t42 -15.5t42 15.5t29 44.5l116 -12q-15 -77 -65.5 -120t-121.5 -43z" />
    <glyph glyph-name="uni0331" unicode="&#x331;" 
d="M92 -207v137h317v-137h-317z" />
    <glyph glyph-name="uni0335" unicode="&#x335;" 
d="M74 226v132h352v-132h-352z" />
    <glyph glyph-name="uni0394" unicode="&#x394;" horiz-adv-x="711" 
d="M-11 0l366 743l371 -743h-737zM223 150h264l-132 264z" />
    <glyph glyph-name="uni03A9" unicode="&#x3a9;" horiz-adv-x="751" 
d="M55 0v164h107q-59 58 -96 122t-37 135q0 64 26 118.5t73 94.5t110 62t138 22q74 0 137 -22t110 -62t73 -94.5t26 -119.5q0 -70 -37 -134t-96 -122h107v-164h-278v197q19 16 42 38.5t37 47.5q16 26 25 53.5t9 58.5q0 40 -20.5 72t-55.5 50.5t-79 18.5q-45 0 -80 -18.5
t-55 -50.5t-20 -72q0 -35 11 -65t30 -58q16 -27 36.5 -46.5t34.5 -28.5v-197h-278z" />
    <glyph glyph-name="uni03BC" unicode="&#x3bc;" horiz-adv-x="664" 
d="M72 -164v697h185v-311q0 -80 70 -80q35 0 57.5 21.5t22.5 54.5v315h185v-533h-171l-7 63q-30 -39 -64.5 -54.5t-87.5 -20.5q-6 0 -10 1l5 -153h-185z" />
    <glyph glyph-name="pi" unicode="&#x3c0;" horiz-adv-x="660" 
d="M102 0v375h-74v159h617v-159h-74v-375h-177v375h-116v-375h-176z" />
    <glyph glyph-name="uni1E08" unicode="&#x1e08;" horiz-adv-x="701" 
d="M417 -10q-110 0 -195 46.5t-133 129t-48 188.5q0 79 28.5 145.5t79.5 115.5t121 76t154 27q73 0 142.5 -27.5t119.5 -81.5l-120 -138q-25 29 -60.5 47.5t-83.5 18.5q-49 0 -89.5 -22t-64 -63.5t-23.5 -99.5q0 -83 52.5 -132.5t140.5 -49.5q46 0 85 19t65 48l95 -150
q-26 -28 -68.5 -50t-94 -34.5t-103.5 -12.5zM304 -246l-10 84q19 0 40 4t35.5 11.5t14.5 19.5q0 16 -19 23t-43 7l-20 15l68 106h92l-47 -65q53 -5 78.5 -32.5t25.5 -65.5q0 -33 -20 -54t-52.5 -33t-70 -16.5t-72.5 -3.5zM322 744l-40 94l220 115l58 -129z" />
    <glyph glyph-name="uni1E09" unicode="&#x1e09;" horiz-adv-x="550" 
d="M308 -10q-80 0 -142.5 36t-98 98.5t-35.5 142.5t35.5 143t98 98.5t142.5 35.5q72 0 132.5 -23t97.5 -66l-102 -120q-18 21 -46 35.5t-65 14.5q-49 0 -79.5 -33t-30.5 -84q0 -50 29.5 -83.5t80.5 -33.5q38 0 65 13t46 35l101 -121q-36 -42 -97 -65t-132 -23zM206 -246
l-10 84q19 0 40 4t35.5 11.5t14.5 19.5q0 16 -19 23t-43 7l-20 15l68 106h92l-47 -65q53 -5 78.5 -32.5t25.5 -65.5q0 -33 -20 -54t-52.5 -33t-70 -16.5t-72.5 -3.5zM226 581l-54 82l195 150l78 -115z" />
    <glyph glyph-name="uni1E0C" unicode="&#x1e0c;" horiz-adv-x="783" 
d="M83 0v700h302q105 0 185.5 -45t126 -124t45.5 -181t-45.5 -181t-126 -124t-185.5 -45h-302zM380 529h-99v-358h99q48 0 84.5 22.5t57 63t20.5 93.5t-20.5 93.5t-57 63t-84.5 22.5zM392 -232q-52 0 -81.5 24.5t-29.5 69.5q0 42 30 68.5t81 26.5q52 0 81.5 -25t29.5 -70
q0 -41 -30 -67.5t-81 -26.5z" />
    <glyph glyph-name="uni1E0D" unicode="&#x1e0d;" horiz-adv-x="663" 
d="M264 -11q-67 0 -119.5 35.5t-82.5 98t-30 143.5t30 143.5t83.5 98.5t121.5 36q44 0 82.5 -15.5t64.5 -41.5v253h188v-740h-170l-6 53q-26 -29 -69 -46.5t-93 -17.5zM317 142q48 0 75 33t27 91q0 59 -27 92t-75 33t-75 -33t-27 -92q0 -58 27 -91t75 -33zM332 -232
q-52 0 -81.5 24.5t-29.5 69.5q0 42 30 68.5t81 26.5q52 0 81.5 -25t29.5 -70q0 -41 -30 -67.5t-81 -26.5z" />
    <glyph glyph-name="uni1E0E" unicode="&#x1e0e;" horiz-adv-x="783" 
d="M83 0v700h302q105 0 185.5 -45t126 -124t45.5 -181t-45.5 -181t-126 -124t-185.5 -45h-302zM380 529h-99v-358h99q48 0 84.5 22.5t57 63t20.5 93.5t-20.5 93.5t-57 63t-84.5 22.5zM233 -207v137h317v-137h-317z" />
    <glyph glyph-name="uni1E0F" unicode="&#x1e0f;" horiz-adv-x="663" 
d="M264 -11q-67 0 -119.5 35.5t-82.5 98t-30 143.5t30 143.5t83.5 98.5t121.5 36q44 0 82.5 -15.5t64.5 -41.5v253h188v-740h-170l-6 53q-26 -29 -69 -46.5t-93 -17.5zM317 142q48 0 75 33t27 91q0 59 -27 92t-75 33t-75 -33t-27 -92q0 -58 27 -91t75 -33zM174 -207v137h317
v-137h-317z" />
    <glyph glyph-name="uni1E14" unicode="&#x1e14;" horiz-adv-x="659" 
d="M83 0v700h509v-163h-318v-105h278v-154h-278v-115h333v-163h-524zM164 790v112h371v-112h-371zM458 952l-238 80l58 129l220 -115z" />
    <glyph glyph-name="uni1E15" unicode="&#x1e15;" horiz-adv-x="586" 
d="M327 -10q-91 0 -157.5 35.5t-102 98t-35.5 142.5q0 81 34.5 144t96 98.5t139.5 36.5q77 -1 135.5 -36.5t91 -97t30.5 -141.5l-1 -42h-346q14 -36 48.5 -56.5t87.5 -20.5q31 0 54.5 8t50.5 28l86 -121q-53 -42 -105.5 -59t-106.5 -17zM306 393q-80 0 -99 -72h184
q-1 32 -24.5 52t-60.5 20zM310 789l-132 144l112 80l95 -176zM123 628v113h359v-113h-359z" />
    <glyph glyph-name="uni1E16" unicode="&#x1e16;" horiz-adv-x="659" 
d="M83 0v700h509v-163h-318v-105h278v-154h-278v-115h333v-163h-524zM164 790v112h371v-112h-371zM251 952l-40 94l220 115l58 -129z" />
    <glyph glyph-name="uni1E17" unicode="&#x1e17;" horiz-adv-x="586" 
d="M327 -10q-91 0 -157.5 35.5t-102 98t-35.5 142.5q0 81 34.5 144t96 98.5t139.5 36.5q77 -1 135.5 -36.5t91 -97t30.5 -141.5l-1 -42h-346q14 -36 48.5 -56.5t87.5 -20.5q31 0 54.5 8t50.5 28l86 -121q-53 -42 -105.5 -59t-106.5 -17zM306 393q-80 0 -99 -72h184
q-1 32 -24.5 52t-60.5 20zM311 789l-74 48l94 176l112 -80zM123 628v113h359v-113h-359z" />
    <glyph glyph-name="uni1E1C" unicode="&#x1e1c;" horiz-adv-x="659" 
d="M83 0v700h509v-163h-318v-105h278v-154h-278v-115h333v-163h-524zM227 -246l-10 84q19 0 40 4t35.5 11.5t14.5 19.5q0 16 -19 23t-43 7l-20 15l68 106h92l-47 -65q53 -5 78.5 -32.5t25.5 -65.5q0 -33 -20 -54t-52.5 -33t-70 -16.5t-72.5 -3.5zM350 760q-71 0 -121.5 43
t-65.5 116l116 12q9 -26 28.5 -41t42.5 -15t42.5 15t28.5 41l116 -12q-15 -73 -65.5 -116t-121.5 -43z" />
    <glyph glyph-name="uni1E1D" unicode="&#x1e1d;" horiz-adv-x="586" 
d="M327 -10q-91 0 -157.5 35.5t-102 98t-35.5 142.5q0 81 34.5 144t96 98.5t139.5 36.5q77 -1 135.5 -36.5t91 -97t30.5 -141.5l-1 -42h-346q14 -36 48.5 -56.5t87.5 -20.5q31 0 54.5 8t50.5 28l86 -121q-53 -42 -105.5 -59t-106.5 -17zM306 393q-80 0 -99 -72h184
q-1 32 -24.5 52t-60.5 20zM224 -246l-10 84q19 0 40 4t35.5 11.5t14.5 19.5q0 16 -19 23t-43 7l-20 15l68 106h92l-47 -65q53 -5 78.5 -32.5t25.5 -65.5q0 -33 -20 -54t-52.5 -33t-70 -16.5t-72.5 -3.5zM302 606q-71 0 -121.5 43t-65.5 120l116 12q9 -29 29 -44.5t42 -15.5
q23 0 42.5 15.5t28.5 44.5l116 -12q-15 -77 -65.5 -120t-121.5 -43z" />
    <glyph glyph-name="uni1E20" unicode="&#x1e20;" horiz-adv-x="789" 
d="M414 -10q-117 0 -200.5 47t-128 129.5t-44.5 187.5t48.5 187.5t135.5 129.5t202 47q89 0 161.5 -32.5t116.5 -81.5l-118 -126q-33 31 -71.5 50t-91.5 19q-51 0 -91.5 -25t-64 -68.5t-23.5 -99.5q0 -55 24.5 -99t66.5 -69t96 -25q52 0 88 29t42 74h-157v144h338
q1 -11 2.5 -33.5t2 -44.5t0.5 -31q0 -90 -43.5 -160t-119 -109.5t-171.5 -39.5zM230 790v112h371v-112h-371z" />
    <glyph glyph-name="uni1E21" unicode="&#x1e21;" horiz-adv-x="678" 
d="M317 -230q-69 0 -137 19.5t-111 51.5l63 126q33 -21 71.5 -33t83.5 -12q72 0 105 30.5t33 96.5v15q-27 -24 -65.5 -38.5t-81.5 -14.5q-72 0 -127.5 32.5t-87 90.5t-31.5 137q0 80 31 141.5t85.5 96.5t124.5 35q50 0 92.5 -17t68.5 -44l4 50h174v-484q0 -134 -78.5 -206.5
t-216.5 -72.5zM322 148q50 0 79 32t29 89t-29 89.5t-79 32.5t-78.5 -32.5t-28.5 -89.5t28.5 -89t78.5 -32zM160 638v113h359v-113h-359z" />
    <glyph glyph-name="uni1E24" unicode="&#x1e24;" horiz-adv-x="788" 
d="M83 0v700h198v-264h226v264h198v-700h-198v262h-226v-262h-198zM394 -232q-52 0 -81.5 24.5t-29.5 69.5q0 42 30 68.5t81 26.5q52 0 81.5 -25t29.5 -70q0 -41 -30 -67.5t-81 -26.5z" />
    <glyph glyph-name="uni1E25" unicode="&#x1e25;" horiz-adv-x="653" 
d="M70 0v740h183v-260q27 29 67.5 46.5t85.5 17.5q90 0 138 -55.5t48 -160.5v-328h-186v313q0 79 -70 78q-35 0 -57 -21t-22 -52v-318h-187zM327 -232q-52 0 -81.5 24.5t-29.5 69.5q0 42 30 68.5t81 26.5q52 0 81.5 -25t29.5 -70q0 -41 -30 -67.5t-81 -26.5z" />
    <glyph glyph-name="uni1E2A" unicode="&#x1e2a;" horiz-adv-x="788" 
d="M83 0v700h198v-264h226v264h198v-700h-198v262h-226v-262h-198zM394 -236q-71 0 -121.5 43t-65.5 120l116 12q9 -29 29 -44.5t42 -15.5t42 15.5t29 44.5l116 -12q-15 -77 -65.5 -120t-121.5 -43z" />
    <glyph glyph-name="uni1E2B" unicode="&#x1e2b;" horiz-adv-x="653" 
d="M70 0v740h183v-260q27 29 67.5 46.5t85.5 17.5q90 0 138 -55.5t48 -160.5v-328h-186v313q0 79 -70 78q-35 0 -57 -21t-22 -52v-318h-187zM327 -236q-71 0 -121.5 43t-65.5 120l116 12q9 -29 29 -44.5t42 -15.5t42 15.5t29 44.5l116 -12q-15 -77 -65.5 -120t-121.5 -43z
" />
    <glyph glyph-name="uni1E2E" unicode="&#x1e2e;" horiz-adv-x="590" 
d="M75 0v163h121v375h-121v162h440v-162h-121v-375h121v-163h-440zM197 971l-41 94l221 115l58 -129zM164 752q-46 0 -70 24.5t-24 69.5q0 41 25 67.5t69 26.5q46 0 70.5 -24.5t24.5 -69.5q0 -41 -25.5 -67.5t-69.5 -26.5zM425 752q-46 0 -70.5 24.5t-24.5 69.5
q0 41 25 67.5t70 26.5t69.5 -24.5t24.5 -69.5q0 -41 -25 -67.5t-69 -26.5z" />
    <glyph glyph-name="uni1E2F" unicode="&#x1e2f;" horiz-adv-x="310" 
d="M62 0v533h186v-533h-186zM172 795l-75 48l93 176l114 -80zM26 604q-46 0 -70.5 24.5t-24.5 69.5q0 42 26 68t69 26q45 0 70 -24t25 -70q0 -42 -26 -68t-69 -26zM285 604q-45 0 -70 24.5t-25 69.5q0 42 26 68t69 26q46 0 70.5 -24t24.5 -70q0 -42 -25.5 -68t-69.5 -26z
" />
    <glyph glyph-name="uni1E36" unicode="&#x1e36;" horiz-adv-x="613" 
d="M83 0v700h198v-529h305v-171h-503zM307 -232q-52 0 -81.5 24.5t-29.5 69.5q0 42 30 68.5t81 26.5q52 0 81.5 -25t29.5 -70q0 -41 -30 -67.5t-81 -26.5z" />
    <glyph glyph-name="uni1E37" unicode="&#x1e37;" horiz-adv-x="328" 
d="M71 0v740h186v-740h-186zM164 -232q-52 0 -81.5 24.5t-29.5 69.5q0 42 30 68.5t81 26.5q52 0 81.5 -25t29.5 -70q0 -41 -30 -67.5t-81 -26.5z" />
    <glyph glyph-name="uni1E3A" unicode="&#x1e3a;" horiz-adv-x="613" 
d="M83 0v700h198v-529h305v-171h-503zM149 -207v137h317v-137h-317z" />
    <glyph glyph-name="uni1E3B" unicode="&#x1e3b;" horiz-adv-x="328" 
d="M71 0v740h186v-740h-186zM6 -207v137h317v-137h-317z" />
    <glyph glyph-name="uni1E42" unicode="&#x1e42;" horiz-adv-x="884" 
d="M83 0v700h173l188 -306l190 306h167v-700h-191v187q0 54 1.5 101t4.5 90l-143 -222h-66l-139 219q4 -41 5 -87t1 -101v-187h-191zM442 -232q-52 0 -81.5 24.5t-29.5 69.5q0 42 30 68.5t81 26.5q52 0 81.5 -25t29.5 -70q0 -41 -30 -67.5t-81 -26.5z" />
    <glyph glyph-name="uni1E43" unicode="&#x1e43;" horiz-adv-x="981" 
d="M70 0v533h174l4 -54q29 35 69.5 50t79.5 15q48 0 87 -18.5t65 -68.5q30 44 79.5 65.5t94.5 21.5q97 0 147 -55.5t50 -160.5v-328h-186v312q0 79 -68 79q-34 0 -56 -21t-22 -53v-317h-186v313q0 38 -18 58t-50 20q-34 0 -55.5 -21t-21.5 -52v-318h-187zM491 -232
q-52 0 -81.5 24.5t-29.5 69.5q0 42 30 68.5t81 26.5q52 0 81.5 -25t29.5 -70q0 -41 -30 -67.5t-81 -26.5z" />
    <glyph glyph-name="uni1E44" unicode="&#x1e44;" horiz-adv-x="813" 
d="M83 0v700h177l292 -401q-5 44 -8 80t-4.5 77t-0.5 97v147h191v-700h-179l-286 391q4 -34 6 -60.5t2.5 -55t0.5 -67.5v-208h-191zM407 755q-51 0 -79 24t-28 67q0 39 28.5 65t78.5 26q51 0 79 -24t28 -67q0 -39 -28.5 -65t-78.5 -26z" />
    <glyph glyph-name="uni1E45" unicode="&#x1e45;" horiz-adv-x="653" 
d="M70 0v533h174l5 -57q27 31 69 49.5t88 18.5q90 0 138 -55.5t48 -160.5v-328h-186v313q0 79 -70 78q-35 0 -57 -21t-22 -52v-318h-187zM357 633q-51 0 -79 24t-28 67q0 40 28.5 65.5t78.5 25.5t78.5 -24t28.5 -67q0 -40 -28.5 -65.5t-78.5 -25.5z" />
    <glyph glyph-name="uni1E46" unicode="&#x1e46;" horiz-adv-x="813" 
d="M83 0v700h177l292 -401q-5 44 -8 80t-4.5 77t-0.5 97v147h191v-700h-179l-286 391q4 -34 6 -60.5t2.5 -55t0.5 -67.5v-208h-191zM407 -232q-52 0 -81.5 24.5t-29.5 69.5q0 42 30 68.5t81 26.5q52 0 81.5 -25t29.5 -70q0 -41 -30 -67.5t-81 -26.5z" />
    <glyph glyph-name="uni1E47" unicode="&#x1e47;" horiz-adv-x="653" 
d="M70 0v533h174l5 -57q27 31 69 49.5t88 18.5q90 0 138 -55.5t48 -160.5v-328h-186v313q0 79 -70 78q-35 0 -57 -21t-22 -52v-318h-187zM327 -232q-52 0 -81.5 24.5t-29.5 69.5q0 42 30 68.5t81 26.5q52 0 81.5 -25t29.5 -70q0 -41 -30 -67.5t-81 -26.5z" />
    <glyph glyph-name="uni1E48" unicode="&#x1e48;" horiz-adv-x="813" 
d="M83 0v700h177l292 -401q-5 44 -8 80t-4.5 77t-0.5 97v147h191v-700h-179l-286 391q4 -34 6 -60.5t2.5 -55t0.5 -67.5v-208h-191zM249 -207v137h317v-137h-317z" />
    <glyph glyph-name="uni1E49" unicode="&#x1e49;" horiz-adv-x="653" 
d="M70 0v533h174l5 -57q27 31 69 49.5t88 18.5q90 0 138 -55.5t48 -160.5v-328h-186v313q0 79 -70 78q-35 0 -57 -21t-22 -52v-318h-187zM169 -207v137h317v-137h-317z" />
    <glyph glyph-name="uni1E4C" unicode="&#x1e4c;" horiz-adv-x="825" 
d="M413 -10q-81 0 -149 27t-118 76t-77.5 115.5t-27.5 145.5t27.5 145.5t77.5 115.5t118 76t149 27t149 -27t117.5 -76t77 -115.5t27.5 -145.5t-27.5 -145.5t-77 -115.5t-117.5 -76t-149 -27zM413 174q49 0 87 23.5t60 64t22 92.5t-22 93t-60 64t-87 23t-87.5 -23
t-60.5 -63.5t-22 -93.5q0 -52 22 -92.5t60.5 -64t87.5 -23.5zM491 768q-18 0 -36.5 5.5t-44.5 16.5q-19 9 -31.5 13.5t-21.5 4.5q-31 0 -31 -39h-110q0 71 36 113t98 42q16 0 32.5 -4.5t46.5 -18.5q17 -9 27 -13t19 -4q12 0 19 11t6 29h110q0 -44 -15 -79.5t-42 -56
t-62 -20.5zM314 952l-40 94l220 115l58 -129z" />
    <glyph glyph-name="uni1E4D" unicode="&#x1e4d;" horiz-adv-x="653" 
d="M327 -10q-85 0 -152 36t-105 98.5t-38 142.5t38 143t105 98.5t152 35.5t151.5 -35.5t104.5 -98.5t38 -143t-38 -142.5t-104.5 -98.5t-151.5 -36zM327 147q46 0 76 34t30 86q0 53 -30 87t-76 34q-47 0 -77 -34t-30 -87q0 -52 30 -86t77 -34zM337 793l-74 47l94 176
l112 -79zM402 613q-16 0 -35.5 5t-45.5 23q-18 13 -29 18t-18 5q-15 0 -26 -10.5t-13 -32.5l-99 13q0 60 31.5 101.5t85.5 41.5q16 0 34.5 -5t44.5 -22q11 -8 24 -15.5t25 -7.5q13 0 24 10.5t13 32.5l98 -14q0 -38 -14.5 -70.5t-40 -52.5t-59.5 -20z" />
    <glyph glyph-name="uni1E4E" unicode="&#x1e4e;" horiz-adv-x="825" 
d="M413 -10q-81 0 -149 27t-118 76t-77.5 115.5t-27.5 145.5t27.5 145.5t77.5 115.5t118 76t149 27t149 -27t117.5 -76t77 -115.5t27.5 -145.5t-27.5 -145.5t-77 -115.5t-117.5 -76t-149 -27zM413 174q49 0 87 23.5t60 64t22 92.5t-22 93t-60 64t-87 23t-87.5 -23
t-60.5 -63.5t-22 -93.5q0 -52 22 -92.5t60.5 -64t87.5 -23.5zM491 768q-18 0 -36.5 5.5t-44.5 16.5q-19 9 -31.5 13.5t-21.5 4.5q-31 0 -31 -39h-110q0 71 36 113t98 42q16 0 32.5 -4.5t46.5 -18.5q17 -9 27 -13t19 -4q12 0 19 11t6 29h110q0 -44 -15 -79.5t-42 -56
t-62 -20.5zM543 960q-46 0 -70.5 24.5t-24.5 69.5q0 41 25 67.5t70 26.5t69.5 -24.5t24.5 -69.5q0 -41 -25 -67.5t-69 -26.5zM282 960q-46 0 -70 24.5t-24 69.5q0 41 25 67.5t69 26.5q46 0 70.5 -24.5t24.5 -69.5q0 -41 -25.5 -67.5t-69.5 -26.5z" />
    <glyph glyph-name="uni1E4F" unicode="&#x1e4f;" horiz-adv-x="653" 
d="M327 -10q-85 0 -152 36t-105 98.5t-38 142.5t38 143t105 98.5t152 35.5t151.5 -35.5t104.5 -98.5t38 -143t-38 -142.5t-104.5 -98.5t-151.5 -36zM327 147q46 0 76 34t30 86q0 53 -30 87t-76 34q-47 0 -77 -34t-30 -87q0 -52 30 -86t77 -34zM449 822q-43 0 -66.5 21.5
t-23.5 60.5q0 37 24.5 60t65.5 23q43 0 67 -21.5t24 -61.5q0 -36 -24.5 -59t-66.5 -23zM202 822q-44 0 -67.5 21.5t-23.5 60.5q0 37 24.5 60t66.5 23q43 0 66.5 -21.5t23.5 -61.5q0 -36 -24.5 -59t-65.5 -23zM402 613q-16 0 -35.5 5t-45.5 23q-18 13 -29 18t-18 5
q-15 0 -26.5 -10.5t-13.5 -32.5l-99 13q1 60 32.5 101.5t85.5 41.5q16 0 34 -5t45 -22q10 -8 23 -15.5t25 -7.5q14 0 24.5 10.5t12.5 32.5l99 -14q0 -38 -14.5 -70.5t-40 -52.5t-59.5 -20z" />
    <glyph glyph-name="uni1E50" unicode="&#x1e50;" horiz-adv-x="825" 
d="M413 -10q-81 0 -149 27t-118 76t-77.5 115.5t-27.5 145.5t27.5 145.5t77.5 115.5t118 76t149 27t149 -27t117.5 -76t77 -115.5t27.5 -145.5t-27.5 -145.5t-77 -115.5t-117.5 -76t-149 -27zM413 174q49 0 87 23.5t60 64t22 92.5t-22 93t-60 64t-87 23t-87.5 -23
t-60.5 -63.5t-22 -93.5q0 -52 22 -92.5t60.5 -64t87.5 -23.5zM227 790v112h371v-112h-371zM521 952l-238 80l58 129l220 -115z" />
    <glyph glyph-name="uni1E51" unicode="&#x1e51;" horiz-adv-x="653" 
d="M327 -10q-85 0 -152 36t-105 98.5t-38 142.5t38 143t105 98.5t152 35.5t151.5 -35.5t104.5 -98.5t38 -143t-38 -142.5t-104.5 -98.5t-151.5 -36zM327 147q46 0 76 34t30 86q0 53 -30 87t-76 34q-47 0 -77 -34t-30 -87q0 -52 30 -86t77 -34zM334 789l-132 144l112 80
l95 -176zM147 628v113h359v-113h-359z" />
    <glyph glyph-name="uni1E52" unicode="&#x1e52;" horiz-adv-x="825" 
d="M413 -10q-81 0 -149 27t-118 76t-77.5 115.5t-27.5 145.5t27.5 145.5t77.5 115.5t118 76t149 27t149 -27t117.5 -76t77 -115.5t27.5 -145.5t-27.5 -145.5t-77 -115.5t-117.5 -76t-149 -27zM413 174q49 0 87 23.5t60 64t22 92.5t-22 93t-60 64t-87 23t-87.5 -23
t-60.5 -63.5t-22 -93.5q0 -52 22 -92.5t60.5 -64t87.5 -23.5zM227 790v112h371v-112h-371zM314 952l-40 94l220 115l58 -129z" />
    <glyph glyph-name="uni1E53" unicode="&#x1e53;" horiz-adv-x="653" 
d="M327 -10q-85 0 -152 36t-105 98.5t-38 142.5t38 143t105 98.5t152 35.5t151.5 -35.5t104.5 -98.5t38 -143t-38 -142.5t-104.5 -98.5t-151.5 -36zM327 147q46 0 76 34t30 86q0 53 -30 87t-76 34q-47 0 -77 -34t-30 -87q0 -52 30 -86t77 -34zM335 789l-74 48l94 176
l112 -80zM147 628v113h359v-113h-359z" />
    <glyph glyph-name="uni1E5A" unicode="&#x1e5a;" horiz-adv-x="705" 
d="M83 0v700h323q71 0 126.5 -29t87.5 -79.5t32 -114.5q0 -72 -34 -127.5t-91 -84.5l154 -265h-223l-134 238h-55v-238h-186zM269 380h110q38 0 59 22.5t21 60.5q0 36 -22.5 57t-65.5 21h-102v-161zM353 -232q-52 0 -81.5 24.5t-29.5 69.5q0 42 30 68.5t81 26.5
q52 0 81.5 -25t29.5 -70q0 -41 -30 -67.5t-81 -26.5z" />
    <glyph glyph-name="uni1E5B" unicode="&#x1e5b;" horiz-adv-x="478" 
d="M70 0v533h174l5 -75q27 39 67.5 62.5t87.5 23.5q18 0 34 -2.5t30 -6.5l-51 -206q-10 7 -30.5 12.5t-43.5 5.5q-40 0 -63 -25t-23 -67v-255h-187zM157 -232q-52 0 -81.5 24.5t-29.5 69.5q0 42 30 68.5t81 26.5q52 0 81.5 -25t29.5 -70q0 -41 -30 -67.5t-81 -26.5z" />
    <glyph glyph-name="uni1E5E" unicode="&#x1e5e;" horiz-adv-x="705" 
d="M83 0v700h323q71 0 126.5 -29t87.5 -79.5t32 -114.5q0 -72 -34 -127.5t-91 -84.5l154 -265h-223l-134 238h-55v-238h-186zM269 380h110q38 0 59 22.5t21 60.5q0 36 -22.5 57t-65.5 21h-102v-161zM195 -207v137h317v-137h-317z" />
    <glyph glyph-name="uni1E5F" unicode="&#x1e5f;" horiz-adv-x="478" 
d="M70 0v533h174l5 -75q27 39 67.5 62.5t87.5 23.5q18 0 34 -2.5t30 -6.5l-51 -206q-10 7 -30.5 12.5t-43.5 5.5q-40 0 -63 -25t-23 -67v-255h-187zM-1 -207v137h317v-137h-317z" />
    <glyph glyph-name="uni1E60" unicode="&#x1e60;" horiz-adv-x="638" 
d="M323 -10q-113 0 -188 37.5t-128 103.5l116 131q50 -65 103 -86.5t103 -21.5q34 0 55.5 11t21.5 35q0 23 -21.5 36.5t-51 21.5t-55.5 14q-119 27 -177 80.5t-58 144.5q0 49 22.5 90t61.5 70.5t88 45t103 15.5q111 0 174 -32t101 -87l-118 -114q-32 35 -70.5 51.5
t-78.5 16.5q-38 0 -60 -11t-22 -34q0 -19 18.5 -31t44.5 -19t48 -11q74 -15 130 -41.5t88 -71t32 -113.5q0 -75 -37.5 -126.5t-101 -78t-143.5 -26.5zM331 755q-51 0 -79 24t-28 67q0 39 28.5 65t78.5 26q51 0 79 -24t28 -67q0 -39 -28.5 -65t-78.5 -26z" />
    <glyph glyph-name="uni1E61" unicode="&#x1e61;" horiz-adv-x="502" 
d="M252 -10q-83 0 -145.5 26t-98.5 67l110 94q31 -30 71.5 -43.5t71.5 -13.5q47 0 47 31q0 17 -17 25q-17 9 -84 26q-86 22 -131 63q-22 21 -34.5 48t-12.5 61q0 53 31.5 91t82.5 58.5t108 20.5q70 0 129 -21t103 -58l-95 -106q-26 22 -63.5 40t-68.5 18q-49 0 -49 -31
q0 -19 21 -30q9 -5 31 -12.5t62 -18.5q46 -13 80 -29.5t55 -39.5q31 -35 31 -82q0 -54 -30.5 -95.5t-83.5 -65t-121 -23.5zM252 633q-51 0 -79 24t-28 67q0 40 28.5 65.5t78.5 25.5t78.5 -24t28.5 -67q0 -40 -28.5 -65.5t-78.5 -25.5z" />
    <glyph glyph-name="uni1E62" unicode="&#x1e62;" horiz-adv-x="638" 
d="M323 -10q-113 0 -188 37.5t-128 103.5l116 131q50 -65 103 -86.5t103 -21.5q34 0 55.5 11t21.5 35q0 23 -21.5 36.5t-51 21.5t-55.5 14q-119 27 -177 80.5t-58 144.5q0 49 22.5 90t61.5 70.5t88 45t103 15.5q111 0 174 -32t101 -87l-118 -114q-32 35 -70.5 51.5
t-78.5 16.5q-38 0 -60 -11t-22 -34q0 -19 18.5 -31t44.5 -19t48 -11q74 -15 130 -41.5t88 -71t32 -113.5q0 -75 -37.5 -126.5t-101 -78t-143.5 -26.5zM340 -232q-52 0 -81.5 24.5t-29.5 69.5q0 42 30 68.5t81 26.5q52 0 81.5 -25t29.5 -70q0 -41 -30 -67.5t-81 -26.5z" />
    <glyph glyph-name="uni1E63" unicode="&#x1e63;" horiz-adv-x="502" 
d="M252 -10q-83 0 -145.5 26t-98.5 67l110 94q31 -30 71.5 -43.5t71.5 -13.5q47 0 47 31q0 17 -17 25q-17 9 -84 26q-86 22 -131 63q-22 21 -34.5 48t-12.5 61q0 53 31.5 91t82.5 58.5t108 20.5q70 0 129 -21t103 -58l-95 -106q-26 22 -63.5 40t-68.5 18q-49 0 -49 -31
q0 -19 21 -30q9 -5 31 -12.5t62 -18.5q46 -13 80 -29.5t55 -39.5q31 -35 31 -82q0 -54 -30.5 -95.5t-83.5 -65t-121 -23.5zM253 -232q-52 0 -81.5 24.5t-29.5 69.5q0 42 30 68.5t81 26.5q52 0 81.5 -25t29.5 -70q0 -41 -30 -67.5t-81 -26.5z" />
    <glyph glyph-name="uni1E64" unicode="&#x1e64;" horiz-adv-x="638" 
d="M323 -10q-113 0 -188 37.5t-128 103.5l116 131q50 -65 103 -86.5t103 -21.5q34 0 55.5 11t21.5 35q0 23 -21.5 36.5t-51 21.5t-55.5 14q-119 27 -177 80.5t-58 144.5q0 49 22.5 90t61.5 70.5t88 45t103 15.5q111 0 174 -32t101 -87l-118 -114q-32 35 -70.5 51.5
t-78.5 16.5q-38 0 -60 -11t-22 -34q0 -19 18.5 -31t44.5 -19t48 -11q74 -15 130 -41.5t88 -71t32 -113.5q0 -75 -37.5 -126.5t-101 -78t-143.5 -26.5zM427 752l-75 48l95 176l112 -80zM233 752q-46 0 -71.5 21.5t-25.5 60.5q0 36 26 59t71 23t70.5 -21.5t25.5 -60.5
q0 -36 -26 -59t-70 -23z" />
    <glyph glyph-name="uni1E65" unicode="&#x1e65;" horiz-adv-x="502" 
d="M252 -10q-83 0 -145.5 26t-98.5 67l110 94q31 -30 71.5 -43.5t71.5 -13.5q47 0 47 31q0 17 -17 25q-17 9 -84 26q-86 22 -131 63q-22 21 -34.5 48t-12.5 61q0 53 31.5 91t82.5 58.5t108 20.5q70 0 129 -21t103 -58l-95 -106q-26 22 -63.5 40t-68.5 18q-49 0 -49 -31
q0 -19 21 -30q9 -5 31 -12.5t62 -18.5q46 -13 80 -29.5t55 -39.5q31 -35 31 -82q0 -54 -30.5 -95.5t-83.5 -65t-121 -23.5zM348 614l-75 48l95 176l112 -80zM154 615q-46 0 -71.5 21t-25.5 60q0 36 26 59t71 23t70.5 -21.5t25.5 -60.5q0 -36 -26 -58.5t-70 -22.5z" />
    <glyph glyph-name="uni1E66" unicode="&#x1e66;" horiz-adv-x="638" 
d="M323 -10q-113 0 -188 37.5t-128 103.5l116 131q50 -65 103 -86.5t103 -21.5q34 0 55.5 11t21.5 35q0 23 -21.5 36.5t-51 21.5t-55.5 14q-119 27 -177 80.5t-58 144.5q0 49 22.5 90t61.5 70.5t88 45t103 15.5q111 0 174 -32t101 -87l-118 -114q-32 35 -70.5 51.5
t-78.5 16.5q-38 0 -60 -11t-22 -34q0 -19 18.5 -31t44.5 -19t48 -11q74 -15 130 -41.5t88 -71t32 -113.5q0 -75 -37.5 -126.5t-101 -78t-143.5 -26.5zM281 754l-140 109l54 67l136 -67l136 67l55 -67l-141 -109h-100zM331 963q-51 0 -79 24t-28 67q0 39 28.5 65t78.5 26
q51 0 79 -24t28 -67q0 -39 -28.5 -65t-78.5 -26z" />
    <glyph glyph-name="uni1E67" unicode="&#x1e67;" horiz-adv-x="502" 
d="M252 -10q-83 0 -145.5 26t-98.5 67l110 94q31 -30 71.5 -43.5t71.5 -13.5q47 0 47 31q0 17 -17 25q-17 9 -84 26q-86 22 -131 63q-22 21 -34.5 48t-12.5 61q0 53 31.5 91t82.5 58.5t108 20.5q70 0 129 -21t103 -58l-95 -106q-26 22 -63.5 40t-68.5 18q-49 0 -49 -31
q0 -19 21 -30q9 -5 31 -12.5t62 -18.5q46 -13 80 -29.5t55 -39.5q31 -35 31 -82q0 -54 -30.5 -95.5t-83.5 -65t-121 -23.5zM252 809q-51 0 -79 23.5t-28 67.5q0 40 28.5 65.5t78.5 25.5t78.5 -24t28.5 -67q0 -40 -28.5 -65.5t-78.5 -25.5zM202 598l-155 138l66 57l139 -84
l139 84l67 -57l-156 -138h-100z" />
    <glyph glyph-name="uni1E68" unicode="&#x1e68;" horiz-adv-x="638" 
d="M323 -10q-113 0 -188 37.5t-128 103.5l116 131q50 -65 103 -86.5t103 -21.5q34 0 55.5 11t21.5 35q0 23 -21.5 36.5t-51 21.5t-55.5 14q-119 27 -177 80.5t-58 144.5q0 49 22.5 90t61.5 70.5t88 45t103 15.5q111 0 174 -32t101 -87l-118 -114q-32 35 -70.5 51.5
t-78.5 16.5q-38 0 -60 -11t-22 -34q0 -19 18.5 -31t44.5 -19t48 -11q74 -15 130 -41.5t88 -71t32 -113.5q0 -75 -37.5 -126.5t-101 -78t-143.5 -26.5zM340 -232q-52 0 -81.5 24.5t-29.5 69.5q0 42 30 68.5t81 26.5q52 0 81.5 -25t29.5 -70q0 -41 -30 -67.5t-81 -26.5z
M331 755q-51 0 -79 24t-28 67q0 39 28.5 65t78.5 26q51 0 79 -24t28 -67q0 -39 -28.5 -65t-78.5 -26z" />
    <glyph glyph-name="uni1E69" unicode="&#x1e69;" horiz-adv-x="502" 
d="M252 -10q-83 0 -145.5 26t-98.5 67l110 94q31 -30 71.5 -43.5t71.5 -13.5q47 0 47 31q0 17 -17 25q-17 9 -84 26q-86 22 -131 63q-22 21 -34.5 48t-12.5 61q0 53 31.5 91t82.5 58.5t108 20.5q70 0 129 -21t103 -58l-95 -106q-26 22 -63.5 40t-68.5 18q-49 0 -49 -31
q0 -19 21 -30q9 -5 31 -12.5t62 -18.5q46 -13 80 -29.5t55 -39.5q31 -35 31 -82q0 -54 -30.5 -95.5t-83.5 -65t-121 -23.5zM253 -232q-52 0 -81.5 24.5t-29.5 69.5q0 42 30 68.5t81 26.5q52 0 81.5 -25t29.5 -70q0 -41 -30 -67.5t-81 -26.5zM252 633q-51 0 -79 24t-28 67
q0 40 28.5 65.5t78.5 25.5t78.5 -24t28.5 -67q0 -40 -28.5 -65.5t-78.5 -25.5z" />
    <glyph glyph-name="uni1E6C" unicode="&#x1e6c;" horiz-adv-x="691" 
d="M244 0v529h-213v171h629v-171h-218v-529h-198zM346 -232q-52 0 -81.5 24.5t-29.5 69.5q0 42 30 68.5t81 26.5q52 0 81.5 -25t29.5 -70q0 -41 -30 -67.5t-81 -26.5z" />
    <glyph glyph-name="uni1E6D" unicode="&#x1e6d;" horiz-adv-x="405" 
d="M105 0v375h-88v158h88v135h186v-135h94v-158h-94v-375h-186zM203 -232q-52 0 -81.5 24.5t-29.5 69.5q0 42 30 68.5t81 26.5q52 0 81.5 -25t29.5 -70q0 -41 -30 -67.5t-81 -26.5z" />
    <glyph glyph-name="uni1E6E" unicode="&#x1e6e;" horiz-adv-x="691" 
d="M244 0v529h-213v171h629v-171h-218v-529h-198zM187 -207v137h317v-137h-317z" />
    <glyph glyph-name="uni1E6F" unicode="&#x1e6f;" horiz-adv-x="405" 
d="M105 0v375h-88v158h88v135h186v-135h94v-158h-94v-375h-186zM45 -207v137h317v-137h-317z" />
    <glyph glyph-name="uni1E78" unicode="&#x1e78;" horiz-adv-x="777" 
d="M388 -6q-89 0 -158 35.5t-109 97.5t-40 142v431h200v-422q0 -49 30.5 -81t76.5 -32q49 0 81 32t32 81v422h194v-431q0 -80 -39.5 -142t-109 -97.5t-158.5 -35.5zM466 768q-18 0 -36.5 5.5t-44.5 16.5q-19 9 -31.5 13.5t-21.5 4.5q-31 0 -31 -39h-110q0 71 36 113t98 42
q16 0 32.5 -4.5t46.5 -18.5q17 -9 27 -13t19 -4q12 0 19 11t6 29h110q0 -44 -15 -79.5t-42 -56t-62 -20.5zM290 952l-40 94l220 115l58 -129z" />
    <glyph glyph-name="uni1E79" unicode="&#x1e79;" horiz-adv-x="658" 
d="M250 -11q-90 0 -139 56t-49 159v329h186v-310q0 -39 19.5 -60t53.5 -21q35 0 57 21t22 53v317h186v-533h-172l-6 63q-27 -34 -68.5 -54t-89.5 -20zM341 793l-74 47l94 176l112 -79zM406 613q-16 0 -35.5 5t-45.5 23q-18 13 -29 18t-18 5q-15 0 -26 -10.5t-13 -32.5
l-99 13q0 60 31.5 101.5t85.5 41.5q16 0 34.5 -5t44.5 -22q11 -8 24 -15.5t25 -7.5q13 0 24 10.5t13 32.5l98 -14q0 -38 -14.5 -70.5t-40 -52.5t-59.5 -20z" />
    <glyph glyph-name="uni1E7A" unicode="&#x1e7a;" horiz-adv-x="777" 
d="M388 -6q-89 0 -158 35.5t-109 97.5t-40 142v431h200v-422q0 -49 30.5 -81t76.5 -32q49 0 81 32t32 81v422h194v-431q0 -80 -39.5 -142t-109 -97.5t-158.5 -35.5zM202 790v112h371v-112h-371zM519 960q-46 0 -70.5 24.5t-24.5 69.5q0 41 25 67.5t70 26.5t69.5 -24.5
t24.5 -69.5q0 -41 -25 -67.5t-69 -26.5zM258 960q-46 0 -70 24.5t-24 69.5q0 41 25 67.5t69 26.5q46 0 70.5 -24.5t24.5 -69.5q0 -41 -25.5 -67.5t-69.5 -26.5z" />
    <glyph glyph-name="uni1E7B" unicode="&#x1e7b;" horiz-adv-x="658" 
d="M250 -11q-90 0 -139 56t-49 159v329h186v-310q0 -39 19.5 -60t53.5 -21q35 0 57 21t22 53v317h186v-533h-172l-6 63q-27 -34 -68.5 -54t-89.5 -20zM151 638v113h359v-113h-359zM459 829q-46 0 -70.5 24.5t-24.5 69.5q0 42 26 68t69 26q46 0 70.5 -24t24.5 -70
q0 -42 -26 -68t-69 -26zM200 829q-46 0 -70.5 24.5t-24.5 69.5q0 42 25.5 68t69.5 26q45 0 70 -24t25 -70q0 -42 -26 -68t-69 -26z" />
    <glyph glyph-name="Wgrave" unicode="&#x1e80;" horiz-adv-x="991" 
d="M199 0l-203 700h199l91 -336q6 -25 11 -48.5t8 -45.5q4 22 9 45t14 49l94 258h154l92 -258q9 -25 15.5 -47.5t11.5 -42.5q2 19 5.5 41.5t10.5 48.5l91 336h193l-204 -700h-154l-145 356l-131 -356h-162zM604 744l-238 80l58 129l220 -115z" />
    <glyph glyph-name="wgrave" unicode="&#x1e81;" horiz-adv-x="849" 
d="M181 0l-173 533l197 1l77 -290l85 221h108l93 -221l76 289h197l-182 -533h-140l-97 253l-101 -253h-140zM488 582l-219 117l77 114l196 -149z" />
    <glyph glyph-name="Wacute" unicode="&#x1e82;" horiz-adv-x="991" 
d="M199 0l-203 700h199l91 -336q6 -25 11 -48.5t8 -45.5q4 22 9 45t14 49l94 258h154l92 -258q9 -25 15.5 -47.5t11.5 -42.5q2 19 5.5 41.5t10.5 48.5l91 336h193l-204 -700h-154l-145 356l-131 -356h-162zM397 744l-40 94l220 115l58 -129z" />
    <glyph glyph-name="wacute" unicode="&#x1e83;" horiz-adv-x="849" 
d="M181 0l-173 533l197 1l77 -290l85 221h108l93 -221l76 289h197l-182 -533h-140l-97 253l-101 -253h-140zM343 581l-54 82l195 150l78 -115z" />
    <glyph glyph-name="Wdieresis" unicode="&#x1e84;" horiz-adv-x="991" 
d="M199 0l-203 700h199l91 -336q6 -25 11 -48.5t8 -45.5q4 22 9 45t14 49l94 258h154l92 -258q9 -25 15.5 -47.5t11.5 -42.5q2 19 5.5 41.5t10.5 48.5l91 336h193l-204 -700h-154l-145 356l-131 -356h-162zM626 752q-46 0 -70.5 24.5t-24.5 69.5q0 41 25 67.5t70 26.5
t69.5 -24.5t24.5 -69.5q0 -41 -25 -67.5t-69 -26.5zM365 752q-46 0 -70 24.5t-24 69.5q0 41 25 67.5t69 26.5q46 0 70.5 -24.5t24.5 -69.5q0 -41 -25.5 -67.5t-69.5 -26.5z" />
    <glyph glyph-name="wdieresis" unicode="&#x1e85;" horiz-adv-x="849" 
d="M181 0l-173 533l197 1l77 -290l85 221h108l93 -221l76 289h197l-182 -533h-140l-97 253l-101 -253h-140zM554 627q-46 0 -70.5 24.5t-24.5 69.5q0 42 26 68t69 26q46 0 70.5 -24t24.5 -70q0 -42 -26 -68t-69 -26zM295 627q-46 0 -70.5 24.5t-24.5 69.5q0 42 25.5 68
t69.5 26q45 0 70 -24t25 -70q0 -42 -26 -68t-69 -26z" />
    <glyph glyph-name="uni1E8E" unicode="&#x1e8e;" horiz-adv-x="702" 
d="M261 0v310l-276 390h222l154 -221l140 221h216l-256 -388v-312h-200zM351 755q-51 0 -79 24t-28 67q0 39 28.5 65t78.5 26q51 0 79 -24t28 -67q0 -39 -28.5 -65t-78.5 -26z" />
    <glyph glyph-name="uni1E8F" unicode="&#x1e8f;" horiz-adv-x="638" 
d="M128 -230l111 262l-234 501h208l89 -212q16 -37 25 -69q4 10 8 21.5t8 24.5l81 235h209l-230 -533l-94 -230h-181zM319 633q-51 0 -79 24t-28 67q0 40 28.5 65.5t78.5 25.5t78.5 -24t28.5 -67q0 -40 -28.5 -65.5t-78.5 -25.5z" />
    <glyph glyph-name="uni1E92" unicode="&#x1e92;" horiz-adv-x="694" 
d="M60 0v129l296 392h-270v179h538v-128l-302 -403h313v-169h-575zM348 -232q-52 0 -81.5 24.5t-29.5 69.5q0 42 30 68.5t81 26.5q52 0 81.5 -25t29.5 -70q0 -41 -30 -67.5t-81 -26.5z" />
    <glyph glyph-name="uni1E93" unicode="&#x1e93;" horiz-adv-x="580" 
d="M50 0v94l231 291h-231v148h466v-100l-218 -285h228v-148h-476zM290 -232q-52 0 -81.5 24.5t-29.5 69.5q0 42 30 68.5t81 26.5q52 0 81.5 -25t29.5 -70q0 -41 -30 -67.5t-81 -26.5z" />
    <glyph glyph-name="uni1E97" unicode="&#x1e97;" horiz-adv-x="405" 
d="M105 0v375h-88v158h88v135h186v-135h94v-158h-94v-375h-186zM329 706q-46 0 -70.5 24.5t-24.5 69.5q0 42 26 68t69 26q46 0 70.5 -24t24.5 -70q0 -42 -26 -68t-69 -26zM70 706q-46 0 -70.5 24.5t-24.5 69.5q0 42 25.5 68t69.5 26q45 0 70 -24t25 -70q0 -42 -26 -68
t-69 -26z" />
    <glyph glyph-name="uni1E9E" unicode="&#x1e9e;" horiz-adv-x="834" 
d="M543 -10q-45 0 -88 12t-78 31t-55 42l102 122q54 -52 103 -52q28 0 44 14t16 35q0 24 -25 44.5t-83 52.5q-59 33 -82.5 65t-23.5 79q0 50 38.5 88.5t92.5 57.5q-19 1 -35 1q-86 1 -137 -63t-51 -176v-343h-198v350q0 113 47 197.5t132 131.5t198 47q68 0 132.5 -10
t120.5 -34l1 -140q-76 -7 -109 -28.5t-33 -48.5q0 -26 22 -45t63 -39q43 -22 75.5 -44t50 -55t17.5 -85q0 -58 -35 -104.5t-93 -74.5t-129 -28z" />
    <glyph glyph-name="uni1EA0" unicode="&#x1ea0;" horiz-adv-x="692" 
d="M-12 0l279 700h160l277 -700h-197l-43 116h-240l-43 -116h-193zM301 325l-26 -69h137l-25 69q-14 37 -24 66t-18 60q-9 -31 -19.5 -59.5zM346 -232q-52 0 -81.5 24.5t-29.5 69.5q0 42 30 68.5t81 26.5q52 0 81.5 -25t29.5 -70q0 -41 -30 -67.5t-81 -26.5z" />
    <glyph glyph-name="uni1EA1" unicode="&#x1ea1;" horiz-adv-x="671" 
d="M263 -9q-66 0 -118.5 35.5t-83 98t-30.5 142.5q0 82 30 144.5t83 97.5t122 35q51 0 88.5 -18.5t63.5 -49.5v57h183v-533h-187v56q-27 -29 -65 -47t-86 -18zM316 144q48 0 75.5 32.5t27.5 90.5t-27.5 91t-75.5 33q-47 0 -74 -33t-27 -91t27 -90.5t74 -32.5zM336 -232
q-52 0 -81.5 24.5t-29.5 69.5q0 42 30 68.5t81 26.5q52 0 81.5 -25t29.5 -70q0 -41 -30 -67.5t-81 -26.5z" />
    <glyph glyph-name="uni1EA2" unicode="&#x1ea2;" horiz-adv-x="692" 
d="M-12 0l279 700h160l277 -700h-197l-43 116h-240l-43 -116h-193zM301 325l-26 -69h137l-25 69q-14 37 -24 66t-18 60q-9 -31 -19.5 -59.5zM320 741q-8 9 -14.5 20t-6.5 24q0 14 6.5 26t26.5 25q12 9 21 16t9 19q0 18 -31 18q-22 0 -45 -6.5t-47 -16.5l-27 94q23 12 59 22
t78 10q57 0 94 -25.5t37 -71.5q0 -36 -15 -54t-31 -30q-16 -10 -27.5 -20.5t-11.5 -19.5q0 -7 3 -14z" />
    <glyph glyph-name="uni1EA3" unicode="&#x1ea3;" horiz-adv-x="671" 
d="M263 -9q-66 0 -118.5 35.5t-83 98t-30.5 142.5q0 82 30 144.5t83 97.5t122 35q51 0 88.5 -18.5t63.5 -49.5v57h183v-533h-187v56q-27 -29 -65 -47t-86 -18zM316 144q48 0 75.5 32.5t27.5 90.5t-27.5 91t-75.5 33q-47 0 -74 -33t-27 -91t27 -90.5t74 -32.5zM310 590
q-8 9 -14.5 20t-6.5 25t6.5 25.5t26.5 25.5q12 9 21 16t9 18q0 19 -31 19q-22 0 -45 -7t-47 -16l-27 94q23 12 59 22t78 10q57 0 94 -25.5t37 -71.5q0 -36 -15 -54.5t-31 -29.5t-27.5 -21t-11.5 -20q0 -6 3 -13z" />
    <glyph glyph-name="uni1EA4" unicode="&#x1ea4;" horiz-adv-x="692" 
d="M-12 0l279 700h160l277 -700h-197l-43 116h-240l-43 -116h-193zM301 325l-26 -69h137l-25 69q-14 37 -24 66t-18 60q-9 -31 -19.5 -59.5zM533 887l-69 48l100 173l106 -76zM207 748l-51 64l141 103h97l141 -103l-51 -64l-139 59z" />
    <glyph glyph-name="uni1EA5" unicode="&#x1ea5;" horiz-adv-x="671" 
d="M263 -9q-66 0 -118.5 35.5t-83 98t-30.5 142.5q0 82 30 144.5t83 97.5t122 35q51 0 88.5 -18.5t63.5 -49.5v57h183v-533h-187v56q-27 -29 -65 -47t-86 -18zM316 144q48 0 75.5 32.5t27.5 90.5t-27.5 91t-75.5 33q-47 0 -74 -33t-27 -91t27 -90.5t74 -32.5zM540 758
l-68 49l100 172l106 -76zM198 598l-52 63l140 106h100l140 -106l-52 -63l-138 60z" />
    <glyph glyph-name="uni1EA6" unicode="&#x1ea6;" horiz-adv-x="692" 
d="M-12 0l279 700h160l277 -700h-197l-43 116h-240l-43 -116h-193zM301 325l-26 -69h137l-25 69q-14 37 -24 66t-18 60q-9 -31 -19.5 -59.5zM517 887l-138 145l106 76l100 -172zM207 748l-50 64l141 103h97l141 -103l-51 -64l-139 59z" />
    <glyph glyph-name="uni1EA7" unicode="&#x1ea7;" horiz-adv-x="671" 
d="M263 -9q-66 0 -118.5 35.5t-83 98t-30.5 142.5q0 82 30 144.5t83 97.5t122 35q51 0 88.5 -18.5t63.5 -49.5v57h183v-533h-187v56q-27 -29 -65 -47t-86 -18zM316 144q48 0 75.5 32.5t27.5 90.5t-27.5 91t-75.5 33q-47 0 -74 -33t-27 -91t27 -90.5t74 -32.5zM514 757
l-139 145l106 76l101 -172zM198 598l-51 63l140 105h99l140 -105l-51 -63l-138 59z" />
    <glyph glyph-name="uni1EA8" unicode="&#x1ea8;" horiz-adv-x="692" 
d="M-12 0l279 700h160l277 -700h-197l-43 116h-240l-43 -116h-193zM301 325l-26 -69h137l-25 69q-14 37 -24 66t-18 60q-9 -31 -19.5 -59.5zM505 882q-20 18 -20 42q1 11 5.5 19.5t20.5 19.5q9 6 17.5 13.5t8.5 14.5q0 10 -9.5 15.5t-24.5 5.5q-21 0 -43.5 -6.5t-44.5 -14.5
l-25 95q21 11 55.5 19.5t73.5 8.5q60 0 98.5 -26t38.5 -73q0 -33 -16 -49.5t-36 -27.5q-15 -8 -25.5 -16.5t-10.5 -17.5q0 -1 -0.5 -3t0.5 -4zM207 748l-51 64l142 103h97l141 -103l-51 -64l-139 59z" />
    <glyph glyph-name="uni1EA9" unicode="&#x1ea9;" horiz-adv-x="671" 
d="M263 -9q-66 0 -118.5 35.5t-83 98t-30.5 142.5q0 82 30 144.5t83 97.5t122 35q51 0 88.5 -18.5t63.5 -49.5v57h183v-533h-187v56q-27 -29 -65 -47t-86 -18zM316 144q48 0 75.5 32.5t27.5 90.5t-27.5 91t-75.5 33q-47 0 -74 -33t-27 -91t27 -90.5t74 -32.5zM497 752
q-20 18 -20 42q1 11 5.5 20t20.5 19q9 7 17.5 14.5t8.5 15.5q0 9 -9.5 14.5t-24.5 5.5q-22 0 -44 -6t-44 -15l-25 95q21 11 55 19.5t73 8.5q61 0 99.5 -26t38.5 -72q0 -35 -16 -51.5t-36 -27.5q-15 -8 -26 -16t-11 -18v-3.5t1 -4.5zM198 598l-52 63l141 106h99l140 -106
l-51 -63l-138 60z" />
    <glyph glyph-name="uni1EAA" unicode="&#x1eaa;" horiz-adv-x="692" 
d="M-12 0l279 700h160l277 -700h-197l-43 116h-240l-43 -116h-193zM301 325l-26 -69h137l-25 69q-14 37 -24 66t-18 60q-9 -31 -19.5 -59.5zM430 961q-22 0 -42 5.5t-42 14.5q-18 7 -31 11.5t-22 4.5q-18 0 -27 -10t-12 -27l-102 2q0 64 34.5 103t89.5 39q21 0 37.5 -5
t41.5 -16q31 -14 52 -14q16 0 22.5 10t9.5 27l102 -2q0 -60 -31.5 -101.5t-79.5 -41.5zM207 748l-50 64l141 103h97l141 -103l-51 -64l-139 59z" />
    <glyph glyph-name="uni1EAB" unicode="&#x1eab;" horiz-adv-x="671" 
d="M263 -9q-66 0 -118.5 35.5t-83 98t-30.5 142.5q0 82 30 144.5t83 97.5t122 35q51 0 88.5 -18.5t63.5 -49.5v57h183v-533h-187v56q-27 -29 -65 -47t-86 -18zM316 144q48 0 75.5 32.5t27.5 90.5t-27.5 91t-75.5 33q-47 0 -74 -33t-27 -91t27 -90.5t74 -32.5zM415 834
q-17 0 -37.5 4.5t-45.5 15.5q-34 14 -49 14t-26 -9t-13 -27l-99 14q0 54 31 92t84 38q16 0 35.5 -4.5t41.5 -13.5q16 -7 28 -11t25 -4t24 9t13 26l98 -14q0 -33 -14 -63t-38.5 -48.5t-57.5 -18.5zM198 598l-52 63l140 106h100l140 -106l-52 -63l-138 60z" />
    <glyph glyph-name="uni1EAC" unicode="&#x1eac;" horiz-adv-x="692" 
d="M-12 0l279 700h160l277 -700h-197l-43 116h-240l-43 -116h-193zM301 325l-26 -69h137l-25 69q-14 37 -24 66t-18 60q-9 -31 -19.5 -59.5zM346 -232q-52 0 -81.5 24.5t-29.5 69.5q0 42 30 68.5t81 26.5q52 0 81.5 -25t29.5 -70q0 -41 -30 -67.5t-81 -26.5zM211 753l-55 67
l142 109h97l141 -109l-54 -67l-136 67z" />
    <glyph glyph-name="uni1EAD" unicode="&#x1ead;" horiz-adv-x="671" 
d="M263 -9q-66 0 -118.5 35.5t-83 98t-30.5 142.5q0 82 30 144.5t83 97.5t122 35q51 0 88.5 -18.5t63.5 -49.5v57h183v-533h-187v56q-27 -29 -65 -47t-86 -18zM316 144q48 0 75.5 32.5t27.5 90.5t-27.5 91t-75.5 33q-47 0 -74 -33t-27 -91t27 -90.5t74 -32.5zM336 -232
q-52 0 -81.5 24.5t-29.5 69.5q0 42 30 68.5t81 26.5q52 0 81.5 -25t29.5 -70q0 -41 -30 -67.5t-81 -26.5zM195 598l-66 57l157 137h100l157 -137l-66 -57l-141 83z" />
    <glyph glyph-name="uni1EAE" unicode="&#x1eae;" horiz-adv-x="692" 
d="M-12 0l279 700h160l277 -700h-197l-43 116h-240l-43 -116h-193zM301 325l-26 -69h137l-25 69q-14 37 -24 66t-18 60q-9 -31 -19.5 -59.5zM356 890l-68 49l101 173l106 -77zM346 742q-71 0 -121.5 38.5t-65.5 107.5l109 12q12 -31 33.5 -42t44.5 -11t44.5 11t33.5 42
l109 -12q-15 -69 -65.5 -107.5t-121.5 -38.5z" />
    <glyph glyph-name="uni1EAF" unicode="&#x1eaf;" horiz-adv-x="671" 
d="M263 -9q-66 0 -118.5 35.5t-83 98t-30.5 142.5q0 82 30 144.5t83 97.5t122 35q51 0 88.5 -18.5t63.5 -49.5v57h183v-533h-187v56q-27 -29 -65 -47t-86 -18zM316 144q48 0 75.5 32.5t27.5 90.5t-27.5 91t-75.5 33q-47 0 -74 -33t-27 -91t27 -90.5t74 -32.5zM346 776
l-68 49l100 173l106 -77zM336 595q-71 0 -121.5 39t-65.5 108l110 12q11 -31 33 -42t44 -11q23 0 44.5 11t32.5 42l110 -12q-15 -69 -65.5 -108t-121.5 -39z" />
    <glyph glyph-name="uni1EB0" unicode="&#x1eb0;" horiz-adv-x="692" 
d="M-12 0l279 700h160l277 -700h-197l-43 116h-240l-43 -116h-193zM301 325l-26 -69h137l-25 69q-14 37 -24 66t-18 60q-9 -31 -19.5 -59.5zM343 890l-138 145l106 77l100 -173zM346 742q-71 0 -121.5 38.5t-65.5 107.5l109 12q12 -31 33.5 -42t44.5 -11t44.5 11t33.5 42
l109 -12q-15 -69 -65.5 -107.5t-121.5 -38.5z" />
    <glyph glyph-name="uni1EB1" unicode="&#x1eb1;" horiz-adv-x="671" 
d="M263 -9q-66 0 -118.5 35.5t-83 98t-30.5 142.5q0 82 30 144.5t83 97.5t122 35q51 0 88.5 -18.5t63.5 -49.5v57h183v-533h-187v56q-27 -29 -65 -47t-86 -18zM316 144q48 0 75.5 32.5t27.5 90.5t-27.5 91t-75.5 33q-47 0 -74 -33t-27 -91t27 -90.5t74 -32.5zM334 776
l-138 145l106 77l100 -173zM336 595q-71 0 -121.5 39t-65.5 110l110 12q11 -32 33 -43.5t44 -11.5q23 0 44.5 11.5t32.5 43.5l110 -12q-14 -70 -64.5 -109.5t-122.5 -39.5z" />
    <glyph glyph-name="uni1EB2" unicode="&#x1eb2;" horiz-adv-x="692" 
d="M-12 0l279 700h160l277 -700h-197l-43 116h-240l-43 -116h-193zM301 325l-26 -69h137l-25 69q-14 37 -24 66t-18 60q-9 -31 -19.5 -59.5zM319 886q-20 18 -20 42q0 10 4.5 19.5t18.5 19.5q9 6 17.5 13t9.5 15q0 20 -35 20q-21 0 -43 -5.5t-45 -14.5l-24 95q21 10 55 19
t73 9q61 0 99.5 -26t38.5 -73q0 -33 -16.5 -49.5t-35.5 -27.5q-15 -8 -26 -16.5t-11 -18.5v-2.5t1 -3.5zM346 742q-71 0 -121.5 38.5t-65.5 107.5l109 12q10 -31 32.5 -42t45.5 -11t45.5 11t32.5 42l109 -12q-15 -69 -65.5 -107.5t-121.5 -38.5z" />
    <glyph glyph-name="uni1EB3" unicode="&#x1eb3;" horiz-adv-x="671" 
d="M263 -9q-66 0 -118.5 35.5t-83 98t-30.5 142.5q0 82 30 144.5t83 97.5t122 35q51 0 88.5 -18.5t63.5 -49.5v57h183v-533h-187v56q-27 -29 -65 -47t-86 -18zM316 144q48 0 75.5 32.5t27.5 90.5t-27.5 91t-75.5 33q-47 0 -74 -33t-27 -91t27 -90.5t74 -32.5zM309 772
q-20 19 -20 43q0 10 5 19t20 20q10 7 18 14t9 15q0 10 -9.5 15.5t-24.5 5.5q-22 0 -44 -6.5t-45 -14.5l-24 95q21 11 55 19.5t73 8.5q61 0 99.5 -26t38.5 -73q0 -34 -16.5 -50.5t-35.5 -27.5q-15 -8 -26 -16t-11 -19v-3t1 -4zM336 595q-71 0 -121.5 39t-65.5 110l110 12
q11 -32 33 -43.5t44 -11.5q23 0 44.5 11.5t32.5 43.5l110 -12q-14 -70 -64.5 -109.5t-122.5 -39.5z" />
    <glyph glyph-name="uni1EB4" unicode="&#x1eb4;" horiz-adv-x="692" 
d="M-12 0l279 700h160l277 -700h-197l-43 116h-240l-43 -116h-193zM301 325l-26 -69h137l-25 69q-14 37 -24 66t-18 60q-9 -31 -19.5 -59.5zM426 959q-19 0 -37 5t-43 17q-19 8 -31.5 13t-21.5 5q-18 0 -27 -10.5t-12 -28.5l-102 2q0 65 34.5 104.5t89.5 39.5q21 0 39.5 -6
t41.5 -17q17 -8 28.5 -12.5t21.5 -4.5q16 0 22.5 11t9.5 29l102 -2q0 -61 -32 -103t-83 -42zM346 742q-71 0 -121.5 38t-65.5 107l109 12q12 -31 33.5 -41.5t44.5 -10.5t44.5 10.5t33.5 41.5l109 -12q-15 -69 -65.5 -107t-121.5 -38z" />
    <glyph glyph-name="uni1EB5" unicode="&#x1eb5;" horiz-adv-x="671" 
d="M263 -9q-66 0 -118.5 35.5t-83 98t-30.5 142.5q0 82 30 144.5t83 97.5t122 35q51 0 88.5 -18.5t63.5 -49.5v57h183v-533h-187v56q-27 -29 -65 -47t-86 -18zM316 144q48 0 75.5 32.5t27.5 90.5t-27.5 91t-75.5 33q-47 0 -74 -33t-27 -91t27 -90.5t74 -32.5zM415 836
q-17 0 -37.5 4.5t-45.5 14.5q-34 14 -49 14t-26 -8.5t-13 -26.5l-99 13q0 55 31 92.5t84 37.5q16 0 35.5 -4t41.5 -13q16 -7 28 -11t25 -4t24 9t13 26l98 -14q0 -34 -14 -63.5t-38.5 -48t-57.5 -18.5zM336 595q-71 0 -121.5 39t-65.5 110l110 12q11 -32 32.5 -43.5
t44.5 -11.5q22 0 44 11.5t33 43.5l110 -12q-14 -70 -64.5 -109.5t-122.5 -39.5z" />
    <glyph glyph-name="uni1EB6" unicode="&#x1eb6;" horiz-adv-x="692" 
d="M-12 0l279 700h160l277 -700h-197l-43 116h-240l-43 -116h-193zM301 325l-26 -69h137l-25 69q-14 37 -24 66t-18 60q-9 -31 -19.5 -59.5zM346 -232q-52 0 -81.5 24.5t-29.5 69.5q0 42 30 68.5t81 26.5q52 0 81.5 -25t29.5 -70q0 -41 -30 -67.5t-81 -26.5zM346 760
q-71 0 -121.5 43t-65.5 116l116 12q9 -26 28.5 -41t42.5 -15t42.5 15t28.5 41l116 -12q-15 -73 -65.5 -116t-121.5 -43z" />
    <glyph glyph-name="uni1EB7" unicode="&#x1eb7;" horiz-adv-x="671" 
d="M263 -9q-66 0 -118.5 35.5t-83 98t-30.5 142.5q0 82 30 144.5t83 97.5t122 35q51 0 88.5 -18.5t63.5 -49.5v57h183v-533h-187v56q-27 -29 -65 -47t-86 -18zM316 144q48 0 75.5 32.5t27.5 90.5t-27.5 91t-75.5 33q-47 0 -74 -33t-27 -91t27 -90.5t74 -32.5zM336 -232
q-52 0 -81.5 24.5t-29.5 69.5q0 42 30 68.5t81 26.5q52 0 81.5 -25t29.5 -70q0 -41 -30 -67.5t-81 -26.5zM336 606q-71 0 -121.5 43t-65.5 120l116 12q9 -29 29 -44.5t42 -15.5q23 0 42.5 15.5t28.5 44.5l116 -12q-15 -77 -65.5 -120t-121.5 -43z" />
    <glyph glyph-name="uni1EB8" unicode="&#x1eb8;" horiz-adv-x="659" 
d="M83 0v700h509v-163h-318v-105h278v-154h-278v-115h333v-163h-524zM330 -232q-52 0 -81.5 24.5t-29.5 69.5q0 42 30 68.5t81 26.5q52 0 81.5 -25t29.5 -70q0 -41 -30 -67.5t-81 -26.5z" />
    <glyph glyph-name="uni1EB9" unicode="&#x1eb9;" horiz-adv-x="586" 
d="M327 -10q-91 0 -157.5 35.5t-102 98t-35.5 142.5q0 81 34.5 144t96 98.5t139.5 36.5q77 -1 135.5 -36.5t91 -97t30.5 -141.5l-1 -42h-346q14 -36 48.5 -56.5t87.5 -20.5q31 0 54.5 8t50.5 28l86 -121q-53 -42 -105.5 -59t-106.5 -17zM306 393q-80 0 -99 -72h184
q-1 32 -24.5 52t-60.5 20zM327 -232q-52 0 -81.5 24.5t-29.5 69.5q0 42 30 68.5t81 26.5q52 0 81.5 -25t29.5 -70q0 -41 -30 -67.5t-81 -26.5z" />
    <glyph glyph-name="uni1EBA" unicode="&#x1eba;" horiz-adv-x="659" 
d="M83 0v700h509v-163h-318v-105h278v-154h-278v-115h333v-163h-524zM323 741q-8 9 -14.5 20t-6.5 24q0 14 6.5 26t26.5 25q12 9 21 16t9 19q0 18 -31 18q-22 0 -45 -6.5t-47 -16.5l-27 94q23 12 59 22t78 10q57 0 94 -25.5t37 -71.5q0 -36 -15 -54t-31 -30
q-16 -10 -27.5 -20.5t-11.5 -19.5q0 -7 3 -14z" />
    <glyph glyph-name="uni1EBB" unicode="&#x1ebb;" horiz-adv-x="586" 
d="M327 -10q-91 0 -157.5 35.5t-102 98t-35.5 142.5q0 81 34.5 144t96 98.5t139.5 36.5q77 -1 135.5 -36.5t91 -97t30.5 -141.5l-1 -42h-346q14 -36 48.5 -56.5t87.5 -20.5q31 0 54.5 8t50.5 28l86 -121q-53 -42 -105.5 -59t-106.5 -17zM306 393q-80 0 -99 -72h184
q-1 32 -24.5 52t-60.5 20zM276 590q-8 9 -14.5 20t-6.5 25t6.5 25.5t26.5 25.5q12 9 21 16t9 18q0 19 -31 19q-22 0 -45 -7t-47 -16l-27 94q23 12 59 22t78 10q57 0 94 -25.5t37 -71.5q0 -36 -15 -54.5t-31 -29.5t-27.5 -21t-11.5 -20q0 -6 3 -13z" />
    <glyph glyph-name="uni1EBC" unicode="&#x1ebc;" horiz-adv-x="659" 
d="M83 0v700h509v-163h-318v-105h278v-154h-278v-115h333v-163h-524zM428 768q-18 0 -36.5 5.5t-44.5 16.5q-19 9 -31.5 13.5t-21.5 4.5q-31 0 -31 -39h-110q0 71 36 113t98 42q16 0 32.5 -4.5t46.5 -18.5q17 -9 27 -13t19 -4q12 0 19 11t6 29h110q0 -44 -15 -79.5t-42 -56
t-62 -20.5z" />
    <glyph glyph-name="uni1EBD" unicode="&#x1ebd;" horiz-adv-x="586" 
d="M327 -10q-91 0 -157.5 35.5t-102 98t-35.5 142.5q0 81 34.5 144t96 98.5t139.5 36.5q77 -1 135.5 -36.5t91 -97t30.5 -141.5l-1 -42h-346q14 -36 48.5 -56.5t87.5 -20.5q31 0 54.5 8t50.5 28l86 -121q-53 -42 -105.5 -59t-106.5 -17zM306 393q-80 0 -99 -72h184
q-1 32 -24.5 52t-60.5 20zM378 613q-16 0 -35.5 5t-45.5 23q-18 13 -29 18t-18 5q-15 0 -26 -10.5t-13 -32.5l-99 13q0 60 31.5 101.5t85.5 41.5q16 0 34.5 -5t44.5 -22q11 -8 24 -15.5t25 -7.5q13 0 24 10.5t13 32.5l98 -14q0 -38 -14.5 -70.5t-40 -52.5t-59.5 -20z" />
    <glyph glyph-name="uni1EBE" unicode="&#x1ebe;" horiz-adv-x="659" 
d="M83 0v700h509v-163h-318v-105h278v-154h-278v-115h333v-163h-524zM537 887l-69 48l100 173l106 -76zM211 748l-51 64l141 103h97l141 -103l-51 -64l-139 59z" />
    <glyph glyph-name="uni1EBF" unicode="&#x1ebf;" horiz-adv-x="586" 
d="M327 -10q-91 0 -157.5 35.5t-102 98t-35.5 142.5q0 81 34.5 144t96 98.5t139.5 36.5q77 -1 135.5 -36.5t91 -97t30.5 -141.5l-1 -42h-346q14 -36 48.5 -56.5t87.5 -20.5q31 0 54.5 8t50.5 28l86 -121q-53 -42 -105.5 -59t-106.5 -17zM306 393q-80 0 -99 -72h184
q-1 32 -24.5 52t-60.5 20zM506 758l-68 49l100 172l106 -76zM164 598l-52 63l140 106h100l140 -106l-52 -63l-138 60z" />
    <glyph glyph-name="uni1EC0" unicode="&#x1ec0;" horiz-adv-x="659" 
d="M83 0v700h509v-163h-318v-105h278v-154h-278v-115h333v-163h-524zM520 887l-138 145l106 76l100 -172zM210 748l-50 64l141 103h97l141 -103l-51 -64l-139 59z" />
    <glyph glyph-name="uni1EC1" unicode="&#x1ec1;" horiz-adv-x="586" 
d="M327 -10q-91 0 -157.5 35.5t-102 98t-35.5 142.5q0 81 34.5 144t96 98.5t139.5 36.5q77 -1 135.5 -36.5t91 -97t30.5 -141.5l-1 -42h-346q14 -36 48.5 -56.5t87.5 -20.5q31 0 54.5 8t50.5 28l86 -121q-53 -42 -105.5 -59t-106.5 -17zM306 393q-80 0 -99 -72h184
q-1 32 -24.5 52t-60.5 20zM480 757l-139 145l106 76l101 -172zM164 598l-51 63l140 105h99l140 -105l-51 -63l-138 59z" />
    <glyph glyph-name="uni1EC2" unicode="&#x1ec2;" horiz-adv-x="659" 
d="M83 0v700h509v-163h-318v-105h278v-154h-278v-115h333v-163h-524zM508 882q-20 18 -20 42q1 11 5.5 19.5t20.5 19.5q9 6 17.5 13.5t8.5 14.5q0 10 -9.5 15.5t-24.5 5.5q-21 0 -43.5 -6.5t-44.5 -14.5l-25 95q21 11 55.5 19.5t73.5 8.5q60 0 98.5 -26t38.5 -73
q0 -33 -16 -49.5t-36 -27.5q-15 -8 -25.5 -16.5t-10.5 -17.5q0 -1 -0.5 -3t0.5 -4zM210 748l-51 64l142 103h97l141 -103l-51 -64l-139 59z" />
    <glyph glyph-name="uni1EC3" unicode="&#x1ec3;" horiz-adv-x="586" 
d="M327 -10q-91 0 -157.5 35.5t-102 98t-35.5 142.5q0 81 34.5 144t96 98.5t139.5 36.5q77 -1 135.5 -36.5t91 -97t30.5 -141.5l-1 -42h-346q14 -36 48.5 -56.5t87.5 -20.5q31 0 54.5 8t50.5 28l86 -121q-53 -42 -105.5 -59t-106.5 -17zM306 393q-80 0 -99 -72h184
q-1 32 -24.5 52t-60.5 20zM463 752q-20 18 -20 42q1 11 5.5 20t20.5 19q9 7 17.5 14.5t8.5 15.5q0 9 -9.5 14.5t-24.5 5.5q-22 0 -44 -6t-44 -15l-25 95q21 11 55 19.5t73 8.5q61 0 99.5 -26t38.5 -72q0 -35 -16 -51.5t-36 -27.5q-15 -8 -26 -16t-11 -18v-3.5t1 -4.5z
M164 598l-52 63l141 106h99l140 -106l-51 -63l-138 60z" />
    <glyph glyph-name="uni1EC4" unicode="&#x1ec4;" horiz-adv-x="659" 
d="M83 0v700h509v-163h-318v-105h278v-154h-278v-115h333v-163h-524zM433 961q-22 0 -42 5.5t-42 14.5q-18 7 -31 11.5t-22 4.5q-18 0 -27 -10t-12 -27l-102 2q0 64 34.5 103t89.5 39q21 0 37.5 -5t41.5 -16q31 -14 52 -14q16 0 22.5 10t9.5 27l102 -2q0 -60 -31.5 -101.5
t-79.5 -41.5zM210 748l-50 64l141 103h97l141 -103l-51 -64l-139 59z" />
    <glyph glyph-name="uni1EC5" unicode="&#x1ec5;" horiz-adv-x="586" 
d="M327 -10q-91 0 -157.5 35.5t-102 98t-35.5 142.5q0 81 34.5 144t96 98.5t139.5 36.5q77 -1 135.5 -36.5t91 -97t30.5 -141.5l-1 -42h-346q14 -36 48.5 -56.5t87.5 -20.5q31 0 54.5 8t50.5 28l86 -121q-53 -42 -105.5 -59t-106.5 -17zM306 393q-80 0 -99 -72h184
q-1 32 -24.5 52t-60.5 20zM381 834q-17 0 -37.5 4.5t-45.5 15.5q-34 14 -49 14t-26 -9t-13 -27l-99 14q0 54 31 92t84 38q16 0 35.5 -4.5t41.5 -13.5q16 -7 28 -11t25 -4t24 9t13 26l98 -14q0 -33 -14 -63t-38.5 -48.5t-57.5 -18.5zM164 598l-52 63l140 106h100l140 -106
l-52 -63l-138 60z" />
    <glyph glyph-name="uni1EC6" unicode="&#x1ec6;" horiz-adv-x="659" 
d="M83 0v700h509v-163h-318v-105h278v-154h-278v-115h333v-163h-524zM330 -232q-52 0 -81.5 24.5t-29.5 69.5q0 42 30 68.5t81 26.5q52 0 81.5 -25t29.5 -70q0 -41 -30 -67.5t-81 -26.5zM214 753l-55 67l142 109h97l141 -109l-54 -67l-136 67z" />
    <glyph glyph-name="uni1EC7" unicode="&#x1ec7;" horiz-adv-x="586" 
d="M327 -10q-91 0 -157.5 35.5t-102 98t-35.5 142.5q0 81 34.5 144t96 98.5t139.5 36.5q77 -1 135.5 -36.5t91 -97t30.5 -141.5l-1 -42h-346q14 -36 48.5 -56.5t87.5 -20.5q31 0 54.5 8t50.5 28l86 -121q-53 -42 -105.5 -59t-106.5 -17zM306 393q-80 0 -99 -72h184
q-1 32 -24.5 52t-60.5 20zM327 -232q-52 0 -81.5 24.5t-29.5 69.5q0 42 30 68.5t81 26.5q52 0 81.5 -25t29.5 -70q0 -41 -30 -67.5t-81 -26.5zM161 598l-66 57l157 137h100l157 -137l-66 -57l-141 83z" />
    <glyph glyph-name="uni1EC8" unicode="&#x1ec8;" horiz-adv-x="590" 
d="M75 0v163h121v375h-121v162h440v-162h-121v-375h121v-163h-440zM269 741q-8 9 -14.5 20t-6.5 24q0 14 6.5 26t26.5 25q12 9 21 16t9 19q0 18 -31 18q-22 0 -45 -6.5t-47 -16.5l-27 94q23 12 59 22t78 10q57 0 94 -25.5t37 -71.5q0 -36 -15 -54t-31 -30
q-16 -10 -27.5 -20.5t-11.5 -19.5q0 -7 3 -14z" />
    <glyph glyph-name="uni1EC9" unicode="&#x1ec9;" horiz-adv-x="310" 
d="M62 0v533h186v-533h-186zM129 590q-8 9 -14.5 20t-6.5 25t6.5 25.5t26.5 25.5q12 9 21 16t9 18q0 19 -31 19q-22 0 -45 -7t-47 -16l-27 94q23 12 59 22t78 10q57 0 94 -25.5t37 -71.5q0 -36 -15 -54.5t-31 -29.5t-27.5 -21t-11.5 -20q0 -6 3 -13z" />
    <glyph glyph-name="uni1ECA" unicode="&#x1eca;" horiz-adv-x="590" 
d="M75 0v163h121v375h-121v162h440v-162h-121v-375h121v-163h-440zM295 -232q-52 0 -81.5 24.5t-29.5 69.5q0 42 30 68.5t81 26.5q52 0 81.5 -25t29.5 -70q0 -41 -30 -67.5t-81 -26.5z" />
    <glyph glyph-name="uni1ECB" unicode="&#x1ecb;" horiz-adv-x="338" 
d="M169 634q-50 0 -78.5 23.5t-28.5 66.5q0 40 28.5 65.5t78.5 25.5q51 0 79 -23.5t28 -67.5q0 -40 -28.5 -65t-78.5 -25zM76 0v533h186v-533h-186zM169 -232q-52 0 -81.5 24.5t-29.5 69.5q0 42 30 68.5t81 26.5q52 0 81.5 -25t29.5 -70q0 -41 -30 -67.5t-81 -26.5z" />
    <glyph glyph-name="uni1ECC" unicode="&#x1ecc;" horiz-adv-x="825" 
d="M413 -10q-81 0 -149 27t-118 76t-77.5 115.5t-27.5 145.5t27.5 145.5t77.5 115.5t118 76t149 27t149 -27t117.5 -76t77 -115.5t27.5 -145.5t-27.5 -145.5t-77 -115.5t-117.5 -76t-149 -27zM413 174q49 0 87 23.5t60 64t22 92.5t-22 93t-60 64t-87 23t-87.5 -23
t-60.5 -63.5t-22 -93.5q0 -52 22 -92.5t60.5 -64t87.5 -23.5zM413 -232q-52 0 -81.5 24.5t-29.5 69.5q0 42 30 68.5t81 26.5q52 0 81.5 -25t29.5 -70q0 -41 -30 -67.5t-81 -26.5z" />
    <glyph glyph-name="uni1ECD" unicode="&#x1ecd;" horiz-adv-x="653" 
d="M327 -10q-85 0 -152 36t-105 98.5t-38 142.5t38 143t105 98.5t152 35.5t151.5 -35.5t104.5 -98.5t38 -143t-38 -142.5t-104.5 -98.5t-151.5 -36zM327 147q46 0 76 34t30 86q0 53 -30 87t-76 34q-47 0 -77 -34t-30 -87q0 -52 30 -86t77 -34zM326 -232q-52 0 -81.5 24.5
t-29.5 69.5q0 42 30 68.5t81 26.5q52 0 81.5 -25t29.5 -70q0 -41 -30 -67.5t-81 -26.5z" />
    <glyph glyph-name="uni1ECE" unicode="&#x1ece;" horiz-adv-x="825" 
d="M413 -10q-81 0 -149 27t-118 76t-77.5 115.5t-27.5 145.5t27.5 145.5t77.5 115.5t118 76t149 27t149 -27t117.5 -76t77 -115.5t27.5 -145.5t-27.5 -145.5t-77 -115.5t-117.5 -76t-149 -27zM413 174q49 0 87 23.5t60 64t22 92.5t-22 93t-60 64t-87 23t-87.5 -23
t-60.5 -63.5t-22 -93.5q0 -52 22 -92.5t60.5 -64t87.5 -23.5zM387 741q-8 9 -14.5 20t-6.5 24q0 14 6.5 26t26.5 25q12 9 21 16t9 19q0 18 -31 18q-22 0 -45 -6.5t-47 -16.5l-27 94q23 12 59 22t78 10q57 0 94 -25.5t37 -71.5q0 -36 -15 -54t-31 -30q-16 -10 -27.5 -20.5
t-11.5 -19.5q0 -7 3 -14z" />
    <glyph glyph-name="uni1ECF" unicode="&#x1ecf;" horiz-adv-x="653" 
d="M327 -10q-85 0 -152 36t-105 98.5t-38 142.5t38 143t105 98.5t152 35.5t151.5 -35.5t104.5 -98.5t38 -143t-38 -142.5t-104.5 -98.5t-151.5 -36zM327 147q46 0 76 34t30 86q0 53 -30 87t-76 34q-47 0 -77 -34t-30 -87q0 -52 30 -86t77 -34zM300 590q-8 9 -14.5 20
t-6.5 25t6.5 25.5t26.5 25.5q12 9 21 16t9 18q0 19 -31 19q-22 0 -45 -7t-47 -16l-27 94q23 12 59 22t78 10q57 0 94 -25.5t37 -71.5q0 -36 -15 -54.5t-31 -29.5t-27.5 -21t-11.5 -20q0 -6 3 -13z" />
    <glyph glyph-name="uni1ED0" unicode="&#x1ed0;" horiz-adv-x="825" 
d="M413 -10q-81 0 -149 27t-118 76t-77.5 115.5t-27.5 145.5t27.5 145.5t77.5 115.5t118 76t149 27t149 -27t117.5 -76t77 -115.5t27.5 -145.5t-27.5 -145.5t-77 -115.5t-117.5 -76t-149 -27zM413 174q49 0 87 23.5t60 64t22 92.5t-22 93t-60 64t-87 23t-87.5 -23
t-60.5 -63.5t-22 -93.5q0 -52 22 -92.5t60.5 -64t87.5 -23.5zM600 887l-69 48l100 173l106 -76zM274 748l-51 64l141 103h97l141 -103l-51 -64l-139 59z" />
    <glyph glyph-name="uni1ED1" unicode="&#x1ed1;" horiz-adv-x="653" 
d="M327 -10q-85 0 -152 36t-105 98.5t-38 142.5t38 143t105 98.5t152 35.5t151.5 -35.5t104.5 -98.5t38 -143t-38 -142.5t-104.5 -98.5t-151.5 -36zM327 147q46 0 76 34t30 86q0 53 -30 87t-76 34q-47 0 -77 -34t-30 -87q0 -52 30 -86t77 -34zM531 758l-68 49l100 172
l106 -76zM189 598l-52 63l140 106h100l140 -106l-52 -63l-138 60z" />
    <glyph glyph-name="uni1ED2" unicode="&#x1ed2;" horiz-adv-x="825" 
d="M413 -10q-81 0 -149 27t-118 76t-77.5 115.5t-27.5 145.5t27.5 145.5t77.5 115.5t118 76t149 27t149 -27t117.5 -76t77 -115.5t27.5 -145.5t-27.5 -145.5t-77 -115.5t-117.5 -76t-149 -27zM413 174q49 0 87 23.5t60 64t22 92.5t-22 93t-60 64t-87 23t-87.5 -23
t-60.5 -63.5t-22 -93.5q0 -52 22 -92.5t60.5 -64t87.5 -23.5zM583 887l-138 145l106 76l100 -172zM273 748l-50 64l141 103h97l141 -103l-51 -64l-139 59z" />
    <glyph glyph-name="uni1ED3" unicode="&#x1ed3;" horiz-adv-x="653" 
d="M327 -10q-85 0 -152 36t-105 98.5t-38 142.5t38 143t105 98.5t152 35.5t151.5 -35.5t104.5 -98.5t38 -143t-38 -142.5t-104.5 -98.5t-151.5 -36zM327 147q46 0 76 34t30 86q0 53 -30 87t-76 34q-47 0 -77 -34t-30 -87q0 -52 30 -86t77 -34zM504 757l-139 145l106 76
l101 -172zM188 598l-51 63l140 105h99l140 -105l-51 -63l-138 59z" />
    <glyph glyph-name="uni1ED4" unicode="&#x1ed4;" horiz-adv-x="825" 
d="M413 -10q-81 0 -149 27t-118 76t-77.5 115.5t-27.5 145.5t27.5 145.5t77.5 115.5t118 76t149 27t149 -27t117.5 -76t77 -115.5t27.5 -145.5t-27.5 -145.5t-77 -115.5t-117.5 -76t-149 -27zM413 174q49 0 87 23.5t60 64t22 92.5t-22 93t-60 64t-87 23t-87.5 -23
t-60.5 -63.5t-22 -93.5q0 -52 22 -92.5t60.5 -64t87.5 -23.5zM571 882q-20 18 -20 42q1 11 5.5 19.5t20.5 19.5q9 6 17.5 13.5t8.5 14.5q0 10 -9.5 15.5t-24.5 5.5q-21 0 -43.5 -6.5t-44.5 -14.5l-25 95q21 11 55.5 19.5t73.5 8.5q60 0 98.5 -26t38.5 -73q0 -33 -16 -49.5
t-36 -27.5q-15 -8 -25.5 -16.5t-10.5 -17.5q0 -1 -0.5 -3t0.5 -4zM273 748l-51 64l142 103h97l141 -103l-51 -64l-139 59z" />
    <glyph glyph-name="uni1ED5" unicode="&#x1ed5;" horiz-adv-x="653" 
d="M327 -10q-85 0 -152 36t-105 98.5t-38 142.5t38 143t105 98.5t152 35.5t151.5 -35.5t104.5 -98.5t38 -143t-38 -142.5t-104.5 -98.5t-151.5 -36zM327 147q46 0 76 34t30 86q0 53 -30 87t-76 34q-47 0 -77 -34t-30 -87q0 -52 30 -86t77 -34zM487 752q-20 18 -20 42
q1 11 5.5 20t20.5 19q9 7 17.5 14.5t8.5 15.5q0 9 -9.5 14.5t-24.5 5.5q-22 0 -44 -6t-44 -15l-25 95q21 11 55 19.5t73 8.5q61 0 99.5 -26t38.5 -72q0 -35 -16 -51.5t-36 -27.5q-15 -8 -26 -16t-11 -18v-3.5t1 -4.5zM188 598l-52 63l141 106h99l140 -106l-51 -63l-138 60z
" />
    <glyph glyph-name="uni1ED6" unicode="&#x1ed6;" horiz-adv-x="825" 
d="M413 -10q-81 0 -149 27t-118 76t-77.5 115.5t-27.5 145.5t27.5 145.5t77.5 115.5t118 76t149 27t149 -27t117.5 -76t77 -115.5t27.5 -145.5t-27.5 -145.5t-77 -115.5t-117.5 -76t-149 -27zM413 174q49 0 87 23.5t60 64t22 92.5t-22 93t-60 64t-87 23t-87.5 -23
t-60.5 -63.5t-22 -93.5q0 -52 22 -92.5t60.5 -64t87.5 -23.5zM497 961q-22 0 -42 5.5t-42 14.5q-18 7 -31 11.5t-22 4.5q-18 0 -27 -10t-12 -27l-102 2q0 64 34.5 103t89.5 39q21 0 37.5 -5t41.5 -16q31 -14 52 -14q16 0 22.5 10t9.5 27l102 -2q0 -60 -31.5 -101.5
t-79.5 -41.5zM274 748l-50 64l141 103h97l141 -103l-51 -64l-139 59z" />
    <glyph glyph-name="uni1ED7" unicode="&#x1ed7;" horiz-adv-x="653" 
d="M327 -10q-85 0 -152 36t-105 98.5t-38 142.5t38 143t105 98.5t152 35.5t151.5 -35.5t104.5 -98.5t38 -143t-38 -142.5t-104.5 -98.5t-151.5 -36zM327 147q46 0 76 34t30 86q0 53 -30 87t-76 34q-47 0 -77 -34t-30 -87q0 -52 30 -86t77 -34zM405 834q-17 0 -37.5 4.5
t-45.5 15.5q-34 14 -49 14t-26 -9t-13 -27l-99 14q0 54 31 92t84 38q16 0 35.5 -4.5t41.5 -13.5q16 -7 28 -11t25 -4t24 9t13 26l98 -14q0 -33 -14 -63t-38.5 -48.5t-57.5 -18.5zM188 598l-52 63l140 106h100l140 -106l-52 -63l-138 60z" />
    <glyph glyph-name="uni1ED8" unicode="&#x1ed8;" horiz-adv-x="825" 
d="M413 -10q-81 0 -149 27t-118 76t-77.5 115.5t-27.5 145.5t27.5 145.5t77.5 115.5t118 76t149 27t149 -27t117.5 -76t77 -115.5t27.5 -145.5t-27.5 -145.5t-77 -115.5t-117.5 -76t-149 -27zM413 174q49 0 87 23.5t60 64t22 92.5t-22 93t-60 64t-87 23t-87.5 -23
t-60.5 -63.5t-22 -93.5q0 -52 22 -92.5t60.5 -64t87.5 -23.5zM413 -232q-52 0 -81.5 24.5t-29.5 69.5q0 42 30 68.5t81 26.5q52 0 81.5 -25t29.5 -70q0 -41 -30 -67.5t-81 -26.5zM278 753l-55 67l142 109h97l141 -109l-54 -67l-136 67z" />
    <glyph glyph-name="uni1ED9" unicode="&#x1ed9;" horiz-adv-x="653" 
d="M327 -10q-85 0 -152 36t-105 98.5t-38 142.5t38 143t105 98.5t152 35.5t151.5 -35.5t104.5 -98.5t38 -143t-38 -142.5t-104.5 -98.5t-151.5 -36zM327 147q46 0 76 34t30 86q0 53 -30 87t-76 34q-47 0 -77 -34t-30 -87q0 -52 30 -86t77 -34zM326 -232q-52 0 -81.5 24.5
t-29.5 69.5q0 42 30 68.5t81 26.5q52 0 81.5 -25t29.5 -70q0 -41 -30 -67.5t-81 -26.5zM185 598l-66 57l157 137h100l157 -137l-66 -57l-141 83z" />
    <glyph glyph-name="uni1EDA" unicode="&#x1eda;" horiz-adv-x="825" 
d="M413 -10q-81 0 -149 27t-118 76t-77.5 115.5t-27.5 145.5t27.5 145.5t77.5 115.5t118 76t149 27q40 0 90 -10q17 -4 34.5 -8t36.5 -4q82 0 82 135h142q0 -49 -9.5 -93.5t-35 -77.5t-73.5 -45q49 -48 76.5 -115t27.5 -146t-27.5 -145.5t-77 -115.5t-117.5 -76t-149 -27z
M413 174q49 0 87 23.5t60 64t22 92.5t-22 93t-60 64t-87 23t-87.5 -23t-60.5 -63.5t-22 -93.5q0 -52 22 -92.5t60.5 -64t87.5 -23.5zM314 744l-40 94l220 115l58 -129z" />
    <glyph glyph-name="uni1EDB" unicode="&#x1edb;" horiz-adv-x="653" 
d="M327 -10q-85 0 -152 36t-105 98.5t-38 142.5t38 143t105 98.5t152 35.5q14 0 29.5 -1.5t28.5 -3.5q12 -3 21.5 -4.5t17.5 -1.5q86 0 86 114h140q0 -62 -25 -113.5t-82 -73.5q37 -36 57.5 -85.5t20.5 -107.5q0 -80 -38 -142.5t-104.5 -98.5t-151.5 -36zM327 147
q46 0 76 34t30 86q0 53 -30 87t-76 34q-47 0 -77 -34t-30 -87q0 -52 30 -86t77 -34zM244 581l-54 82l195 150l78 -115z" />
    <glyph glyph-name="uni1EDC" unicode="&#x1edc;" horiz-adv-x="825" 
d="M413 -10q-81 0 -149 27t-118 76t-77.5 115.5t-27.5 145.5t27.5 145.5t77.5 115.5t118 76t149 27q40 0 90 -10q17 -4 34.5 -8t36.5 -4q82 0 82 135h142q0 -49 -9.5 -93.5t-35 -77.5t-73.5 -45q49 -48 76.5 -115t27.5 -146t-27.5 -145.5t-77 -115.5t-117.5 -76t-149 -27z
M413 174q49 0 87 23.5t60 64t22 92.5t-22 93t-60 64t-87 23t-87.5 -23t-60.5 -63.5t-22 -93.5q0 -52 22 -92.5t60.5 -64t87.5 -23.5zM521 744l-238 80l58 129l220 -115z" />
    <glyph glyph-name="uni1EDD" unicode="&#x1edd;" horiz-adv-x="653" 
d="M327 -10q-85 0 -152 36t-105 98.5t-38 142.5t38 143t105 98.5t152 35.5q14 0 29.5 -1.5t28.5 -3.5q12 -3 21.5 -4.5t17.5 -1.5q86 0 86 114h140q0 -62 -25 -113.5t-82 -73.5q37 -36 57.5 -85.5t20.5 -107.5q0 -80 -38 -142.5t-104.5 -98.5t-151.5 -36zM327 147
q46 0 76 34t30 86q0 53 -30 87t-76 34q-47 0 -77 -34t-30 -87q0 -52 30 -86t77 -34zM389 582l-219 117l77 114l196 -149z" />
    <glyph glyph-name="uni1EDE" unicode="&#x1ede;" horiz-adv-x="825" 
d="M413 -10q-81 0 -149 27t-118 76t-77.5 115.5t-27.5 145.5t27.5 145.5t77.5 115.5t118 76t149 27q40 0 90 -10q17 -4 34.5 -8t36.5 -4q82 0 82 135h142q0 -49 -9.5 -93.5t-35 -77.5t-73.5 -45q49 -48 76.5 -115t27.5 -146t-27.5 -145.5t-77 -115.5t-117.5 -76t-149 -27z
M413 174q49 0 87 23.5t60 64t22 92.5t-22 93t-60 64t-87 23t-87.5 -23t-60.5 -63.5t-22 -93.5q0 -52 22 -92.5t60.5 -64t87.5 -23.5zM387 741q-8 9 -14.5 20t-6.5 24q0 14 6.5 26t26.5 25q12 9 21 16t9 19q0 18 -31 18q-22 0 -45 -6.5t-47 -16.5l-27 94q23 12 59 22t78 10
q57 0 94 -25.5t37 -71.5q0 -36 -15 -54t-31 -30q-16 -10 -27.5 -20.5t-11.5 -19.5q0 -7 3 -14z" />
    <glyph glyph-name="uni1EDF" unicode="&#x1edf;" horiz-adv-x="653" 
d="M327 -10q-85 0 -152 36t-105 98.5t-38 142.5t38 143t105 98.5t152 35.5q14 0 29.5 -1.5t28.5 -3.5q12 -3 21.5 -4.5t17.5 -1.5q86 0 86 114h140q0 -62 -25 -113.5t-82 -73.5q37 -36 57.5 -85.5t20.5 -107.5q0 -80 -38 -142.5t-104.5 -98.5t-151.5 -36zM327 147
q46 0 76 34t30 86q0 53 -30 87t-76 34q-47 0 -77 -34t-30 -87q0 -52 30 -86t77 -34zM300 590q-8 9 -14.5 20t-6.5 25t6.5 25.5t26.5 25.5q12 9 21 16t9 18q0 19 -31 19q-22 0 -45 -7t-47 -16l-27 94q23 12 59 22t78 10q57 0 94 -25.5t37 -71.5q0 -36 -15 -54.5t-31 -29.5
t-27.5 -21t-11.5 -20q0 -6 3 -13z" />
    <glyph glyph-name="uni1EE0" unicode="&#x1ee0;" horiz-adv-x="825" 
d="M413 -10q-81 0 -149 27t-118 76t-77.5 115.5t-27.5 145.5t27.5 145.5t77.5 115.5t118 76t149 27q40 0 90 -10q17 -4 34.5 -8t36.5 -4q82 0 82 135h142q0 -49 -9.5 -93.5t-35 -77.5t-73.5 -45q49 -48 76.5 -115t27.5 -146t-27.5 -145.5t-77 -115.5t-117.5 -76t-149 -27z
M413 174q49 0 87 23.5t60 64t22 92.5t-22 93t-60 64t-87 23t-87.5 -23t-60.5 -63.5t-22 -93.5q0 -52 22 -92.5t60.5 -64t87.5 -23.5zM491 768q-18 0 -36.5 5.5t-44.5 16.5q-19 9 -31.5 13.5t-21.5 4.5q-31 0 -31 -39h-110q0 71 36 113t98 42q16 0 32.5 -4.5t46.5 -18.5
q17 -9 27 -13t19 -4q12 0 19 11t6 29h110q0 -44 -15 -79.5t-42 -56t-62 -20.5z" />
    <glyph glyph-name="uni1EE1" unicode="&#x1ee1;" horiz-adv-x="653" 
d="M327 -10q-85 0 -152 36t-105 98.5t-38 142.5t38 143t105 98.5t152 35.5q14 0 29.5 -1.5t28.5 -3.5q12 -3 21.5 -4.5t17.5 -1.5q86 0 86 114h140q0 -62 -25 -113.5t-82 -73.5q37 -36 57.5 -85.5t20.5 -107.5q0 -80 -38 -142.5t-104.5 -98.5t-151.5 -36zM327 147
q46 0 76 34t30 86q0 53 -30 87t-76 34q-47 0 -77 -34t-30 -87q0 -52 30 -86t77 -34zM402 613q-16 0 -35.5 5t-45.5 23q-18 13 -29 18t-18 5q-15 0 -26 -10.5t-13 -32.5l-99 13q0 60 31.5 101.5t85.5 41.5q16 0 34.5 -5t44.5 -22q11 -8 24 -15.5t25 -7.5q13 0 24 10.5
t13 32.5l98 -14q0 -38 -14.5 -70.5t-40 -52.5t-59.5 -20z" />
    <glyph glyph-name="uni1EE2" unicode="&#x1ee2;" horiz-adv-x="825" 
d="M413 -10q-81 0 -149 27t-118 76t-77.5 115.5t-27.5 145.5t27.5 145.5t77.5 115.5t118 76t149 27q40 0 90 -10q17 -4 34.5 -8t36.5 -4q82 0 82 135h142q0 -49 -9.5 -93.5t-35 -77.5t-73.5 -45q49 -48 76.5 -115t27.5 -146t-27.5 -145.5t-77 -115.5t-117.5 -76t-149 -27z
M413 174q49 0 87 23.5t60 64t22 92.5t-22 93t-60 64t-87 23t-87.5 -23t-60.5 -63.5t-22 -93.5q0 -52 22 -92.5t60.5 -64t87.5 -23.5zM413 -232q-52 0 -81.5 24.5t-29.5 69.5q0 42 30 68.5t81 26.5q52 0 81.5 -25t29.5 -70q0 -41 -30 -67.5t-81 -26.5z" />
    <glyph glyph-name="uni1EE3" unicode="&#x1ee3;" horiz-adv-x="653" 
d="M327 -10q-85 0 -152 36t-105 98.5t-38 142.5t38 143t105 98.5t152 35.5q14 0 29.5 -1.5t28.5 -3.5q12 -3 21.5 -4.5t17.5 -1.5q86 0 86 114h140q0 -62 -25 -113.5t-82 -73.5q37 -36 57.5 -85.5t20.5 -107.5q0 -80 -38 -142.5t-104.5 -98.5t-151.5 -36zM327 147
q46 0 76 34t30 86q0 53 -30 87t-76 34q-47 0 -77 -34t-30 -87q0 -52 30 -86t77 -34zM326 -232q-52 0 -81.5 24.5t-29.5 69.5q0 42 30 68.5t81 26.5q52 0 81.5 -25t29.5 -70q0 -41 -30 -67.5t-81 -26.5z" />
    <glyph glyph-name="uni1EE4" unicode="&#x1ee4;" horiz-adv-x="777" 
d="M388 -6q-89 0 -158 35.5t-109 97.5t-40 142v431h200v-422q0 -49 30.5 -81t76.5 -32q49 0 81 32t32 81v422h194v-431q0 -80 -39.5 -142t-109 -97.5t-158.5 -35.5zM388 -232q-52 0 -81.5 24.5t-29.5 69.5q0 42 30 68.5t81 26.5q52 0 81.5 -25t29.5 -70q0 -41 -30 -67.5
t-81 -26.5z" />
    <glyph glyph-name="uni1EE5" unicode="&#x1ee5;" horiz-adv-x="658" 
d="M250 -11q-90 0 -139 56t-49 159v329h186v-310q0 -39 19.5 -60t53.5 -21q35 0 57 21t22 53v317h186v-533h-172l-6 63q-27 -34 -68.5 -54t-89.5 -20zM330 -232q-52 0 -81.5 24.5t-29.5 69.5q0 42 30 68.5t81 26.5q52 0 81.5 -25t29.5 -70q0 -41 -30 -67.5t-81 -26.5z" />
    <glyph glyph-name="uni1EE6" unicode="&#x1ee6;" horiz-adv-x="777" 
d="M388 -6q-89 0 -158 35.5t-109 97.5t-40 142v431h200v-422q0 -49 30.5 -81t76.5 -32q49 0 81 32t32 81v422h194v-431q0 -80 -39.5 -142t-109 -97.5t-158.5 -35.5zM362 741q-8 9 -14.5 20t-6.5 24q0 14 6.5 26t26.5 25q12 9 21 16t9 19q0 18 -31 18q-22 0 -45 -6.5
t-47 -16.5l-27 94q23 12 59 22t78 10q57 0 94 -25.5t37 -71.5q0 -36 -15 -54t-31 -30q-16 -10 -27.5 -20.5t-11.5 -19.5q0 -7 3 -14z" />
    <glyph glyph-name="uni1EE7" unicode="&#x1ee7;" horiz-adv-x="658" 
d="M250 -11q-90 0 -139 56t-49 159v329h186v-310q0 -39 19.5 -60t53.5 -21q35 0 57 21t22 53v317h186v-533h-172l-6 63q-27 -34 -68.5 -54t-89.5 -20zM304 590q-8 9 -14.5 20t-6.5 25t6.5 25.5t26.5 25.5q12 9 21 16t9 18q0 19 -31 19q-22 0 -45 -7t-47 -16l-27 94
q23 12 59 22t78 10q57 0 94 -25.5t37 -71.5q0 -36 -15 -54.5t-31 -29.5t-27.5 -21t-11.5 -20q0 -6 3 -13z" />
    <glyph glyph-name="uni1EE8" unicode="&#x1ee8;" horiz-adv-x="777" 
d="M388 -6q-89 0 -158 35.5t-109 97.5t-40 142v431h200v-422q0 -49 30.5 -81t76.5 -32q49 0 81 32t32 81v422h72q88 0 88 131h142q0 -67 -25.5 -122t-82.5 -79v-361q0 -80 -39.5 -142t-109 -97.5t-158.5 -35.5zM290 744l-40 94l220 115l58 -129z" />
    <glyph glyph-name="uni1EE9" unicode="&#x1ee9;" horiz-adv-x="658" 
d="M250 -11q-90 0 -139 56t-49 159v329h186v-310q0 -39 19.5 -60t53.5 -21q35 0 57 21t22 53v317q63 0 96.5 11.5t46.5 36.5t13 66h140q0 -63 -27 -116.5t-83 -70.5v-460h-172l-6 62q-26 -33 -68 -53t-90 -20zM248 581l-54 82l195 150l78 -115z" />
    <glyph glyph-name="uni1EEA" unicode="&#x1eea;" horiz-adv-x="777" 
d="M388 -6q-89 0 -158 35.5t-109 97.5t-40 142v431h200v-422q0 -49 30.5 -81t76.5 -32q49 0 81 32t32 81v422h72q88 0 88 131h142q0 -67 -25.5 -122t-82.5 -79v-361q0 -80 -39.5 -142t-109 -97.5t-158.5 -35.5zM497 744l-238 80l58 129l220 -115z" />
    <glyph glyph-name="uni1EEB" unicode="&#x1eeb;" horiz-adv-x="658" 
d="M250 -11q-90 0 -139 56t-49 159v329h186v-310q0 -39 19.5 -60t53.5 -21q35 0 57 21t22 53v317q63 0 96.5 11.5t46.5 36.5t13 66h140q0 -63 -27 -116.5t-83 -70.5v-460h-172l-6 62q-26 -33 -68 -53t-90 -20zM393 582l-219 117l77 114l196 -149z" />
    <glyph glyph-name="uni1EEC" unicode="&#x1eec;" horiz-adv-x="777" 
d="M388 -6q-89 0 -158 35.5t-109 97.5t-40 142v431h200v-422q0 -49 30.5 -81t76.5 -32q49 0 81 32t32 81v422h72q88 0 88 131h142q0 -67 -25.5 -122t-82.5 -79v-361q0 -80 -39.5 -142t-109 -97.5t-158.5 -35.5zM362 741q-8 9 -14.5 20t-6.5 24q0 14 6.5 26t26.5 25
q12 9 21 16t9 19q0 18 -31 18q-22 0 -45 -6.5t-47 -16.5l-27 94q23 12 59 22t78 10q57 0 94 -25.5t37 -71.5q0 -36 -15 -54t-31 -30q-16 -10 -27.5 -20.5t-11.5 -19.5q0 -7 3 -14z" />
    <glyph glyph-name="uni1EED" unicode="&#x1eed;" horiz-adv-x="658" 
d="M250 -11q-90 0 -139 56t-49 159v329h186v-310q0 -39 19.5 -60t53.5 -21q35 0 57 21t22 53v317q63 0 96.5 11.5t46.5 36.5t13 66h140q0 -63 -27 -116.5t-83 -70.5v-460h-172l-6 62q-26 -33 -68 -53t-90 -20zM304 590q-8 9 -14.5 20t-6.5 25t6.5 25.5t26.5 25.5q12 9 21 16
t9 18q0 19 -31 19q-22 0 -45 -7t-47 -16l-27 94q23 12 59 22t78 10q57 0 94 -25.5t37 -71.5q0 -36 -15 -54.5t-31 -29.5t-27.5 -21t-11.5 -20q0 -6 3 -13z" />
    <glyph glyph-name="uni1EEE" unicode="&#x1eee;" horiz-adv-x="777" 
d="M388 -6q-89 0 -158 35.5t-109 97.5t-40 142v431h200v-422q0 -49 30.5 -81t76.5 -32q49 0 81 32t32 81v422h72q88 0 88 131h142q0 -67 -25.5 -122t-82.5 -79v-361q0 -80 -39.5 -142t-109 -97.5t-158.5 -35.5zM466 768q-18 0 -36.5 5.5t-44.5 16.5q-19 9 -31.5 13.5
t-21.5 4.5q-31 0 -31 -39h-110q0 71 36 113t98 42q16 0 32.5 -4.5t46.5 -18.5q17 -9 27 -13t19 -4q12 0 19 11t6 29h110q0 -44 -15 -79.5t-42 -56t-62 -20.5z" />
    <glyph glyph-name="uni1EEF" unicode="&#x1eef;" horiz-adv-x="658" 
d="M250 -11q-90 0 -139 56t-49 159v329h186v-310q0 -39 19.5 -60t53.5 -21q35 0 57 21t22 53v317q63 0 96.5 11.5t46.5 36.5t13 66h140q0 -63 -27 -116.5t-83 -70.5v-460h-172l-6 62q-26 -33 -68 -53t-90 -20zM406 613q-16 0 -35.5 5t-45.5 23q-18 13 -29 18t-18 5
q-15 0 -26 -10.5t-13 -32.5l-99 13q0 60 31.5 101.5t85.5 41.5q16 0 34.5 -5t44.5 -22q11 -8 24 -15.5t25 -7.5q13 0 24 10.5t13 32.5l98 -14q0 -38 -14.5 -70.5t-40 -52.5t-59.5 -20z" />
    <glyph glyph-name="uni1EF0" unicode="&#x1ef0;" horiz-adv-x="777" 
d="M388 -6q-89 0 -158 35.5t-109 97.5t-40 142v431h200v-422q0 -49 30.5 -81t76.5 -32q49 0 81 32t32 81v422h72q88 0 88 131h142q0 -67 -25.5 -122t-82.5 -79v-361q0 -80 -39.5 -142t-109 -97.5t-158.5 -35.5zM388 -232q-52 0 -81.5 24.5t-29.5 69.5q0 42 30 68.5t81 26.5
q52 0 81.5 -25t29.5 -70q0 -41 -30 -67.5t-81 -26.5z" />
    <glyph glyph-name="uni1EF1" unicode="&#x1ef1;" horiz-adv-x="658" 
d="M250 -11q-90 0 -139 56t-49 159v329h186v-310q0 -39 19.5 -60t53.5 -21q35 0 57 21t22 53v317q63 0 96.5 11.5t46.5 36.5t13 66h140q0 -63 -27 -116.5t-83 -70.5v-460h-172l-6 62q-26 -33 -68 -53t-90 -20zM330 -232q-52 0 -81.5 24.5t-29.5 69.5q0 42 30 68.5t81 26.5
q52 0 81.5 -25t29.5 -70q0 -41 -30 -67.5t-81 -26.5z" />
    <glyph glyph-name="Ygrave" unicode="&#x1ef2;" horiz-adv-x="702" 
d="M261 0v310l-276 390h222l154 -221l140 221h216l-256 -388v-312h-200zM459 744l-238 80l58 129l220 -115z" />
    <glyph glyph-name="ygrave" unicode="&#x1ef3;" horiz-adv-x="638" 
d="M128 -230l111 262l-234 501h208l89 -212q16 -37 25 -69q4 10 8 21.5t8 24.5l81 235h209l-230 -533l-94 -230h-181zM382 582l-219 117l77 114l196 -149z" />
    <glyph glyph-name="uni1EF4" unicode="&#x1ef4;" horiz-adv-x="702" 
d="M261 0v310l-276 390h222l154 -221l140 221h216l-256 -388v-312h-200zM351 -232q-52 0 -81.5 24.5t-29.5 69.5q0 42 30 68.5t81 26.5q52 0 81.5 -25t29.5 -70q0 -41 -30 -67.5t-81 -26.5z" />
    <glyph glyph-name="uni1EF5" unicode="&#x1ef5;" horiz-adv-x="638" 
d="M128 -230l111 262l-234 501h208l89 -212q16 -37 25 -69q4 10 8 21.5t8 24.5l81 235h209l-230 -533l-94 -230h-181zM525 -232q-52 0 -81.5 24.5t-29.5 69.5q0 42 30 68.5t81 26.5q52 0 81.5 -25t29.5 -70q0 -41 -30 -67.5t-81 -26.5z" />
    <glyph glyph-name="uni1EF6" unicode="&#x1ef6;" horiz-adv-x="702" 
d="M261 0v310l-276 390h222l154 -221l140 221h216l-256 -388v-312h-200zM325 741q-8 9 -14.5 20t-6.5 24q0 14 6.5 26t26.5 25q12 9 21 16t9 19q0 18 -31 18q-22 0 -45 -6.5t-47 -16.5l-27 94q23 12 59 22t78 10q57 0 94 -25.5t37 -71.5q0 -36 -15 -54t-31 -30
q-16 -10 -27.5 -20.5t-11.5 -19.5q0 -7 3 -14z" />
    </font>
</defs>
</svg>
